SplineFontDB: 3.0
FontName: HeadlandOne-Regular
FullName: Headland One
FamilyName: Headland One
Weight: Book
Copyright: Copyright (c) 2011-2012, Sorkin Type Co (www.sorkintype.com), with Reserved Font Name "Headland"
Version: 1.001
ItalicAngle: 0
UnderlinePosition: -28
UnderlineWidth: 142
Ascent: 1638
Descent: 410
sfntRevision: 0x00010041
LayerCount: 2
Layer: 0 1 "Back"  1
Layer: 1 1 "Fore"  0
XUID: [1021 723 548469661 15232365]
FSType: 0
OS2Version: 3
OS2_WeightWidthSlopeOnly: 0
OS2_UseTypoMetrics: 1
CreationTime: 1332797640
ModificationTime: 1333084136
PfmFamily: 17
TTFWeight: 400
TTFWidth: 5
LineGap: 0
VLineGap: 0
Panose: 2 2 6 2 6 3 0 6 7 4
OS2TypoAscent: 402
OS2TypoAOffset: 1
OS2TypoDescent: -110
OS2TypoDOffset: 1
OS2TypoLinegap: 0
OS2WinAscent: 0
OS2WinAOffset: 1
OS2WinDescent: 0
OS2WinDOffset: 1
HheadAscent: 0
HheadAOffset: 1
HheadDescent: 0
HheadDOffset: 1
OS2SubXSize: 1434
OS2SubYSize: 1331
OS2SubXOff: 0
OS2SubYOff: 287
OS2SupXSize: 1434
OS2SupYSize: 1331
OS2SupXOff: 0
OS2SupYOff: 977
OS2StrikeYSize: 102
OS2StrikeYPos: 512
OS2Vendor: 'STC '
OS2CodePages: 20000093.00000000
OS2UnicodeRanges: a00000af.4000204a.00000000.00000000
DEI: 91125
ShortTable: maxp 16
  1
  0
  423
  109
  7
  104
  4
  1
  0
  0
  0
  0
  0
  0
  2
  1
EndShort

StartChar: exclam
Encoding: 33 33 23
Width: 684
GlyphClass: 2
Flags: W
LayerCount: 2
Fore
SplineSet
213 1615 m 1,0,1
 243 1657 243 1657 403 1692 c 0,2,3
 440 1700 440 1700 458 1700 c 1,4,-1
 484 1652 l 1,5,-1
 402 455 l 1,6,7
 356 433 356 433 326 432 c 128,-1,8
 296 431 296 431 278 430 c 1,9,-1
 213 1615 l 1,0,1
188 128 m 0,10,11
 188 160 188 160 200 188.5 c 128,-1,12
 212 217 212 217 233 238 c 0,13,14
 278 283 278 283 341 283 c 256,15,16
 404 283 404 283 449 238 c 0,17,18
 495 192 495 192 495 127 c 0,19,20
 495 63 495 63 449 17 c 128,-1,21
 403 -29 403 -29 341 -29 c 256,22,23
 279 -29 279 -29 233 17 c 0,24,25
 188 62 188 62 188 128 c 0,10,11
EndSplineSet
EndChar

StartChar: quotedbl
Encoding: 34 34 24
Width: 1194
GlyphClass: 2
Flags: W
LayerCount: 2
Fore
SplineSet
688 1870 m 1,0,-1
 945 1870 l 1,1,-1
 881 1218 l 1,2,-1
 752 1218 l 1,3,-1
 688 1870 l 1,0,-1
249 1870 m 1,4,-1
 506 1870 l 1,5,-1
 442 1218 l 1,6,-1
 313 1218 l 1,7,-1
 249 1870 l 1,4,-1
EndSplineSet
EndChar

StartChar: numbersign
Encoding: 35 35 25
Width: 1537
GlyphClass: 2
Flags: W
LayerCount: 2
Fore
SplineSet
416 602 m 1,0,-1
 130 602 l 1,1,-1
 152 729 l 1,2,-1
 440 729 l 1,3,-1
 502 1062 l 1,4,-1
 199 1062 l 1,5,-1
 220 1188 l 1,6,-1
 525 1188 l 1,7,-1
 589 1530 l 1,8,-1
 722 1530 l 1,9,-1
 659 1188 l 1,10,-1
 971 1188 l 1,11,-1
 1034 1530 l 1,12,-1
 1168 1530 l 1,13,-1
 1105 1188 l 1,14,-1
 1406 1188 l 1,15,-1
 1386 1062 l 1,16,-1
 1081 1062 l 1,17,-1
 1020 729 l 1,18,-1
 1335 729 l 1,19,-1
 1316 603 l 1,20,-1
 996 602 l 1,21,-1
 937 282 l 1,22,-1
 803 282 l 1,23,-1
 862 602 l 1,24,-1
 551 602 l 1,25,-1
 492 282 l 1,26,-1
 357 282 l 1,27,-1
 416 602 l 1,0,-1
886 729 m 1,28,-1
 947 1062 l 1,29,-1
 636 1062 l 1,30,-1
 574 729 l 1,31,-1
 886 729 l 1,28,-1
EndSplineSet
EndChar

StartChar: dollar
Encoding: 36 36 26
Width: 1364
GlyphClass: 2
Flags: W
LayerCount: 2
Fore
SplineSet
911 1526.5 m 128,-1,1
 979 1517 979 1517 1048.5 1517 c 128,-1,2
 1118 1517 1118 1517 1171 1528 c 1,3,-1
 1171 1112 l 1,4,-1
 1039 1112 l 1,5,6
 1033 1370 1033 1370 849 1421 c 0,7,8
 788 1438 788 1438 698 1438 c 128,-1,9
 608 1438 608 1438 544.5 1416 c 128,-1,10
 481 1394 481 1394 446 1357 c 0,11,12
 382 1291 382 1291 387 1175 c 0,13,14
 394 1005 394 1005 736 872 c 1,15,16
 969 778 969 778 1076 688 c 0,17,18
 1210 575 1210 575 1214 423 c 1,19,20
 1217 116 1217 116 930 22 c 0,21,22
 839 -8 839 -8 725 -14 c 1,23,-1
 710 -236 l 1,24,-1
 571 -236 l 1,25,-1
 587 -11 l 1,26,27
 542 -7 542 -7 500 1 c 2,28,-1
 418 16 l 2,29,30
 313 36 313 36 266 36 c 128,-1,31
 219 36 219 36 180 30 c 1,32,33
 189 126 189 126 189 381 c 2,34,-1
 189 457 l 1,35,-1
 318 457 l 1,36,37
 327 343 327 343 347.5 289.5 c 128,-1,38
 368 236 368 236 393 201.5 c 128,-1,39
 418 167 418 167 456 142 c 0,40,41
 535 89 535 89 668 89 c 0,42,43
 1014 89 1014 89 1006 369 c 0,44,45
 1002 484 1002 484 880 565 c 0,46,47
 824 602 824 602 752 633 c 1,48,-1
 600 696 l 1,49,50
 321 807 321 807 230 982 c 0,51,52
 195 1048 195 1048 193.5 1131 c 128,-1,53
 192 1214 192 1214 223.5 1285 c 128,-1,54
 255 1356 255 1356 314 1410 c 0,55,56
 437 1523 437 1523 647 1541 c 1,57,-1
 653 1772 l 1,58,-1
 790 1772 l 1,59,-1
 783 1541 l 1,60,0
 843 1536 843 1536 911 1526.5 c 128,-1,1
EndSplineSet
EndChar

StartChar: percent
Encoding: 37 37 27
Width: 2216
GlyphClass: 2
Flags: W
LayerCount: 2
Fore
SplineSet
1380 1546 m 1,0,-1
 1525 1546 l 1,1,-1
 824 0 l 1,2,-1
 679 0 l 1,3,-1
 1380 1546 l 1,0,-1
528 662 m 0,4,5
 445 664 445 664 378.5 692 c 128,-1,6
 312 720 312 720 263 772 c 0,7,8
 156 887 156 887 160 1073 c 0,9,10
 164 1269 164 1269 292 1404 c 1,11,12
 423 1545 423 1545 612 1545 c 0,13,14
 759 1545 759 1545 869 1416 c 0,15,16
 974 1293 974 1293 974 1136 c 0,17,18
 974 912 974 912 839 781 c 0,19,20
 713 659 713 659 528 662 c 0,4,5
567 754 m 0,21,22
 663 754 663 754 722 848 c 0,23,24
 781 941 781 941 781 1093 c 0,25,26
 781 1243 781 1243 730 1348 c 0,27,28
 677 1457 677 1457 586 1457 c 0,29,30
 494 1457 494 1457 432 1380 c 0,31,32
 359 1290 359 1290 355 1123.5 c 128,-1,33
 351 957 351 957 412 853 c 0,34,35
 470 754 470 754 567 754 c 0,21,22
1251 394 m 0,36,37
 1253 491 1253 491 1288 576.5 c 128,-1,38
 1323 662 1323 662 1383 726 c 0,39,40
 1514 867 1514 867 1703 867 c 0,41,42
 1850 867 1850 867 1960 738 c 0,43,44
 2065 615 2065 615 2065 458 c 0,45,46
 2065 234 2065 234 1930 103 c 0,47,48
 1804 -19 1804 -19 1611 -15 c 1,49,50
 1454 -13 1454 -13 1354 94 c 0,51,52
 1247 209 1247 209 1251 394 c 0,36,37
1446 448 m 0,53,54
 1444 360 1444 360 1459 291.5 c 128,-1,55
 1474 223 1474 223 1502 175 c 0,56,57
 1560 76 1560 76 1658 76 c 0,58,59
 1754 76 1754 76 1813 170 c 0,60,61
 1871 262 1871 262 1871 415 c 0,62,63
 1871 565 1871 565 1820 670 c 0,64,65
 1767 779 1767 779 1676 779 c 256,66,67
 1585 779 1585 779 1522 702 c 1,68,69
 1450 612 1450 612 1446 448 c 0,53,54
EndSplineSet
EndChar

StartChar: ampersand
Encoding: 38 38 28
Width: 1881
GlyphClass: 2
Flags: W
LayerCount: 2
Fore
SplineSet
1802 626 m 1,0,1
 1807 588 1807 588 1807 567 c 0,2,3
 1807 524 1807 524 1781 500 c 1,4,5
 1732 492 1732 492 1578 490 c 1,6,7
 1526 275 1526 275 1340 134 c 0,8,9
 1142 -16 1142 -16 874 -16 c 0,10,11
 582 -16 582 -16 421 108 c 0,12,13
 265 229 265 229 265 437 c 0,14,15
 265 599 265 599 456 792 c 0,16,17
 488 825 488 825 514 848 c 2,18,-1
 553 883 l 1,19,20
 440 996 440 996 440 1134 c 0,21,22
 440 1296 440 1296 583 1420 c 0,23,24
 728 1545 728 1545 929 1545 c 0,25,26
 1155 1545 1155 1545 1234 1440 c 0,27,28
 1261 1404 1261 1404 1261 1368 c 128,-1,29
 1261 1332 1261 1332 1256.5 1307 c 128,-1,30
 1252 1282 1252 1282 1245 1258 c 0,31,32
 1229 1204 1229 1204 1218 1192 c 0,33,34
 1201 1174 1201 1174 1150.5 1174 c 128,-1,35
 1100 1174 1100 1174 1100 1188 c 0,36,37
 1100 1298 1100 1298 1034 1364 c 256,38,39
 968 1430 968 1430 865 1430 c 0,40,41
 784 1430 784 1430 702 1370 c 1,42,43
 613 1303 613 1303 613 1216 c 0,44,45
 613 1118 613 1118 690 1026 c 0,46,47
 711 1001 711 1001 728.5 989 c 128,-1,48
 746 977 746 977 754 966.5 c 128,-1,49
 762 956 762 956 764 946 c 0,50,51
 768 928 768 928 758 920 c 1,52,53
 590 811 590 811 516 650 c 0,54,55
 488 587 488 587 488 502.5 c 128,-1,56
 488 418 488 418 520.5 343.5 c 128,-1,57
 553 269 553 269 611 220 c 0,58,59
 726 121 726 121 921 121 c 0,60,61
 1135 121 1135 121 1276 226 c 0,62,63
 1413 329 1413 329 1427 489 c 1,64,-1
 819 498 l 2,65,66
 794 498 794 498 794 533 c 128,-1,67
 794 568 794 568 809.5 609 c 128,-1,68
 825 650 825 650 854.5 696 c 128,-1,69
 884 742 884 742 927 787.5 c 128,-1,70
 970 833 970 833 1024 870 c 0,71,72
 1146 951 1146 951 1285 951 c 0,73,74
 1490 951 1490 951 1566 781 c 0,75,76
 1594 717 1594 717 1594 621 c 2,77,-1
 1594 613 l 1,78,79
 1748 618 1748 618 1802 626 c 1,0,1
980 605 m 1,80,81
 989 611 989 611 1064 611 c 2,82,-1
 1428 611 l 1,83,84
 1416 681 1416 681 1374 725 c 0,85,86
 1290 813 1290 813 1189 813 c 0,87,88
 1077 813 1077 813 1017 709 c 0,89,90
 991 663 991 663 980 605 c 1,80,81
EndSplineSet
EndChar

StartChar: quotesingle
Encoding: 39 39 29
Width: 683
GlyphClass: 2
Flags: W
LayerCount: 2
Fore
SplineSet
213 1870 m 1,0,-1
 470 1870 l 1,1,-1
 406 1218 l 1,2,-1
 277 1218 l 1,3,-1
 213 1870 l 1,0,-1
EndSplineSet
EndChar

StartChar: parenleft
Encoding: 40 40 30
Width: 1085
GlyphClass: 2
Flags: W
LayerCount: 2
Fore
SplineSet
705 1940 m 1,0,1
 704 1941 704 1941 705 1941 c 1,2,-1
 705 1940 l 1,0,1
705 -392 m 1,3,4
 508 -202 508 -202 374 85 c 0,5,6
 220 413 220 413 220 786 c 0,7,8
 220 1169 220 1169 345 1464 c 0,9,10
 435 1677 435 1677 578 1828 c 0,11,12
 632 1885 632 1885 668 1911.5 c 128,-1,13
 704 1938 704 1938 705 1940 c 1,14,15
 706 1938 706 1938 716 1927 c 2,16,-1
 766 1870 l 1,17,18
 625 1718 625 1718 526 1457 c 1,19,20
 416 1162 416 1162 416 786 c 0,21,22
 416 379 416 379 591 -19 c 0,23,24
 668 -196 668 -196 766 -340 c 1,25,-1
 705 -392 l 1,3,4
EndSplineSet
EndChar

StartChar: asterisk
Encoding: 42 42 32
Width: 1364
GlyphClass: 2
Flags: W
LayerCount: 2
Fore
SplineSet
706 1090 m 1,0,1
 833 875 833 875 833 739 c 0,2,3
 833 646 833 646 786 616 c 0,4,5
 765 603 765 603 733 603 c 128,-1,6
 701 603 701 603 683 607 c 128,-1,7
 665 611 665 611 656 620 c 1,8,9
 639 634 639 634 639 676 c 2,10,-1
 642 1096 l 1,11,12
 510 849 510 849 357 786 c 0,13,14
 334 776 334 776 311 776 c 0,15,16
 261 776 261 776 234 822.5 c 128,-1,17
 207 869 207 869 207 888 c 0,18,19
 207 918 207 918 248 943 c 1,20,-1
 608 1150 l 1,21,22
 295 1144 295 1144 190 1257 c 0,23,24
 163 1286 163 1286 163 1314.5 c 128,-1,25
 163 1343 163 1343 180 1374 c 0,26,27
 212 1431 212 1431 244 1431 c 0,28,29
 261 1431 261 1431 288 1415 c 2,30,-1
 625 1219 l 1,31,32
 558 1356 558 1356 524 1502 c 0,33,34
 514 1542 514 1542 514 1563 c 0,35,36
 514 1700 514 1700 617 1700 c 0,37,38
 672 1700 672 1700 686 1688 c 0,39,40
 707 1670 707 1670 707 1627 c 0,41,42
 711 1311 711 1311 711 1284 c 2,43,-1
 711 1228 l 1,44,45
 801 1358 801 1358 906 1456 c 0,46,47
 980 1525 980 1525 1045 1525 c 0,48,49
 1094 1525 1094 1525 1121 1478.5 c 128,-1,50
 1148 1432 1148 1432 1148 1412.5 c 128,-1,51
 1148 1393 1148 1393 1137 1382 c 128,-1,52
 1126 1371 1126 1371 1080 1344 c 0,53,54
 786 1170 786 1170 761 1156 c 1,55,56
 921 1143 921 1143 1010.5 1116 c 128,-1,57
 1100 1089 1100 1089 1116 1080 c 128,-1,58
 1132 1071 1132 1071 1147 1061 c 128,-1,59
 1162 1051 1162 1051 1174 1038 c 0,60,61
 1202 1008 1202 1008 1202 979.5 c 128,-1,62
 1202 951 1202 951 1185 920 c 0,63,64
 1154 864 1154 864 1122 864 c 0,65,66
 1105 864 1105 864 1052 894 c 2,67,-1
 760 1058 l 2,68,69
 728 1076 728 1076 706 1090 c 1,0,1
EndSplineSet
EndChar

StartChar: plus
Encoding: 43 43 33
Width: 1193
GlyphClass: 2
Flags: W
LayerCount: 2
Fore
SplineSet
174 667 m 1,0,-1
 510 667 l 1,1,-1
 510 1030 l 1,2,-1
 682 1030 l 1,3,-1
 682 667 l 1,4,-1
 1039 667 l 1,5,-1
 1019 508 l 1,6,-1
 682 508 l 1,7,-1
 682 170 l 1,8,-1
 510 170 l 1,9,-1
 510 508 l 1,10,-1
 154 508 l 1,11,-1
 174 667 l 1,0,-1
EndSplineSet
EndChar

StartChar: comma
Encoding: 44 44 34
Width: 512
GlyphClass: 2
Flags: W
LayerCount: 2
Fore
SplineSet
114 70 m 0,0,1
 106 95 106 95 106 123.5 c 128,-1,2
 106 152 106 152 118.5 181 c 128,-1,3
 131 210 131 210 152 232 c 0,4,5
 201 283 201 283 265 283 c 0,6,7
 371 283 371 283 408 169 c 0,8,9
 420 134 420 134 420 88.5 c 128,-1,10
 420 43 420 43 403.5 -8 c 128,-1,11
 387 -59 387 -59 361 -107 c 128,-1,12
 335 -155 335 -155 303.5 -197.5 c 128,-1,13
 272 -240 272 -240 242 -272 c 0,14,15
 178 -340 178 -340 156 -340 c 0,16,17
 108 -340 108 -340 65 -293 c 1,18,19
 166 -192 166 -192 210 -99 c 0,20,21
 229 -59 229 -59 229 -23 c 1,22,23
 141 -14 141 -14 114 70 c 0,0,1
EndSplineSet
EndChar

StartChar: hyphen
Encoding: 45 45 35
Width: 1031
GlyphClass: 2
Flags: W
LayerCount: 2
Fore
SplineSet
182 667 m 1,0,-1
 869 667 l 1,1,-1
 849 508 l 1,2,-1
 162 508 l 1,3,-1
 182 667 l 1,0,-1
EndSplineSet
EndChar

StartChar: period
Encoding: 46 46 36
Width: 512
GlyphClass: 2
Flags: W
LayerCount: 2
Fore
SplineSet
102 128 m 0,0,1
 102 160 102 160 114 188.5 c 128,-1,2
 126 217 126 217 147 238 c 0,3,4
 192 283 192 283 255 283 c 256,5,6
 318 283 318 283 363 238 c 0,7,8
 409 192 409 192 409 127 c 0,9,10
 409 63 409 63 363 17 c 128,-1,11
 317 -29 317 -29 255 -29 c 256,12,13
 193 -29 193 -29 147 17 c 0,14,15
 102 62 102 62 102 128 c 0,0,1
EndSplineSet
EndChar

StartChar: slash
Encoding: 47 47 37
Width: 1023
GlyphClass: 2
Flags: W
LayerCount: 2
Fore
SplineSet
807 1670 m 1,0,-1
 952 1670 l 1,1,-1
 214 0 l 1,2,-1
 70 0 l 1,3,-1
 807 1670 l 1,0,-1
EndSplineSet
EndChar

StartChar: zero
Encoding: 48 48 38
Width: 1368
GlyphClass: 2
Flags: W
LayerCount: 2
Fore
SplineSet
153 392.5 m 128,-1,1
 115 514 115 514 115 629 c 128,-1,2
 115 744 115 744 133 832.5 c 128,-1,3
 151 921 151 921 186 1000 c 128,-1,4
 221 1079 221 1079 271 1145 c 128,-1,5
 321 1211 321 1211 386 1259 c 0,6,7
 523 1361 523 1361 673.5 1361 c 128,-1,8
 824 1361 824 1361 928 1308 c 128,-1,9
 1032 1255 1032 1255 1104 1164 c 0,10,11
 1252 977 1252 977 1252 691 c 0,12,13
 1252 407 1252 407 1092 200 c 0,14,15
 988 65 988 65 837 12 c 0,16,17
 761 -14 761 -14 652.5 -14 c 128,-1,18
 544 -14 544 -14 439.5 38 c 128,-1,19
 335 90 335 90 263 180.5 c 128,-1,0
 191 271 191 271 153 392.5 c 128,-1,1
540 134 m 0,20,21
 601 92 601 92 683.5 92 c 128,-1,22
 766 92 766 92 827 134.5 c 128,-1,23
 888 177 888 177 928 254 c 0,24,25
 1008 407 1008 407 1008 681 c 0,26,27
 1008 1096 1008 1096 827 1215 c 0,28,29
 766 1255 766 1255 683.5 1255 c 128,-1,30
 601 1255 601 1255 540 1215 c 128,-1,31
 479 1175 479 1175 438 1100 c 0,32,33
 359 953 359 953 359 681 c 0,34,35
 359 261 359 261 540 134 c 0,20,21
EndSplineSet
EndChar

StartChar: one
Encoding: 49 49 39
Width: 855
GlyphClass: 2
Flags: W
LayerCount: 2
Fore
SplineSet
560 994 m 1,0,-1
 559 746 l 1,1,-1
 559 233 l 2,2,3
 559 157 559 157 572 137 c 0,4,5
 595 102 595 102 663 102 c 0,6,7
 667 102 667 102 684 104 c 2,8,-1
 724 107 l 1,9,10
 776 112 776 112 803 118 c 1,11,-1
 790 0 l 1,12,-1
 96 0 l 1,13,-1
 110 102 l 1,14,-1
 184 102 l 2,15,16
 243 102 243 102 278 110 c 128,-1,17
 313 118 313 118 332 146 c 0,18,19
 361 191 361 191 361 344 c 2,20,-1
 361 614 l 1,21,-1
 360 966 l 1,22,-1
 360 1026 l 2,23,24
 360 1156 360 1156 278 1156 c 0,25,26
 228 1156 228 1156 188 1138 c 2,27,-1
 137 1116 l 1,28,-1
 102 1241 l 1,29,-1
 586 1380 l 1,30,31
 560 1296 560 1296 560 1105 c 2,32,-1
 560 994 l 1,0,-1
EndSplineSet
EndChar

StartChar: two
Encoding: 50 50 40
Width: 1364
GlyphClass: 2
Flags: W
LayerCount: 2
Fore
SplineSet
198 951 m 1,0,1
 179 1132 179 1132 179 1255 c 2,2,-1
 179 1317 l 1,3,4
 271 1313 271 1313 370.5 1336 c 128,-1,5
 470 1359 470 1359 528.5 1370 c 128,-1,6
 587 1381 587 1381 674.5 1381 c 128,-1,7
 762 1381 762 1381 848.5 1354.5 c 128,-1,8
 935 1328 935 1328 996 1278 c 1,9,10
 1122 1172 1122 1172 1122 988 c 0,11,12
 1122 750 1122 750 805 449 c 0,13,14
 744 391 744 391 682 341 c 2,15,-1
 569 252 l 1,16,17
 517 213 517 213 479 187 c 2,18,-1
 425 150 l 1,19,-1
 868 150 l 2,20,21
 988 150 988 150 1039 266 c 0,22,23
 1054 301 1054 301 1061 340 c 1,24,-1
 1185 340 l 1,25,26
 1185 251 1185 251 1168 142 c 128,-1,27
 1151 33 1151 33 1143 0 c 1,28,-1
 194 0 l 1,29,30
 171 7 171 7 158 54 c 0,31,32
 154 66 154 66 154 77 c 1,33,-1
 245 145 l 1,34,35
 482 332 482 332 572 423.5 c 128,-1,36
 662 515 662 515 715 580.5 c 128,-1,37
 768 646 768 646 808 713 c 0,38,39
 895 859 895 859 895 983 c 0,40,41
 895 1113 895 1113 818 1196 c 0,42,43
 744 1275 744 1275 635 1275 c 0,44,45
 324 1275 324 1275 328 951 c 1,46,-1
 198 951 l 1,0,1
EndSplineSet
EndChar

StartChar: three
Encoding: 51 51 41
Width: 1365
GlyphClass: 2
Flags: W
LayerCount: 2
Fore
SplineSet
249 947 m 1,0,1
 239 1097 239 1097 239 1168 c 0,2,3
 239 1268 239 1268 243 1312 c 1,4,5
 287 1307 287 1307 387 1332 c 0,6,7
 586 1380 586 1380 667.5 1380 c 128,-1,8
 749 1380 749 1380 828 1364.5 c 128,-1,9
 907 1349 907 1349 970 1313 c 0,10,11
 1114 1232 1114 1232 1114 1066 c 0,12,13
 1114 921 1114 921 948 794 c 1,14,15
 900 756 900 756 846 727 c 1,16,17
 984 707 984 707 1080 615 c 0,18,19
 1187 511 1187 511 1187 348 c 0,20,21
 1187 161 1187 161 1054 7 c 0,22,23
 901 -170 901 -170 641 -170 c 0,24,25
 531 -170 531 -170 439.5 -146 c 128,-1,26
 348 -122 348 -122 301.5 -111 c 128,-1,27
 255 -100 255 -100 203 -100 c 1,28,29
 192 -1 192 -1 192 75 c 128,-1,30
 192 151 192 151 205 253 c 1,31,-1
 338 253 l 1,32,33
 338 90 338 90 425 6 c 0,34,35
 504 -70 504 -70 648 -70 c 0,36,37
 785 -70 785 -70 873 36 c 0,38,39
 962 143 962 143 962 311 c 0,40,41
 962 445 962 445 884 533 c 1,42,43
 800 626 800 626 667 626 c 0,44,45
 589 626 589 626 535 600 c 1,46,47
 511 672 511 672 511 689.5 c 128,-1,48
 511 707 511 707 512 712 c 128,-1,49
 513 717 513 717 550 716 c 128,-1,50
 587 715 587 715 655.5 737 c 128,-1,51
 724 759 724 759 778 800 c 0,52,53
 896 889 896 889 896 1020 c 0,54,55
 896 1198 896 1198 746 1255 c 0,56,57
 697 1274 697 1274 631 1274 c 0,58,59
 506 1274 506 1274 444 1196.5 c 128,-1,60
 382 1119 382 1119 382 951 c 1,61,-1
 249 947 l 1,0,1
EndSplineSet
EndChar

StartChar: four
Encoding: 52 52 42
Width: 1365
GlyphClass: 2
Flags: W
LayerCount: 2
Fore
SplineSet
1017 175 m 1,0,-1
 1017 -3 l 2,1,2
 1017 -53 1017 -53 1020 -164 c 1,3,-1
 950 -193 l 2,4,5
 880 -222 880 -222 832 -236 c 1,6,-1
 802 -200 l 1,7,8
 822 -20 822 -20 822 170 c 1,9,-1
 101 170 l 1,10,-1
 61 260 l 1,11,-1
 438 754 l 1,12,-1
 592 959 l 1,13,14
 798 1244 798 1244 875 1360 c 1,15,-1
 907 1364 l 1,16,17
 986 1375 986 1375 1017 1388 c 1,18,-1
 1017 319 l 1,19,-1
 1298 319 l 1,20,-1
 1265 174 l 1,21,-1
 1017 175 l 1,0,-1
822 319 m 1,22,-1
 822 1085 l 1,23,-1
 692 887 l 1,24,-1
 302 319 l 1,25,-1
 822 319 l 1,22,-1
EndSplineSet
EndChar

StartChar: five
Encoding: 53 53 43
Width: 1365
GlyphClass: 2
Flags: W
LayerCount: 2
Fore
SplineSet
405 714 m 1,0,1
 603 786 603 786 722.5 786 c 128,-1,2
 842 786 842 786 927.5 761 c 128,-1,3
 1013 736 1013 736 1076 684 c 1,4,5
 1209 571 1209 571 1209 350 c 0,6,7
 1209 109 1209 109 1028 -37 c 0,8,9
 864 -170 864 -170 628 -170 c 0,10,11
 364 -170 364 -170 223 -72 c 1,12,-1
 242 36 l 1,13,14
 313 -17 313 -17 487 -41 c 0,15,16
 544 -49 544 -49 624.5 -49 c 128,-1,17
 705 -49 705 -49 777 -18.5 c 128,-1,18
 849 12 849 12 894 64 c 0,19,20
 983 165 983 165 983 328 c 0,21,22
 983 475 983 475 878 559 c 0,23,24
 780 638 780 638 630 638 c 128,-1,25
 480 638 480 638 355 595 c 1,26,-1
 266 626 l 1,27,-1
 324 1360 l 1,28,-1
 871 1360 l 2,29,30
 943 1360 943 1360 973 1377 c 0,31,32
 1029 1409 1029 1409 1060 1490 c 1,33,-1
 1163 1490 l 1,34,35
 1163 1370 1163 1370 1141 1291.5 c 128,-1,36
 1119 1213 1119 1213 1105 1190 c 1,37,-1
 486 1190 l 1,38,-1
 405 714 l 1,0,1
EndSplineSet
EndChar

StartChar: six
Encoding: 54 54 44
Width: 1365
GlyphClass: 2
Flags: W
LayerCount: 2
Fore
SplineSet
142.5 449.5 m 128,-1,1
 127 523 127 523 126.5 633.5 c 128,-1,2
 126 744 126 744 155 866.5 c 128,-1,3
 184 989 184 989 234.5 1088 c 128,-1,4
 285 1187 285 1187 352.5 1264.5 c 128,-1,5
 420 1342 420 1342 496 1400 c 128,-1,6
 572 1458 572 1458 652.5 1498.5 c 128,-1,7
 733 1539 733 1539 810 1564 c 1,8,9
 954 1613 954 1613 1073 1615 c 1,10,-1
 1073 1614 l 1,11,-1
 1097 1530 l 1,12,13
 848 1500 848 1500 649 1324 c 0,14,15
 447 1146 447 1146 380 888 c 1,16,17
 502 987 502 987 666 1020 c 0,18,19
 721 1031 721 1031 804 1031 c 128,-1,20
 887 1031 887 1031 972.5 996.5 c 128,-1,21
 1058 962 1058 962 1117 899 c 0,22,23
 1237 771 1237 771 1237 555 c 0,24,25
 1237 328 1237 328 1080 158 c 0,26,27
 980 50 980 50 834 6 c 0,28,29
 762 -15 762 -15 675 -15 c 128,-1,30
 588 -15 588 -15 510 10 c 128,-1,31
 432 35 432 35 370.5 79 c 128,-1,32
 309 123 309 123 263.5 182 c 128,-1,33
 218 241 218 241 188 308.5 c 128,-1,0
 158 376 158 376 142.5 449.5 c 128,-1,1
551.5 141 m 128,-1,35
 614 108 614 108 704.5 108 c 128,-1,36
 795 108 795 108 860.5 139 c 128,-1,37
 926 170 926 170 962 226 c 0,38,39
 1023 320 1023 320 1023 523 c 0,40,41
 1023 779 1023 779 832 858 c 0,42,43
 768 885 768 885 709.5 885 c 128,-1,44
 651 885 651 885 609 876.5 c 128,-1,45
 567 868 567 868 522 852 c 0,46,47
 420 814 420 814 355 755 c 1,48,49
 350 717 350 717 350 617.5 c 128,-1,50
 350 518 350 518 375 414 c 128,-1,51
 400 310 400 310 444.5 242 c 128,-1,34
 489 174 489 174 551.5 141 c 128,-1,35
EndSplineSet
EndChar

StartChar: seven
Encoding: 55 55 45
Width: 1365
GlyphClass: 2
Flags: W
LayerCount: 2
Fore
SplineSet
788 1185 m 2,0,-1
 508 1183 l 1,1,-1
 450 1183 l 2,2,3
 353 1183 353 1183 306 1130 c 1,4,5
 268 1089 268 1089 233 976 c 1,6,-1
 138 976 l 1,7,8
 154 1145 154 1145 167 1226 c 2,9,-1
 187 1360 l 1,10,-1
 1164 1360 l 1,11,-1
 1217 1299 l 1,12,-1
 659 -339 l 1,13,-1
 463 -339 l 1,14,-1
 417 -277 l 1,15,-1
 1041 1188 l 1,16,17
 906 1186 906 1186 788 1185 c 2,0,-1
EndSplineSet
EndChar

StartChar: eight
Encoding: 56 56 46
Width: 1365
GlyphClass: 2
Flags: W
LayerCount: 2
Fore
SplineSet
159 366 m 0,0,1
 159 439 159 439 192 505.5 c 128,-1,2
 225 572 225 572 276 624 c 0,3,4
 375 725 375 725 508 764 c 1,5,6
 367 844 367 844 298 927 c 0,7,8
 210 1034 210 1034 210 1172 c 0,9,10
 210 1350 210 1350 358 1452 c 0,11,12
 493 1545 493 1545 698 1545 c 0,13,14
 889 1545 889 1545 1017 1446 c 1,15,16
 1148 1343 1148 1343 1148 1184 c 0,17,18
 1148 1056 1148 1056 1053 950 c 0,19,20
 969 857 969 857 853 824 c 1,21,22
 1024 732 1024 732 1086.5 669 c 128,-1,23
 1149 606 1149 606 1178.5 545.5 c 128,-1,24
 1208 485 1208 485 1208 397 c 128,-1,25
 1208 309 1208 309 1170.5 230 c 128,-1,26
 1133 151 1133 151 1064 96 c 1,27,28
 920 -16 920 -16 669 -16 c 0,29,30
 492 -16 492 -16 342 72 c 0,31,32
 159 178 159 178 159 366 c 0,0,1
766 869 m 1,33,34
 893 934 893 934 934 1076 c 0,35,36
 946 1118 946 1118 946 1172 c 128,-1,37
 946 1226 946 1226 928.5 1279.5 c 128,-1,38
 911 1333 911 1333 878 1370 c 0,39,40
 810 1445 810 1445 693 1445 c 0,41,42
 491 1445 491 1445 420 1323 c 0,43,44
 395 1279 395 1279 395 1217 c 128,-1,45
 395 1155 395 1155 426 1107.5 c 128,-1,46
 457 1060 457 1060 509 1019 c 128,-1,47
 561 978 561 978 628 942 c 2,48,-1
 766 869 l 1,33,34
393 490 m 0,49,50
 378 442 378 442 378 386 c 128,-1,51
 378 330 378 330 402.5 276.5 c 128,-1,52
 427 223 427 223 469 184 c 0,53,54
 558 101 558 101 688 101 c 0,55,56
 916 101 916 101 990 229 c 0,57,58
 1018 276 1018 276 1018 344 c 128,-1,59
 1018 412 1018 412 983 463 c 128,-1,60
 948 514 948 514 890.5 556 c 128,-1,61
 833 598 833 598 760 634 c 1,62,-1
 611 710 l 1,63,64
 444 654 444 654 393 490 c 0,49,50
EndSplineSet
EndChar

StartChar: nine
Encoding: 57 57 47
Width: 1365
GlyphClass: 2
Flags: W
LayerCount: 2
Fore
SplineSet
262 -165 m 1,0,1
 514 -135 514 -135 712 40 c 1,2,3
 915 218 915 218 980 476 c 1,4,5
 862 377 862 377 702 345 c 0,6,7
 647 334 647 334 564.5 334 c 128,-1,8
 482 334 482 334 395 373.5 c 128,-1,9
 308 413 308 413 247 482 c 0,10,11
 122 622 122 622 122 840 c 0,12,13
 122 1065 122 1065 286 1222 c 0,14,15
 452 1380 452 1380 697 1380 c 0,16,17
 1042 1380 1042 1380 1176 1056 c 0,18,19
 1230 927 1230 927 1231.5 774 c 128,-1,20
 1233 621 1233 621 1204 498.5 c 128,-1,21
 1175 376 1175 376 1124.5 277 c 128,-1,22
 1074 178 1074 178 1006.5 100.5 c 128,-1,23
 939 23 939 23 863 -35 c 128,-1,24
 787 -93 787 -93 706.5 -133.5 c 128,-1,25
 626 -174 626 -174 550 -200 c 0,26,27
 405 -248 405 -248 286 -250 c 1,28,-1
 286 -249 l 1,29,-1
 262 -165 l 1,0,1
691 1257 m 0,30,31
 336 1257 336 1257 336 872 c 0,32,33
 336 704 336 704 425 596 c 0,34,35
 520 480 520 480 687 480 c 0,36,37
 801 480 801 480 927 546 c 0,38,39
 969 568 969 568 1003 598 c 1,40,41
 1008 658 1008 658 1008 747.5 c 128,-1,42
 1008 837 1008 837 985 942.5 c 128,-1,43
 962 1048 962 1048 920 1118 c 0,44,45
 838 1257 838 1257 691 1257 c 0,30,31
EndSplineSet
EndChar

StartChar: less
Encoding: 60 60 50
Width: 1364
GlyphClass: 2
Flags: W
LayerCount: 2
Fore
SplineSet
179 644 m 1,0,-1
 1127 1067 l 1,1,-1
 1127 895 l 1,2,-1
 470 597 l 1,3,-1
 1127 304 l 1,4,-1
 1127 132 l 1,5,-1
 179 561 l 1,6,-1
 179 644 l 1,0,-1
EndSplineSet
EndChar

StartChar: equal
Encoding: 61 61 51
Width: 1364
GlyphClass: 2
Flags: W
LayerCount: 2
Fore
SplineSet
215 840 m 1,0,-1
 1172 840 l 1,1,-1
 1152 681 l 1,2,-1
 195 681 l 1,3,-1
 215 840 l 1,0,-1
211 499 m 1,4,-1
 1168 499 l 1,5,-1
 1148 340 l 1,6,-1
 191 340 l 1,7,-1
 211 499 l 1,4,-1
EndSplineSet
EndChar

StartChar: question
Encoding: 63 63 53
Width: 1537
GlyphClass: 2
Flags: W
LayerCount: 2
Fore
SplineSet
900 469 m 1,0,1
 868 460 868 460 793 460 c 128,-1,2
 718 460 718 460 680.5 473 c 128,-1,3
 643 486 643 486 615 510 c 0,4,5
 555 563 555 563 555 644 c 128,-1,6
 555 725 555 725 589.5 781.5 c 128,-1,7
 624 838 624 838 675.5 887 c 128,-1,8
 727 936 727 936 787.5 980.5 c 128,-1,9
 848 1025 848 1025 900 1074 c 0,10,11
 1020 1189 1020 1189 1020 1310 c 0,12,13
 1020 1450 1020 1450 936 1537 c 0,14,15
 858 1619 858 1619 742 1619 c 0,16,17
 512 1619 512 1619 450 1420 c 0,18,19
 431 1357 431 1357 431 1283 c 1,20,21
 356 1283 356 1283 284 1296 c 1,22,23
 269 1365 269 1365 269 1433 c 0,24,25
 269 1524 269 1524 274 1589 c 1,26,27
 334 1605 334 1605 385.5 1628.5 c 128,-1,28
 437 1652 437 1652 493 1674 c 0,29,30
 625 1726 625 1726 773 1726 c 0,31,32
 953 1726 953 1726 1086 1654 c 1,33,34
 1267 1558 1267 1558 1267 1340 c 0,35,36
 1267 1146 1267 1146 1002 966 c 0,37,38
 834 852 834 852 786 795.5 c 128,-1,39
 738 739 738 739 738 695 c 128,-1,40
 738 651 738 651 749 631.5 c 128,-1,41
 760 612 760 612 777 602 c 0,42,43
 802 587 802 587 844 587 c 128,-1,44
 886 587 886 587 899 592 c 1,45,-1
 900 469 l 1,0,1
607 128 m 0,46,47
 607 160 607 160 619 188.5 c 128,-1,48
 631 217 631 217 652 238 c 0,49,50
 697 283 697 283 760 283 c 256,51,52
 823 283 823 283 868 238 c 0,53,54
 914 192 914 192 914 127 c 0,55,56
 914 63 914 63 868 17 c 128,-1,57
 822 -29 822 -29 760 -29 c 256,58,59
 698 -29 698 -29 652 17 c 0,60,61
 607 62 607 62 607 128 c 0,46,47
EndSplineSet
EndChar

StartChar: at
Encoding: 64 64 54
Width: 2048
GlyphClass: 2
Flags: W
LayerCount: 2
Fore
SplineSet
1635 116 m 1,0,1
 1688 91 1688 91 1688 52 c 0,2,3
 1688 36 1688 36 1674 26 c 0,4,5
 1422 -171 1422 -171 1033 -171 c 0,6,7
 642 -171 642 -171 409 0 c 0,8,9
 138 199 138 199 146 624 c 0,10,11
 150 883 150 883 276 1100 c 0,12,13
 468 1431 468 1431 858 1532 c 0,14,15
 988 1565 988 1565 1157.5 1565 c 128,-1,16
 1327 1565 1327 1565 1472 1520 c 128,-1,17
 1617 1475 1617 1475 1714 1397 c 0,18,19
 1911 1240 1911 1240 1911 990 c 0,20,21
 1911 692 1911 692 1767 470 c 0,22,23
 1667 316 1667 316 1510 256 c 0,24,25
 1429 225 1429 225 1332 226 c 0,26,27
 1237 226 1237 226 1177 301 c 0,28,29
 1157 326 1157 326 1147 360 c 1,30,31
 992 245 992 245 831 245 c 0,32,33
 733 245 733 245 652 328 c 0,34,35
 555 427 555 427 566 582 c 1,36,37
 580 845 580 845 758 1024 c 0,38,39
 861 1128 861 1128 992 1168 c 0,40,41
 1055 1187 1055 1187 1103 1187 c 128,-1,42
 1151 1187 1151 1187 1184.5 1179 c 128,-1,43
 1218 1171 1218 1171 1246 1160 c 0,44,45
 1298 1139 1298 1139 1319 1121 c 1,46,47
 1319 1121 1319 1121 1366 1126 c 0,48,49
 1495 1142 1495 1142 1500 1149 c 0,50,51
 1501 1151 1501 1151 1494 1121 c 2,52,53
 1494 1121 1494 1121 1358 583 c 1,54,55
 1336 483 1336 483 1336 447.5 c 128,-1,56
 1336 412 1336 412 1340 398.5 c 128,-1,57
 1344 385 1344 385 1352 378 c 0,58,59
 1368 364 1368 364 1415 364 c 128,-1,60
 1462 364 1462 364 1511 390.5 c 128,-1,61
 1560 417 1560 417 1596.5 462.5 c 128,-1,62
 1633 508 1633 508 1659 567.5 c 128,-1,63
 1685 627 1685 627 1702 694 c 0,64,65
 1733 820 1733 820 1733 946 c 128,-1,66
 1733 1072 1733 1072 1695 1160.5 c 128,-1,67
 1657 1249 1657 1249 1581 1312 c 0,68,69
 1422 1442 1422 1442 1126 1442 c 0,70,71
 765 1442 765 1442 544 1210 c 0,72,73
 332 986 332 986 324 625 c 1,74,75
 318 302 318 302 522 125 c 0,76,77
 714 -42 714 -42 1033 -42 c 0,78,79
 1348 -42 1348 -42 1546 56 c 0,80,81
 1596 81 1596 81 1635 116 c 1,0,1
1281 1043 m 1,82,83
 1222 1068 1222 1068 1135 1068 c 0,84,85
 1114 1068 1114 1068 1082.5 1065.5 c 128,-1,86
 1051 1063 1051 1063 997.5 1035 c 128,-1,87
 944 1007 944 1007 894 950 c 0,88,89
 776 815 776 815 767 600 c 0,90,91
 763 512 763 512 812 456 c 1,92,93
 860 403 860 403 932 403 c 0,94,95
 1057 403 1057 403 1144 474 c 1,96,97
 1150 527 1150 527 1161 581 c 1,98,-1
 1281 1043 l 1,82,83
EndSplineSet
EndChar

StartChar: A
Encoding: 65 65 55
Width: 1533
GlyphClass: 2
Flags: W
LayerCount: 2
Fore
SplineSet
15 105 m 1,0,1
 91 105 91 105 116 125 c 0,2,3
 156 156 156 156 186 230 c 1,4,-1
 688 1530 l 1,5,6
 736 1530 736 1530 787.5 1544.5 c 128,-1,7
 839 1559 839 1559 850 1567 c 1,8,-1
 1310 333 l 1,9,10
 1367 177 1367 177 1430 123 c 0,11,12
 1449 106 1449 106 1466 106 c 2,13,-1
 1506 106 l 2,14,15
 1528 106 1528 106 1545 117 c 1,16,-1
 1525 0 l 1,17,-1
 942 0 l 1,18,-1
 957 106 l 1,19,20
 1129 103 1129 103 1142 172 c 0,21,22
 1146 192 1146 192 1141 218 c 1,23,-1
 1013 558 l 1,24,-1
 464 558 l 1,25,-1
 335 190 l 2,26,27
 317 141 317 141 360 114 c 0,28,29
 374 106 374 106 405.5 106 c 128,-1,30
 437 106 437 106 458 107 c 0,31,32
 512 110 512 110 530 117 c 1,33,-1
 515 0 l 1,34,-1
 2 0 l 1,35,-1
 15 105 l 1,0,1
968 678 m 1,36,-1
 729 1312 l 1,37,-1
 506 678 l 1,38,-1
 968 678 l 1,36,-1
EndSplineSet
EndChar

StartChar: B
Encoding: 66 66 56
Width: 1536
GlyphClass: 2
Flags: W
LayerCount: 2
Fore
SplineSet
786 -16 m 1,0,-1
 409 -1 l 1,1,-1
 109 -1 l 1,2,-1
 117 106 l 1,3,4
 210 106 210 106 242 131 c 0,5,6
 301 177 301 177 301 281 c 2,7,-1
 301 1223 l 2,8,9
 301 1385 301 1385 234 1410 c 0,10,11
 214 1418 214 1418 174.5 1418 c 128,-1,12
 135 1418 135 1418 111 1410 c 1,13,-1
 120 1530 l 1,14,-1
 409 1530 l 1,15,16
 455 1531 455 1531 498 1534 c 1,17,18
 498 1534 498 1534 588 1538 c 1,19,20
 709 1545 709 1545 817 1545 c 128,-1,21
 925 1545 925 1545 1021.5 1520 c 128,-1,22
 1118 1495 1118 1495 1182 1448 c 0,23,24
 1312 1354 1312 1354 1312 1185 c 0,25,26
 1312 1050 1312 1050 1234 950 c 1,27,28
 1166 865 1166 865 1060 825 c 1,29,30
 1246 810 1246 810 1346 702 c 0,31,32
 1436 606 1436 606 1436 462 c 0,33,34
 1436 253 1436 253 1268 122 c 0,35,36
 1091 -16 1091 -16 786 -16 c 1,0,-1
1087 1165 m 0,37,38
 1087 1433 1087 1433 731 1433 c 0,39,40
 612 1433 612 1433 568 1424 c 2,41,-1
 504 1411 l 1,42,-1
 504 853 l 1,43,-1
 803 853 l 2,44,45
 1025 853 1025 853 1072 1028 c 0,46,47
 1087 1087 1087 1087 1087 1165 c 0,37,38
506 235 m 2,48,49
 506 149 506 149 570 122 c 0,50,51
 631 96 631 96 781.5 96 c 128,-1,52
 932 96 932 96 1008 122 c 128,-1,53
 1084 148 1084 148 1128 194 c 0,54,55
 1206 276 1206 276 1206 445 c 0,56,57
 1206 615 1206 615 1114 678 c 0,58,59
 1020 742 1020 742 764 742 c 2,60,-1
 504 741 l 1,61,-1
 506 235 l 2,48,49
EndSplineSet
EndChar

StartChar: C
Encoding: 67 67 57
Width: 1709
GlyphClass: 2
Flags: W
LayerCount: 2
Fore
SplineSet
1536 406 m 1,0,1
 1538 386 1538 386 1538 356.5 c 128,-1,2
 1538 327 1538 327 1534.5 287 c 128,-1,3
 1531 247 1531 247 1526 210 c 0,4,5
 1513 126 1513 126 1500 90 c 1,6,7
 1296 -15 1296 -15 949 -15 c 0,8,9
 631 -15 631 -15 407 154 c 0,10,11
 243 277 243 277 177 499 c 0,12,13
 143 613 143 613 143 776.5 c 128,-1,14
 143 940 143 940 205.5 1085.5 c 128,-1,15
 268 1231 268 1231 380 1333 c 0,16,17
 614 1545 614 1545 987 1545 c 0,18,19
 1070 1545 1070 1545 1193 1530 c 0,20,21
 1424 1502 1424 1502 1468 1502 c 2,22,-1
 1520 1502 l 2,23,24
 1528 1502 1528 1502 1536 1503 c 1,25,26
 1538 1479 1538 1479 1538 1392 c 128,-1,27
 1538 1305 1538 1305 1506 1095 c 1,28,-1
 1392 1095 l 1,29,30
 1374 1239 1374 1239 1342 1303 c 1,31,32
 1262 1438 1262 1438 972 1438 c 0,33,34
 689 1438 689 1438 529 1254 c 0,35,36
 377 1078 377 1078 377 787 c 0,37,38
 377 454 377 454 568 262 c 1,39,40
 741 90 741 90 993 90 c 0,41,42
 1177 90 1177 90 1271 158 c 0,43,44
 1368 228 1368 228 1425 406 c 1,45,-1
 1536 406 l 1,0,1
EndSplineSet
EndChar

StartChar: D
Encoding: 68 68 58
Width: 1539
GlyphClass: 2
Flags: W
LayerCount: 2
Fore
SplineSet
708 -15 m 1,0,-1
 373 -1 l 1,1,-1
 98 0 l 1,2,-1
 105 106 l 1,3,4
 196 106 196 106 226 132 c 0,5,6
 279 179 279 179 279 285 c 2,7,-1
 279 1230 l 2,8,9
 279 1336 279 1336 257 1368.5 c 128,-1,10
 235 1401 235 1401 213 1410 c 128,-1,11
 191 1419 191 1419 159.5 1419 c 128,-1,12
 128 1419 128 1419 97 1410 c 1,13,-1
 107 1530 l 1,14,-1
 353 1530 l 2,15,16
 402 1530 402 1530 444 1532.5 c 128,-1,17
 486 1535 486 1535 528 1538 c 1,18,19
 528 1538 528 1538 616 1542 c 0,20,21
 662 1545 662 1545 719 1545 c 0,22,23
 1101 1545 1101 1545 1295.5 1360.5 c 128,-1,24
 1490 1176 1490 1176 1490 809 c 0,25,26
 1490 438 1490 438 1276 211 c 0,27,28
 1063 -15 1063 -15 708 -15 c 1,0,-1
904 1402 m 0,29,30
 792 1433 792 1433 681 1433 c 128,-1,31
 570 1433 570 1433 482 1412 c 1,32,-1
 482 207 l 2,33,34
 482 155 482 155 490 143 c 128,-1,35
 498 131 498 131 513 125 c 128,-1,36
 528 119 528 119 558 116 c 0,37,38
 607 111 607 111 732.5 111 c 128,-1,39
 858 111 858 111 953.5 148 c 128,-1,40
 1049 185 1049 185 1118 264 c 0,41,42
 1264 431 1264 431 1264 763 c 0,43,44
 1264 1302 1264 1302 904 1402 c 0,29,30
EndSplineSet
EndChar

StartChar: E
Encoding: 69 69 59
Width: 1368
GlyphClass: 2
Flags: W
LayerCount: 2
Fore
SplineSet
889 1530 m 2,0,1
 1139 1530 1139 1530 1244 1545 c 1,2,3
 1244 1321 1244 1321 1199 1171 c 1,4,-1
 1111 1171 l 1,5,6
 1101 1333 1101 1333 1047 1377 c 0,7,8
 1017 1401 1017 1401 969 1407 c 128,-1,9
 921 1413 921 1413 849 1413 c 2,10,-1
 473 1413 l 1,11,-1
 473 872 l 1,12,-1
 688 872 l 2,13,14
 792 872 792 872 826 915 c 0,15,16
 842 936 842 936 847.5 968 c 128,-1,17
 853 1000 853 1000 858 1042 c 1,18,-1
 967 1043 l 1,19,-1
 967 995 l 2,20,21
 967 853 967 853 959 734 c 2,22,-1
 948 569 l 1,23,-1
 838 569 l 1,24,25
 831 682 831 682 811 711.5 c 128,-1,26
 791 741 791 741 761.5 752 c 128,-1,27
 732 763 732 763 682 763 c 2,28,-1
 473 763 l 1,29,-1
 473 278 l 2,30,31
 473 177 473 177 511 146 c 128,-1,32
 549 115 549 115 673 111 c 1,33,-1
 864 111 l 2,34,35
 1070 111 1070 111 1148 284 c 0,36,37
 1172 339 1172 339 1180 407 c 1,38,-1
 1290 407 l 1,39,40
 1290 296 1290 296 1268 170 c 2,41,-1
 1237 0 l 1,42,-1
 93 0 l 1,43,-1
 110 106 l 1,44,45
 210 106 210 106 242 150 c 0,46,47
 270 189 270 189 270 306 c 2,48,-1
 270 1222 l 2,49,50
 270 1418 270 1418 176 1418 c 0,51,52
 135 1418 135 1418 106 1411 c 1,53,-1
 118 1530 l 1,54,-1
 889 1530 l 2,0,1
EndSplineSet
EndChar

StartChar: F
Encoding: 70 70 60
Width: 1368
GlyphClass: 2
Flags: W
LayerCount: 2
Fore
SplineSet
941 1530 m 2,0,1
 1196 1530 1196 1530 1293 1545 c 1,2,3
 1293 1312 1293 1312 1248 1162 c 1,4,-1
 1156 1162 l 1,5,6
 1145 1322 1145 1322 1080 1372 c 0,7,8
 1028 1413 1028 1413 872 1413 c 2,9,-1
 472 1413 l 1,10,-1
 472 850 l 1,11,-1
 703 850 l 2,12,13
 823 850 823 850 854 875 c 128,-1,14
 885 900 885 900 897 934.5 c 128,-1,15
 909 969 909 969 916 1025 c 1,16,-1
 1031 1025 l 1,17,-1
 1008 550 l 1,18,-1
 898 550 l 1,19,20
 894 697 894 697 820 724 c 0,21,22
 798 733 798 733 679 734.5 c 128,-1,23
 560 736 560 736 527 736.5 c 128,-1,24
 494 737 494 737 472 737 c 1,25,-1
 472 270 l 2,26,27
 472 177 472 177 495.5 151.5 c 128,-1,28
 519 126 519 126 549 118.5 c 128,-1,29
 579 111 579 111 609 111 c 2,30,-1
 658 111 l 2,31,32
 717 111 717 111 773 118 c 1,33,-1
 760 0 l 1,34,-1
 93 0 l 1,35,-1
 110 106 l 1,36,37
 210 106 210 106 242 150 c 1,38,39
 269 190 269 190 269 306 c 2,40,-1
 269 1222 l 2,41,42
 269 1418 269 1418 176 1418 c 0,43,44
 135 1418 135 1418 106 1411 c 1,45,-1
 118 1530 l 1,46,-1
 941 1530 l 2,0,1
EndSplineSet
EndChar

StartChar: G
Encoding: 71 71 61
Width: 1709
GlyphClass: 2
Flags: W
LayerCount: 2
Fore
SplineSet
1497 95 m 1,0,1
 1303 -16 1303 -16 939 -16 c 0,2,3
 532 -16 532 -16 320 192 c 0,4,5
 118 390 118 390 118 747 c 0,6,7
 118 1073 118 1073 320 1296 c 0,8,9
 546 1545 546 1545 953 1545 c 0,10,11
 1067 1545 1067 1545 1180 1531 c 0,12,13
 1390 1505 1390 1505 1448 1505 c 1,14,-1
 1477 1506 l 1,15,16
 1477 1319 1477 1319 1449 1107 c 1,17,-1
 1323 1104 l 1,18,19
 1311 1298 1311 1298 1234 1371 c 0,20,21
 1157 1443 1157 1443 977.5 1443 c 128,-1,22
 798 1443 798 1443 680 1389.5 c 128,-1,23
 562 1336 562 1336 488 1245 c 0,24,25
 347 1072 347 1072 347 782 c 0,26,27
 347 305 347 305 688 155 c 0,28,29
 812 101 812 101 964 101 c 0,30,31
 1214 101 1214 101 1280 192 c 1,32,-1
 1280 500 l 2,33,34
 1280 647 1280 647 1164 658 c 0,35,36
 1133 661 1133 661 1114 661 c 2,37,-1
 1082 661 l 2,38,39
 1070 661 1070 661 1057 660 c 2,40,-1
 1032 658 l 2,41,42
 1019 657 1019 657 1011 656 c 1,43,-1
 1022 785 l 1,44,-1
 1617 785 l 1,45,-1
 1603 663 l 1,46,47
 1556 662 1556 662 1529 653.5 c 128,-1,48
 1502 645 1502 645 1488 616 c 0,49,50
 1467 571 1467 571 1467 383 c 0,51,52
 1467 168 1467 168 1497 95 c 1,0,1
EndSplineSet
EndChar

StartChar: H
Encoding: 72 72 62
Width: 1706
GlyphClass: 2
Flags: W
LayerCount: 2
Fore
SplineSet
273 1222 m 2,0,1
 273 1418 273 1418 180 1418 c 0,2,3
 140 1418 140 1418 109 1411 c 1,4,-1
 121 1530 l 1,5,-1
 642 1530 l 1,6,-1
 627 1418 l 1,7,8
 581 1418 581 1418 551.5 1413 c 128,-1,9
 522 1408 522 1408 506 1388 c 0,10,11
 476 1351 476 1351 476 1209 c 2,12,-1
 476 850 l 1,13,-1
 1230 850 l 1,14,-1
 1230 1215 l 2,15,16
 1230 1345 1230 1345 1215.5 1374.5 c 128,-1,17
 1201 1404 1201 1404 1183.5 1411 c 128,-1,18
 1166 1418 1166 1418 1134 1418 c 0,19,20
 1087 1418 1087 1418 1042 1408 c 1,21,-1
 1060 1530 l 1,22,-1
 1603 1530 l 1,23,-1
 1589 1418 l 1,24,25
 1500 1418 1500 1418 1470 1380 c 1,26,27
 1433 1336 1433 1336 1433 1214 c 2,28,-1
 1433 257 l 2,29,30
 1433 172 1433 172 1450 146 c 0,31,32
 1477 106 1477 106 1524 106 c 0,33,34
 1560 106 1560 106 1601 118 c 1,35,-1
 1589 0 l 1,36,-1
 1051 0 l 1,37,-1
 1069 106 l 1,38,39
 1166 106 1166 106 1200 159 c 0,40,41
 1230 205 1230 205 1230 326 c 2,42,-1
 1230 728 l 1,43,-1
 476 728 l 1,44,-1
 476 268 l 2,45,46
 476 161 476 161 486.5 138 c 128,-1,47
 497 115 497 115 511 110.5 c 128,-1,48
 525 106 525 106 555 106 c 0,49,50
 602 106 602 106 662 120 c 1,51,-1
 647 0 l 1,52,-1
 96 0 l 1,53,-1
 113 106 l 1,54,55
 213 106 213 106 245 150 c 0,56,57
 273 189 273 189 273 306 c 2,58,-1
 273 1222 l 2,0,1
EndSplineSet
EndChar

StartChar: I
Encoding: 73 73 63
Width: 853
GlyphClass: 2
Flags: W
LayerCount: 2
Fore
SplineSet
132 106 m 1,0,1
 229 106 229 106 274 153 c 0,2,3
 325 206 325 206 325 340 c 2,4,-1
 324 1215 l 2,5,6
 324 1335 324 1335 304.5 1369.5 c 128,-1,7
 285 1404 285 1404 268 1411 c 128,-1,8
 251 1418 251 1418 228 1418 c 0,9,10
 163 1418 163 1418 129 1411 c 1,11,-1
 145 1530 l 1,12,-1
 717 1530 l 1,13,-1
 701 1418 l 1,14,15
 588 1418 588 1418 557 1380 c 0,16,17
 528 1346 528 1346 528 1222 c 2,18,-1
 528 270 l 2,19,20
 528 173 528 173 544 148 c 0,21,22
 571 106 571 106 648 106 c 0,23,24
 659 106 659 106 680 110 c 2,25,-1
 712 115 l 2,26,27
 724 117 724 117 733 119 c 1,28,-1
 721 0 l 1,29,-1
 121 0 l 1,30,-1
 132 106 l 1,0,1
EndSplineSet
EndChar

StartChar: J
Encoding: 74 74 64
Width: 855
GlyphClass: 2
Flags: W
LayerCount: 2
Fore
SplineSet
286.5 1409.5 m 128,-1,1
 269 1418 269 1418 212.5 1418 c 128,-1,2
 156 1418 156 1418 137 1414 c 128,-1,3
 118 1410 118 1410 118.5 1408.5 c 128,-1,4
 119 1407 119 1407 117 1407 c 1,5,-1
 135 1530 l 1,6,-1
 743 1530 l 1,7,-1
 728 1418 l 1,8,9
 618 1418 618 1418 588.5 1393 c 128,-1,10
 559 1368 559 1368 549 1333 c 128,-1,11
 539 1298 539 1298 539 1241 c 2,12,-1
 539 331 l 2,13,14
 539 117 539 117 473 -17 c 0,15,16
 390 -185 390 -185 149 -383 c 1,17,-1
 79 -314 l 1,18,19
 299 -77 299 -77 332 302 c 0,20,21
 336 355 336 355 336 395 c 2,22,-1
 336 1178 l 2,23,24
 336 1327 336 1327 320 1364 c 128,-1,0
 304 1401 304 1401 286.5 1409.5 c 128,-1,1
EndSplineSet
EndChar

StartChar: K
Encoding: 75 75 65
Width: 1536
GlyphClass: 2
Flags: W
LayerCount: 2
Fore
SplineSet
1394.5 115 m 128,-1,1
 1417 108 1417 108 1449.5 108 c 128,-1,2
 1482 108 1482 108 1506 115 c 1,3,-1
 1502 0 l 1,4,-1
 1273 0 l 2,5,6
 1165 0 1165 0 1078 112 c 0,7,8
 1048 151 1048 151 1020 198 c 0,9,10
 948 318 948 318 907 381 c 1,11,-1
 828 496 l 1,12,13
 697 677 697 677 611 739 c 1,14,-1
 506 739 l 1,15,-1
 506 299 l 2,16,17
 506 196 506 196 520 165 c 0,18,19
 547 106 547 106 615 106 c 0,20,21
 666 106 666 106 710 118 c 1,22,-1
 697 0 l 1,23,-1
 137 0 l 1,24,-1
 149 106 l 1,25,26
 247 106 247 106 274 146 c 1,27,28
 303 187 303 187 303 330 c 2,29,-1
 303 1223 l 2,30,31
 303 1330 303 1330 289.5 1363.5 c 128,-1,32
 276 1397 276 1397 258.5 1407.5 c 128,-1,33
 241 1418 241 1418 218 1418 c 0,34,35
 168 1418 168 1418 125 1413 c 1,36,-1
 143 1530 l 1,37,-1
 672 1530 l 1,38,-1
 657 1418 l 1,39,40
 570 1418 570 1418 545 1391 c 0,41,42
 506 1347 506 1347 506 1233 c 2,43,-1
 506 850 l 1,44,-1
 582 850 l 2,45,46
 620 850 620 850 643 868 c 1,47,48
 965 1237 965 1237 978 1257.5 c 128,-1,49
 991 1278 991 1278 1004 1294 c 1,50,-1
 1026 1324 l 2,51,52
 1051 1358 1051 1358 1051 1373 c 0,53,54
 1051 1425 1051 1425 990 1425 c 0,55,56
 937 1425 937 1425 906 1418 c 1,57,-1
 922 1530 l 1,58,-1
 1449 1530 l 1,59,-1
 1432 1418 l 1,60,-1
 1381 1418 l 2,61,62
 1286 1418 1286 1418 1120 1223 c 1,63,-1
 758 806 l 1,64,65
 856 737 856 737 1008 562 c 1,66,67
 1170 369 1170 369 1219.5 298.5 c 128,-1,68
 1269 228 1269 228 1296.5 194.5 c 128,-1,69
 1324 161 1324 161 1348 141.5 c 128,-1,0
 1372 122 1372 122 1394.5 115 c 128,-1,1
EndSplineSet
EndChar

StartChar: L
Encoding: 76 76 66
Width: 1367
GlyphClass: 2
Flags: W
LayerCount: 2
Fore
SplineSet
1138 446 m 1,0,-1
 1268 441 l 1,1,2
 1273 386 1273 386 1273 340.5 c 128,-1,3
 1273 295 1273 295 1266.5 240.5 c 128,-1,4
 1260 186 1260 186 1252.5 139.5 c 128,-1,5
 1245 93 1245 93 1237.5 57 c 128,-1,6
 1230 21 1230 21 1229 0 c 1,7,-1
 68 0 l 1,8,-1
 80 111 l 1,9,10
 177 109 177 109 216 150 c 0,11,12
 260 197 260 197 260 330 c 2,13,-1
 259 1249 l 2,14,15
 259 1358 259 1358 244 1383 c 128,-1,16
 229 1408 229 1408 212 1413 c 128,-1,17
 195 1418 195 1418 171 1418 c 0,18,19
 140 1418 140 1418 92 1408 c 1,20,-1
 108 1530 l 1,21,-1
 696 1530 l 1,22,-1
 682 1417 l 1,23,24
 553 1417 553 1417 520.5 1396.5 c 128,-1,25
 488 1376 488 1376 476.5 1343.5 c 128,-1,26
 465 1311 465 1311 465 1255 c 1,27,-1
 466 1224 l 1,28,-1
 466 279 l 2,29,30
 466 128 466 128 568 111 c 0,31,32
 599 106 599 106 634 106 c 2,33,-1
 799 106 l 2,34,35
 1000 106 1000 106 1072 211 c 0,36,37
 1113 270 1113 270 1123 336 c 128,-1,38
 1133 402 1133 402 1138 446 c 1,0,-1
EndSplineSet
EndChar

StartChar: M
Encoding: 77 77 67
Width: 2219
GlyphClass: 2
Flags: W
LayerCount: 2
Fore
SplineSet
454 118.5 m 128,-1,1
 475 110 475 110 516 110 c 128,-1,2
 557 110 557 110 622 123 c 1,3,-1
 611 0 l 1,4,-1
 85 0 l 1,5,-1
 91 110 l 1,6,7
 179 108 179 108 208 146 c 0,8,9
 257 212 257 212 350 764 c 1,10,-1
 426 1241 l 2,11,12
 428 1259 428 1259 430.5 1279 c 128,-1,13
 433 1299 433 1299 433 1319 c 0,14,15
 433 1418 433 1418 345 1418 c 0,16,17
 292 1418 292 1418 249 1408 c 1,18,-1
 265 1530 l 1,19,-1
 704 1530 l 1,20,21
 720 1433 720 1433 766 1283 c 0,22,23
 870 948 870 948 918 805 c 1,24,-1
 1012 537 l 1,25,-1
 1101 291 l 1,26,27
 1368 1077 1368 1077 1405 1197 c 2,28,-1
 1466 1396 l 1,29,30
 1489 1476 1489 1476 1501 1530 c 1,31,-1
 1938 1530 l 1,32,-1
 1923 1418 l 1,33,34
 1825 1418 1825 1418 1799 1405 c 128,-1,35
 1773 1392 1773 1392 1765 1374 c 128,-1,36
 1757 1356 1757 1356 1757 1335 c 0,37,38
 1757 1311 1757 1311 1770 1216 c 2,39,-1
 1801 998 l 1,40,41
 1863 582 1863 582 1937 278 c 0,42,43
 1963 170 1963 170 1979 147.5 c 128,-1,44
 1995 125 1995 125 2012.5 119.5 c 128,-1,45
 2030 114 2030 114 2046.5 114 c 128,-1,46
 2063 114 2063 114 2076 114.5 c 128,-1,47
 2089 115 2089 115 2104 116 c 0,48,49
 2132 118 2132 118 2155 123 c 1,50,-1
 2142 0 l 1,51,-1
 1556 0 l 1,52,-1
 1569 95 l 1,53,54
 1651 93 1651 93 1683 117 c 0,55,56
 1740 162 1740 162 1740 253 c 0,57,58
 1740 288 1740 288 1714 442 c 1,59,-1
 1563 1277 l 1,60,-1
 1244 330 l 1,61,62
 1194 174 1194 174 1149 13 c 1,63,64
 1110 13 1110 13 1075 2 c 2,65,-1
 1013 -16 l 1,66,-1
 566 1275 l 1,67,68
 552 1178 552 1178 535 1078 c 2,69,-1
 436 521 l 1,70,71
 407 349 407 349 405 282 c 2,72,-1
 404 219 l 2,73,74
 404 165 404 165 418.5 146 c 128,-1,0
 433 127 433 127 454 118.5 c 128,-1,1
EndSplineSet
EndChar

StartChar: N
Encoding: 78 78 68
Width: 1706
GlyphClass: 2
Flags: W
LayerCount: 2
Fore
SplineSet
1508 16 m 1,0,1
 1439 10 1439 10 1390 -16 c 1,2,3
 1341 61 1341 61 1274 154 c 1,4,-1
 1128 352 l 1,5,-1
 960 570 l 1,6,-1
 407 1266 l 1,7,-1
 407 300 l 2,8,9
 407 193 407 193 427.5 159.5 c 128,-1,10
 448 126 448 126 469.5 116 c 128,-1,11
 491 106 491 106 524 106 c 0,12,13
 571 106 571 106 649 119 c 1,14,-1
 637 0 l 1,15,-1
 91 0 l 1,16,-1
 104 106 l 1,17,18
 196 106 196 106 224 127 c 0,19,20
 276 166 276 166 276 283 c 2,21,-1
 276 1222 l 2,22,23
 276 1337 276 1337 262 1365 c 128,-1,24
 248 1393 248 1393 229 1401.5 c 128,-1,25
 210 1410 210 1410 184 1410 c 0,26,27
 144 1410 144 1410 87 1400 c 1,28,-1
 102 1530 l 1,29,-1
 497 1530 l 1,30,31
 518 1446 518 1446 587 1359 c 1,32,-1
 975 856 l 1,33,-1
 1361 368 l 1,34,-1
 1361 1245 l 2,35,36
 1361 1364 1361 1364 1348 1387 c 128,-1,37
 1335 1410 1335 1410 1317 1414.5 c 128,-1,38
 1299 1419 1299 1419 1280 1419 c 128,-1,39
 1261 1419 1261 1419 1248.5 1418 c 128,-1,40
 1236 1417 1236 1417 1222 1416 c 2,41,-1
 1193 1412 l 1,42,43
 1178 1411 1178 1411 1166 1409 c 1,44,-1
 1177 1530 l 1,45,-1
 1678 1530 l 1,46,-1
 1664 1419 l 1,47,48
 1607 1419 1607 1419 1573 1417 c 128,-1,49
 1539 1415 1539 1415 1522 1402 c 0,50,51
 1493 1380 1493 1380 1493 1270 c 2,52,-1
 1493 252 l 2,53,54
 1493 136 1493 136 1508 16 c 1,0,1
EndSplineSet
EndChar

StartChar: O
Encoding: 79 79 69
Width: 1709
GlyphClass: 2
Flags: W
LayerCount: 2
Fore
SplineSet
131 728 m 0,0,1
 134 901 134 901 186 1048 c 128,-1,2
 238 1195 238 1195 337 1306 c 0,3,4
 551 1546 551 1546 909 1546 c 0,5,6
 1217 1546 1217 1546 1403 1352 c 0,7,8
 1596 1151 1596 1151 1590 797 c 0,9,10
 1584 450 1584 450 1384 226 c 1,11,12
 1171 -15 1171 -15 814 -15 c 0,13,14
 504 -15 504 -15 319 180 c 0,15,16
 125 385 125 385 131 728 c 0,0,1
640.5 159 m 128,-1,18
 736 108 736 108 851 108 c 128,-1,19
 966 108 966 108 1056 146.5 c 128,-1,20
 1146 185 1146 185 1213 263 c 0,21,22
 1358 432 1358 432 1362 733 c 1,23,24
 1368 1046 1368 1046 1240 1230 c 0,25,26
 1106 1422 1106 1422 857 1422 c 0,27,28
 643 1422 643 1422 508 1269 c 1,29,30
 364 1104 364 1104 358 801 c 0,31,32
 352 488 352 488 481 302 c 0,33,17
 545 210 545 210 640.5 159 c 128,-1,18
EndSplineSet
EndChar

StartChar: P
Encoding: 80 80 70
Width: 1364
GlyphClass: 2
Flags: W
LayerCount: 2
Fore
SplineSet
585 113 m 128,-1,1
 616 106 616 106 662.5 106 c 128,-1,2
 709 106 709 106 777 124 c 1,3,-1
 765 0 l 1,4,-1
 131 0 l 1,5,-1
 142 105 l 1,6,7
 270 105 270 105 292 231 c 0,8,9
 300 273 300 273 300 330 c 2,10,-1
 299 1241 l 2,11,12
 299 1364 299 1364 289 1387 c 0,13,14
 272 1426 272 1426 200 1426 c 0,15,16
 135 1426 135 1426 101 1417 c 1,17,-1
 118 1530 l 1,18,-1
 314 1530 l 2,19,20
 450 1530 450 1530 511 1533 c 2,21,-1
 604 1538 l 2,22,23
 636 1539 636 1539 668 1541 c 0,24,25
 730 1545 730 1545 841 1544 c 128,-1,26
 952 1543 952 1543 1047.5 1509 c 128,-1,27
 1143 1475 1143 1475 1203 1416 c 0,28,29
 1317 1302 1317 1302 1317 1096 c 0,30,31
 1317 875 1317 875 1156 734 c 0,32,33
 1002 599 1002 599 778 599 c 0,34,35
 691 599 691 599 601 623 c 1,36,-1
 583 735 l 1,37,38
 659 717 659 717 734.5 717 c 128,-1,39
 810 717 810 717 879 742 c 128,-1,40
 948 767 948 767 997 814 c 0,41,42
 1101 914 1101 914 1101 1083 c 0,43,44
 1101 1436 1101 1436 700 1436 c 0,45,46
 589 1436 589 1436 505 1416 c 1,47,-1
 505 260 l 2,48,49
 505 168 505 168 529.5 144 c 128,-1,0
 554 120 554 120 585 113 c 128,-1,1
EndSplineSet
EndChar

StartChar: Q
Encoding: 81 81 71
Width: 1709
GlyphClass: 2
Flags: W
LayerCount: 2
Fore
SplineSet
1480 -210 m 2,0,-1
 1515 -210 l 2,1,2
 1541 -210 1541 -210 1594 -194 c 1,3,-1
 1627 -324 l 1,4,5
 1591 -367 1591 -367 1500 -392 c 0,6,7
 1464 -402 1464 -402 1407.5 -402 c 128,-1,8
 1351 -402 1351 -402 1298 -377.5 c 128,-1,9
 1245 -353 1245 -353 1201.5 -315 c 128,-1,10
 1158 -277 1158 -277 1122 -232 c 1,11,-1
 1055 -144 l 1,12,13
 978 -45 978 -45 926 -28 c 0,14,15
 888 -16 888 -16 851 -16 c 1,16,-1
 1030 50 l 1,17,18
 1127 27 1127 27 1250 -93 c 1,19,20
 1368 -210 1368 -210 1480 -210 c 2,0,-1
160 728 m 0,21,22
 163 901 163 901 215 1048 c 128,-1,23
 267 1195 267 1195 366 1306 c 0,24,25
 580 1546 580 1546 938 1546 c 0,26,27
 1246 1546 1246 1546 1432 1352 c 0,28,29
 1625 1151 1625 1151 1619 797 c 0,30,31
 1613 450 1613 450 1414 226 c 0,32,33
 1200 -15 1200 -15 843 -15 c 0,34,35
 533 -15 533 -15 348 180 c 0,36,37
 154 385 154 385 160 728 c 0,21,22
669.5 159 m 128,-1,39
 765 108 765 108 880 108 c 128,-1,40
 995 108 995 108 1085 146.5 c 128,-1,41
 1175 185 1175 185 1242 263 c 0,42,43
 1387 432 1387 432 1391 733 c 1,44,45
 1397 1046 1397 1046 1268 1230 c 1,46,47
 1135 1422 1135 1422 886 1422 c 0,48,49
 672 1422 672 1422 538 1269 c 0,50,51
 393 1104 393 1104 387 801 c 0,52,53
 381 488 381 488 510 302 c 0,54,38
 574 210 574 210 669.5 159 c 128,-1,39
EndSplineSet
EndChar

StartChar: R
Encoding: 82 82 72
Width: 1535
GlyphClass: 2
Flags: W
LayerCount: 2
Fore
SplineSet
568 116.5 m 128,-1,1
 592 106 592 106 636 106 c 128,-1,2
 680 106 680 106 736 120 c 1,3,-1
 725 0 l 1,4,-1
 147 0 l 1,5,-1
 159 106 l 1,6,7
 263 108 263 108 292 160 c 1,8,9
 315 204 315 204 315 349 c 2,10,-1
 314 1252 l 2,11,12
 314 1352 314 1352 304 1375 c 0,13,14
 285 1418 285 1418 216 1418 c 0,15,16
 163 1418 163 1418 118 1408 c 1,17,-1
 134 1530 l 1,18,-1
 416 1530 l 1,19,-1
 823 1545 l 1,20,21
 1188 1545 1188 1545 1283 1317 c 0,22,23
 1313 1245 1313 1245 1313 1167 c 128,-1,24
 1313 1089 1313 1089 1295.5 1031.5 c 128,-1,25
 1278 974 1278 974 1248 926.5 c 128,-1,26
 1218 879 1218 879 1178 841 c 128,-1,27
 1138 803 1138 803 1094 776 c 0,28,29
 1003 720 1003 720 916 712 c 1,30,31
 1025 684 1025 684 1142 500 c 1,32,-1
 1268 290 l 1,33,34
 1368 117 1368 117 1431 115 c 0,35,36
 1469 113 1469 113 1509 125 c 1,37,-1
 1504 0 l 1,38,-1
 1358 0 l 2,39,40
 1211 0 1211 0 1119 102 c 1,41,42
 1081 149 1081 149 1045 240 c 2,43,-1
 989 383 l 1,44,45
 948 484 948 484 895.5 552.5 c 128,-1,46
 843 621 843 621 807 644 c 0,47,48
 743 686 743 686 603 686 c 2,49,-1
 511 686 l 1,50,-1
 511 279 l 2,51,52
 511 184 511 184 527.5 155.5 c 128,-1,0
 544 127 544 127 568 116.5 c 128,-1,1
742 1433 m 2,53,-1
 648 1433 l 2,54,55
 568 1433 568 1433 511 1415 c 1,56,-1
 511 802 l 1,57,-1
 756 802 l 2,58,59
 897 802 897 802 990 884 c 1,60,61
 1092 972 1092 972 1092 1120.5 c 128,-1,62
 1092 1269 1092 1269 1006 1351 c 128,-1,63
 920 1433 920 1433 742 1433 c 2,53,-1
EndSplineSet
EndChar

StartChar: S
Encoding: 83 83 73
Width: 1364
GlyphClass: 2
Flags: W
LayerCount: 2
Fore
SplineSet
1169 1449 m 0,0,1
 1169 1288 1169 1288 1137 1116 c 1,2,-1
 1041 1116 l 1,3,4
 1035 1369 1035 1369 836 1422 c 0,5,6
 774 1439 774 1439 689 1439 c 128,-1,7
 604 1439 604 1439 544.5 1416.5 c 128,-1,8
 485 1394 485 1394 452 1359 c 0,9,10
 394 1298 394 1298 399 1197 c 0,11,12
 407 1043 407 1043 622 933 c 0,13,14
 687 900 687 900 765 865.5 c 128,-1,15
 843 831 843 831 927.5 788.5 c 128,-1,16
 1012 746 1012 746 1080 691 c 0,17,18
 1230 568 1230 568 1234 403 c 0,19,20
 1238 196 1238 196 1078 86 c 1,21,22
 932 -16 932 -16 686 -16 c 0,23,24
 608 -16 608 -16 512 2 c 0,25,26
 332 36 332 36 274.5 36 c 128,-1,27
 217 36 217 36 177 30 c 1,28,29
 176 52 176 52 176 74 c 2,30,-1
 176 116 l 2,31,32
 176 326 176 326 199 457 c 1,33,-1
 298 457 l 1,34,35
 306 269 306 269 392 181 c 0,36,37
 482 89 482 89 672 89 c 0,38,39
 831 89 831 89 926 161 c 0,40,41
 1020 232 1020 232 1016 347 c 0,42,43
 1009 515 1009 515 746 630 c 2,44,-1
 591 698 l 2,45,46
 205 868 205 868 198 1160 c 0,47,48
 194 1334 194 1334 340 1440 c 0,49,50
 483 1545 483 1545 713 1545 c 0,51,52
 744 1545 744 1545 783 1540 c 2,53,-1
 866 1529 l 2,54,55
 985 1513 985 1513 1050.5 1513 c 128,-1,56
 1116 1513 1116 1513 1167 1524 c 1,57,58
 1169 1484 1169 1484 1169 1449 c 0,0,1
EndSplineSet
EndChar

StartChar: T
Encoding: 84 84 74
Width: 1535
GlyphClass: 2
Flags: W
LayerCount: 2
Fore
SplineSet
392 108 m 1,0,1
 490 108 490 108 545 114 c 128,-1,2
 600 120 600 120 626.5 140.5 c 128,-1,3
 653 161 653 161 659 201.5 c 128,-1,4
 665 242 665 242 665 311 c 2,5,-1
 665 1411 l 1,6,-1
 500 1412 l 1,7,8
 329 1408 329 1408 271 1350 c 0,9,10
 212 1292 212 1292 198 1131 c 1,11,-1
 71 1131 l 1,12,13
 76 1170 76 1170 83 1217 c 2,14,15
 83 1217 83 1217 129 1530 c 1,16,-1
 1440 1530 l 1,17,18
 1442 1519 1442 1519 1442 1506 c 2,19,-1
 1442 1478 l 2,20,21
 1442 1434 1442 1434 1438 1356 c 2,22,-1
 1433 1228 l 2,23,24
 1431 1180 1431 1180 1430 1131 c 1,25,-1
 1302 1131 l 1,26,27
 1302 1263 1302 1263 1294 1300.5 c 128,-1,28
 1286 1338 1286 1338 1271.5 1358 c 128,-1,29
 1257 1378 1257 1378 1231 1390 c 0,30,31
 1185 1410 1185 1410 1069 1412 c 1,32,-1
 872 1411 l 1,33,-1
 872 289 l 2,34,35
 872 171 872 171 890.5 146 c 128,-1,36
 909 121 909 121 934.5 114.5 c 128,-1,37
 960 108 960 108 985 108 c 128,-1,38
 1010 108 1010 108 1031 109.5 c 128,-1,39
 1052 111 1052 111 1076 113 c 0,40,41
 1133 118 1133 118 1152 122 c 1,42,-1
 1140 0 l 1,43,-1
 384 1 l 1,44,-1
 392 108 l 1,0,1
EndSplineSet
EndChar

StartChar: U
Encoding: 85 85 75
Width: 1537
GlyphClass: 2
Flags: W
LayerCount: 2
Fore
SplineSet
1160 1407 m 128,-1,1
 1139 1418 1139 1418 1104 1418 c 128,-1,2
 1069 1418 1069 1418 1031 1408 c 1,3,-1
 1042 1530 l 1,4,-1
 1510 1530 l 1,5,-1
 1495 1418 l 1,6,7
 1400 1418 1400 1418 1376 1374 c 1,8,9
 1356 1335 1356 1335 1356 1194 c 2,10,-1
 1356 610 l 2,11,12
 1356 302 1356 302 1217.5 143.5 c 128,-1,13
 1079 -15 1079 -15 790 -15 c 0,14,15
 487 -15 487 -15 338 159 c 0,16,17
 201 319 201 319 201 617 c 2,18,-1
 201 1058 l 1,19,-1
 200 1234 l 1,20,-1
 200 1264 l 2,21,22
 200 1369 200 1369 184 1391 c 128,-1,23
 168 1413 168 1413 151.5 1415.5 c 128,-1,24
 135 1418 135 1418 119 1418 c 0,25,26
 87 1418 87 1418 42 1408 c 1,27,-1
 56 1530 l 1,28,-1
 607 1530 l 1,29,-1
 592 1418 l 1,30,31
 468 1418 468 1418 437 1384 c 0,32,33
 407 1352 407 1352 407 1222 c 2,34,-1
 407 646 l 2,35,36
 407 108 407 108 789 108 c 0,37,38
 920 108 920 108 986.5 137 c 128,-1,39
 1053 166 1053 166 1092 203.5 c 128,-1,40
 1131 241 1131 241 1159 300 c 0,41,42
 1218 423 1218 423 1218 636 c 2,43,-1
 1218 1197 l 2,44,45
 1218 1323 1218 1323 1199.5 1359.5 c 128,-1,0
 1181 1396 1181 1396 1160 1407 c 128,-1,1
EndSplineSet
EndChar

StartChar: V
Encoding: 86 86 76
Width: 1364
GlyphClass: 2
Flags: W
LayerCount: 2
Fore
SplineSet
784 13 m 1,0,1
 706 13 706 13 648 -16 c 1,2,-1
 384 604 l 1,3,4
 198 1060 198 1060 164 1148 c 2,5,-1
 112 1282 l 2,6,7
 77 1372 77 1372 48.5 1395 c 128,-1,8
 20 1418 20 1418 -1 1418 c 0,9,10
 -33 1418 -33 1418 -54 1411 c 1,11,-1
 -41 1530 l 1,12,-1
 531 1530 l 1,13,-1
 512 1418 l 1,14,15
 320 1418 320 1418 320 1347 c 0,16,17
 320 1331 320 1331 324 1320 c 2,18,-1
 739 236 l 1,19,-1
 958 846 l 1,20,21
 1111 1291 1111 1291 1110.5 1328.5 c 128,-1,22
 1110 1366 1110 1366 1102.5 1381.5 c 128,-1,23
 1095 1397 1095 1397 1082 1405 c 0,24,25
 1061 1418 1061 1418 1014 1418 c 128,-1,26
 967 1418 967 1418 927 1408 c 1,27,-1
 938 1530 l 1,28,-1
 1435 1530 l 1,29,-1
 1422 1418 l 1,30,31
 1343 1418 1343 1418 1320 1400 c 0,32,33
 1285 1374 1285 1374 1257 1296 c 2,34,-1
 784 13 l 1,0,1
EndSplineSet
EndChar

StartChar: W
Encoding: 87 87 77
Width: 2214
GlyphClass: 2
Flags: W
LayerCount: 2
Fore
SplineSet
1911.5 1415.5 m 128,-1,1
 1892 1418 1892 1418 1858 1418 c 128,-1,2
 1824 1418 1824 1418 1784 1408 c 1,3,-1
 1795 1530 l 1,4,-1
 2309 1530 l 1,5,-1
 2295 1418 l 1,6,7
 2216 1418 2216 1418 2191 1400 c 0,8,9
 2152 1373 2152 1373 2126 1296 c 1,10,-1
 1650 13 l 1,11,12
 1545 6 1545 6 1498 -16 c 1,13,-1
 1155 1035 l 1,14,15
 872 211 872 211 850 141 c 2,16,-1
 818 42 l 2,17,18
 809 14 809 14 808 13 c 0,19,20
 703 6 703 6 656 -16 c 1,21,22
 263 1045 263 1045 210 1178 c 1,23,-1
 174 1281 l 1,24,25
 140 1373 140 1373 113 1395.5 c 128,-1,26
 86 1418 86 1418 54.5 1418 c 128,-1,27
 23 1418 23 1418 -3 1408 c 1,28,-1
 10 1530 l 1,29,-1
 570 1530 l 1,30,-1
 555 1418 l 1,31,32
 450 1418 450 1418 423 1410 c 0,33,34
 374 1396 374 1396 374 1351 c 0,35,36
 374 1323 374 1323 392 1272 c 2,37,-1
 745 254 l 1,38,39
 1032 1070 1032 1070 1088 1240 c 1,40,41
 1043 1374 1043 1374 994 1405 c 0,42,43
 974 1418 974 1418 949 1418 c 128,-1,44
 924 1418 924 1418 886 1408 c 1,45,-1
 898 1530 l 1,46,-1
 1497 1530 l 1,47,-1
 1478 1418 l 1,48,49
 1353 1418 1353 1418 1322 1408.5 c 128,-1,50
 1291 1399 1291 1399 1281.5 1386 c 128,-1,51
 1272 1373 1272 1373 1272 1353.5 c 128,-1,52
 1272 1334 1272 1334 1274.5 1321.5 c 128,-1,53
 1277 1309 1277 1309 1288 1270 c 2,54,-1
 1596 238 l 1,55,56
 1896 1046 1896 1046 1923 1125 c 0,57,58
 1982 1294 1982 1294 1981.5 1330 c 128,-1,59
 1981 1366 1981 1366 1971.5 1381.5 c 128,-1,60
 1962 1397 1962 1397 1946.5 1405 c 128,-1,0
 1931 1413 1931 1413 1911.5 1415.5 c 128,-1,1
EndSplineSet
EndChar

StartChar: X
Encoding: 88 88 78
Width: 1535
GlyphClass: 2
Flags: W
LayerCount: 2
Fore
SplineSet
880 115 m 1,0,1
 908 111 908 111 960 111 c 0,2,3
 1065 111 1065 111 1063 180 c 0,4,5
 1061 221 1061 221 1000 305 c 1,6,-1
 742 650 l 1,7,8
 495 321 495 321 455 254.5 c 128,-1,9
 415 188 415 188 415 169 c 0,10,11
 413 113 413 113 496 113 c 0,12,13
 542 113 542 113 580 119 c 1,14,-1
 561 0 l 1,15,-1
 35 0 l 1,16,-1
 55 113 l 1,17,18
 127 113 127 113 186 147 c 0,19,20
 205 158 205 158 218 172 c 2,21,-1
 336 312 l 1,22,-1
 558 597 l 1,23,-1
 670 746 l 1,24,25
 267 1287 267 1287 241.5 1319 c 128,-1,26
 216 1351 216 1351 188 1374 c 0,27,28
 134 1418 134 1418 61 1418 c 1,29,-1
 72 1530 l 1,30,-1
 681 1530 l 1,31,-1
 662 1418 l 1,32,33
 549 1418 549 1418 521 1408.5 c 128,-1,34
 493 1399 493 1399 485.5 1386 c 128,-1,35
 478 1373 478 1373 479 1347.5 c 128,-1,36
 480 1322 480 1322 514 1274 c 1,37,-1
 801 888 l 1,38,39
 1133 1326 1133 1326 1133 1374 c 0,40,41
 1133 1402 1133 1402 1112 1410 c 128,-1,42
 1091 1418 1091 1418 1062 1418 c 0,43,44
 1014 1418 1014 1418 962 1408 c 1,45,-1
 983 1530 l 1,46,-1
 1490 1530 l 1,47,-1
 1470 1418 l 1,48,49
 1357 1418 1357 1418 1313 1363 c 1,50,-1
 872 794 l 1,51,-1
 1295 233 l 1,52,-1
 1331 188 l 1,53,54
 1394 111 1394 111 1464 111 c 0,55,56
 1499 111 1499 111 1523 117 c 1,57,-1
 1510 0 l 1,58,-1
 873 0 l 1,59,-1
 880 115 l 1,0,1
EndSplineSet
EndChar

StartChar: Y
Encoding: 89 89 79
Width: 1364
GlyphClass: 2
Flags: W
LayerCount: 2
Fore
SplineSet
861 115.5 m 128,-1,1
 883 105 883 105 948 105 c 128,-1,2
 1013 105 1013 105 1055 118 c 1,3,-1
 1046 0 l 1,4,-1
 360 0 l 1,5,-1
 368 105 l 1,6,-1
 404 105 l 2,7,8
 538 105 538 105 567.5 130 c 128,-1,9
 597 155 597 155 605 189 c 128,-1,10
 613 223 613 223 613 279 c 2,11,-1
 613 533 l 1,12,-1
 131 1331 l 1,13,14
 101 1378 101 1378 70 1393 c 0,15,16
 20 1418 20 1418 -50 1418 c 1,17,-1
 -35 1530 l 1,18,-1
 561 1530 l 1,19,-1
 535 1418 l 1,20,21
 431 1418 431 1418 408 1410 c 0,22,23
 367 1395 367 1395 367 1347 c 0,24,25
 367 1280 367 1280 474 1108 c 2,26,-1
 607 896 l 2,27,28
 641 841 641 841 670 788 c 1,29,-1
 734 651 l 1,30,31
 887 936 887 936 926 1013 c 2,32,33
 926 1013 926 1013 992 1147 c 1,34,35
 1049 1271 1049 1271 1053.5 1300.5 c 128,-1,36
 1058 1330 1058 1330 1057 1348.5 c 128,-1,37
 1056 1367 1056 1367 1047 1382 c 0,38,39
 1026 1418 1026 1418 962 1418 c 0,40,41
 920 1418 920 1418 868 1408 c 1,42,-1
 883 1530 l 1,43,-1
 1429 1530 l 1,44,-1
 1410 1418 l 1,45,46
 1323 1418 1323 1418 1291 1393 c 0,47,48
 1242 1355 1242 1355 1192 1250 c 1,49,-1
 813 533 l 1,50,-1
 813 347 l 2,51,52
 813 193 813 193 826 159.5 c 128,-1,0
 839 126 839 126 861 115.5 c 128,-1,1
EndSplineSet
EndChar

StartChar: Z
Encoding: 90 90 80
Width: 1365
GlyphClass: 2
Flags: W
LayerCount: 2
Fore
SplineSet
134 1129 m 1,0,1
 176 1292 176 1292 176 1537 c 1,2,-1
 308 1533 l 2,3,4
 390 1530 390 1530 527 1530 c 2,5,-1
 1234 1530 l 1,6,-1
 1268 1462 l 1,7,-1
 381 111 l 1,8,-1
 818 111 l 2,9,10
 1019 111 1019 111 1112 276 c 0,11,12
 1145 335 1145 335 1167 418 c 1,13,-1
 1279 417 l 1,14,15
 1279 321 1279 321 1256.5 189.5 c 128,-1,16
 1234 58 1234 58 1225 0 c 1,17,-1
 143 0 l 1,18,-1
 100 66 l 1,19,-1
 989 1418 l 1,20,-1
 531 1418 l 2,21,22
 406 1418 406 1418 344 1336 c 1,23,24
 316 1297 316 1297 298 1244 c 128,-1,25
 280 1191 280 1191 261 1129 c 1,26,-1
 134 1129 l 1,0,1
EndSplineSet
EndChar

StartChar: bracketleft
Encoding: 91 91 81
Width: 1085
GlyphClass: 2
Flags: W
LayerCount: 2
Fore
SplineSet
285 1870 m 1,0,-1
 727 1870 l 1,1,-1
 711 1758 l 1,2,3
 539 1758 539 1758 507 1738 c 128,-1,4
 475 1718 475 1718 468.5 1686 c 128,-1,5
 462 1654 462 1654 462 1599 c 2,6,-1
 462 -113 l 2,7,8
 462 -184 462 -184 472.5 -201 c 128,-1,9
 483 -218 483 -218 497 -221.5 c 128,-1,10
 511 -225 511 -225 532 -225 c 128,-1,11
 553 -225 553 -225 585 -223.5 c 128,-1,12
 617 -222 617 -222 650 -220 c 0,13,14
 729 -215 729 -215 746 -211 c 1,15,-1
 732 -340 l 1,16,-1
 285 -340 l 1,17,-1
 285 1870 l 1,0,-1
EndSplineSet
EndChar

StartChar: asciicircum
Encoding: 94 94 84
Width: 1364
GlyphClass: 2
Flags: W
LayerCount: 2
Fore
SplineSet
585 1531 m 1,0,-1
 788 1531 l 1,1,-1
 1161 564 l 1,2,-1
 978 563 l 1,3,-1
 677 1346 l 1,4,-1
 364 563 l 1,5,-1
 202 564 l 1,6,-1
 585 1531 l 1,0,-1
EndSplineSet
EndChar

StartChar: underscore
Encoding: 95 95 85
Width: 1533
GlyphClass: 2
Flags: W
LayerCount: 2
Fore
SplineSet
1557 -170 m 1,0,-1
 1538 -312 l 1,1,-1
 -31 -312 l 1,2,-1
 -12 -170 l 1,3,-1
 1557 -170 l 1,0,-1
EndSplineSet
EndChar

StartChar: grave
Encoding: 96 96 86
Width: 1287
GlyphClass: 2
Flags: W
LayerCount: 2
Fore
SplineSet
282 1593 m 1,0,-1
 399 1757 l 1,1,-1
 823 1419 l 1,2,-1
 754 1311 l 1,3,-1
 282 1593 l 1,0,-1
EndSplineSet
EndChar

StartChar: a
Encoding: 97 97 87
Width: 1195
GlyphClass: 2
Flags: W
LayerCount: 2
Fore
SplineSet
1016 872 m 1,0,-1
 1000 339 l 1,1,2
 1000 231 1000 231 1065 184 c 0,3,4
 1111 150 1111 150 1181 150 c 1,5,6
 1177 103 1177 103 1141 61 c 0,7,8
 1079 -11 1079 -11 1038 -22 c 1,9,10
 978 -22 978 -22 924 22 c 128,-1,11
 870 66 870 66 842 151 c 1,12,13
 774 79 774 79 658 26 c 0,14,15
 550 -23 550 -23 471 -23 c 128,-1,16
 392 -23 392 -23 323 0.5 c 128,-1,17
 254 24 254 24 208 66 c 0,18,19
 114 152 114 152 114 303 c 0,20,21
 114 486 114 486 316 586 c 1,22,23
 507 679 507 679 814 679 c 2,24,-1
 832 679 l 1,25,-1
 829 845 l 1,26,27
 825 970 825 970 740 1033 c 0,28,29
 674 1082 674 1082 574.5 1082 c 128,-1,30
 475 1082 475 1082 415 1030.5 c 128,-1,31
 355 979 355 979 355 883 c 0,32,33
 355 850 355 850 363 810 c 1,34,-1
 191 810 l 1,35,36
 164 918 164 918 164 966 c 0,37,38
 164 1018 164 1018 169 1025 c 1,39,-1
 210 1052 l 1,40,41
 438 1209 438 1209 674 1209 c 0,42,43
 912 1209 912 1209 988 1034 c 0,44,45
 1016 969 1016 969 1016 872 c 1,0,-1
821 300 m 1,46,47
 828 428 828 428 831 572 c 1,48,49
 814 577 814 577 757 577 c 128,-1,50
 700 577 700 577 614 559.5 c 128,-1,51
 528 542 528 542 464 508 c 0,52,53
 327 434 327 434 327 316 c 0,54,55
 327 232 327 232 383 176 c 0,56,57
 441 118 441 118 531 118 c 0,58,59
 643 118 643 118 760 218 c 0,60,61
 794 247 794 247 821 280 c 1,62,-1
 821 300 l 1,46,47
EndSplineSet
EndChar

StartChar: b
Encoding: 98 98 88
Width: 1362
GlyphClass: 2
Flags: W
LayerCount: 2
Fore
SplineSet
662 -15 m 0,0,1
 464 -15 464 -15 333 42 c 1,2,-1
 203 -23 l 1,3,4
 215 169 215 169 215 324 c 2,5,6
 215 324 215 324 215 547 c 1,7,-1
 209 1368 l 2,8,9
 209 1428 209 1428 204.5 1457.5 c 128,-1,10
 200 1487 200 1487 183 1507 c 0,11,12
 158 1537 158 1537 59 1537 c 2,13,-1
 21 1537 l 1,14,-1
 33 1649 l 1,15,-1
 421 1706 l 1,16,17
 403 1631 403 1631 403 1197 c 1,18,-1
 394 1054 l 1,19,20
 512 1156 512 1156 682 1197 c 0,21,22
 733 1209 733 1209 781.5 1209 c 128,-1,23
 830 1209 830 1209 886.5 1197 c 128,-1,24
 943 1185 943 1185 995 1157.5 c 128,-1,25
 1047 1130 1047 1130 1092 1086.5 c 128,-1,26
 1137 1043 1137 1043 1170 980 c 0,27,28
 1243 844 1243 844 1243 642 c 0,29,30
 1243 372 1243 372 1080 182 c 0,31,32
 911 -15 911 -15 662 -15 c 0,0,1
403 212 m 1,33,34
 446 145 446 145 598 116 c 0,35,36
 640 108 640 108 704.5 108 c 128,-1,37
 769 108 769 108 840 143 c 128,-1,38
 911 178 911 178 960 244 c 0,39,40
 1059 377 1059 377 1059 617 c 0,41,42
 1059 811 1059 811 956 928 c 1,43,44
 852 1043 852 1043 687 1043 c 0,45,46
 575 1043 575 1043 442 969 c 0,47,48
 412 952 412 952 403 942 c 1,49,-1
 403 212 l 1,33,34
EndSplineSet
EndChar

StartChar: c
Encoding: 99 99 89
Width: 1191
GlyphClass: 2
Flags: W
LayerCount: 2
Fore
SplineSet
719 159 m 0,0,1
 884 159 884 159 1046 246 c 1,2,-1
 1082 171 l 1,3,4
 1031 117 1031 117 952 73 c 0,5,6
 789 -17 789 -17 665 -17 c 128,-1,7
 541 -17 541 -17 442 21.5 c 128,-1,8
 343 60 343 60 271 132 c 0,9,10
 119 284 119 284 119 539 c 0,11,12
 119 849 119 849 302 1036 c 0,13,14
 472 1209 472 1209 728 1209 c 0,15,16
 872 1209 872 1209 1003 1168 c 0,17,18
 1033 1158 1033 1158 1056 1153 c 1,19,20
 1063 1136 1063 1136 1063 1080.5 c 128,-1,21
 1063 1025 1063 1025 1060.5 993.5 c 128,-1,22
 1058 962 1058 962 1054.5 932.5 c 128,-1,23
 1051 903 1051 903 1047 880 c 2,24,-1
 1041 844 l 1,25,26
 1035 837 1035 837 977.5 837 c 128,-1,27
 920 837 920 837 903 844 c 1,28,29
 903 964 903 964 872.5 1008 c 128,-1,30
 842 1052 842 1052 796 1072.5 c 128,-1,31
 750 1093 750 1093 675.5 1093 c 128,-1,32
 601 1093 601 1093 537.5 1062 c 128,-1,33
 474 1031 474 1031 426 970 c 0,34,35
 321 837 321 837 321 610 c 0,36,37
 321 285 321 285 544 190 c 0,38,39
 618 159 618 159 719 159 c 0,0,1
EndSplineSet
EndChar

StartChar: d
Encoding: 100 100 90
Width: 1362
GlyphClass: 2
Flags: W
LayerCount: 2
Fore
SplineSet
726 1209 m 0,0,1
 829 1209 829 1209 934 1179 c 1,2,-1
 934 1216 l 2,3,4
 934 1436 934 1436 924 1465 c 128,-1,5
 914 1494 914 1494 902 1505.5 c 128,-1,6
 890 1517 890 1517 870 1524 c 128,-1,7
 850 1531 850 1531 826 1534 c 128,-1,8
 802 1537 802 1537 774 1537 c 2,9,-1
 719 1537 l 1,10,-1
 734 1649 l 1,11,-1
 1138 1705 l 1,12,13
 1138 1701 1138 1701 1136.5 1695 c 128,-1,14
 1135 1689 1135 1689 1133 1673.5 c 128,-1,15
 1131 1658 1131 1658 1128 1627.5 c 128,-1,16
 1125 1597 1125 1597 1123 1544 c 0,17,18
 1118 1412 1118 1412 1118 1216 c 2,19,-1
 1118 301 l 2,20,21
 1118 223 1118 223 1137 190 c 128,-1,22
 1156 157 1156 157 1193.5 157 c 128,-1,23
 1231 157 1231 157 1257 166 c 2,24,-1
 1309 182 l 1,25,26
 1307 170 1307 170 1306 149 c 128,-1,27
 1305 128 1305 128 1303 106 c 128,-1,28
 1301 84 1301 84 1300 59 c 1,29,-1
 993 -17 l 1,30,31
 984 -12 984 -12 964.5 46 c 128,-1,32
 945 104 945 104 939 130 c 1,33,34
 810 36 810 36 666 -2 c 0,35,36
 614 -15 614 -15 543.5 -15 c 128,-1,37
 473 -15 473 -15 390 21 c 128,-1,38
 307 57 307 57 246 128 c 0,39,40
 115 279 115 279 115 545 c 0,41,42
 115 815 115 815 286 1010 c 1,43,44
 458 1209 458 1209 726 1209 c 0,0,1
618 166 m 0,45,46
 674 167 674 167 727 178.5 c 128,-1,47
 780 190 780 190 824 204 c 0,48,49
 914 233 914 233 934 253 c 1,50,-1
 934 982 l 1,51,52
 891 1050 891 1050 760 1078 c 0,53,54
 722 1086 722 1086 662.5 1086 c 128,-1,55
 603 1086 603 1086 534 1059 c 128,-1,56
 465 1032 465 1032 416 972 c 0,57,58
 314 846 314 846 314 577 c 0,59,60
 314 395 314 395 408 276 c 0,61,62
 497 162 497 162 618 166 c 0,45,46
EndSplineSet
EndChar

StartChar: e
Encoding: 101 101 91
Width: 1195
GlyphClass: 2
Flags: W
LayerCount: 2
Fore
SplineSet
675 153 m 1,0,1
 866 163 866 163 1021 245 c 1,2,-1
 1063 166 l 1,3,4
 918 42 918 42 722 -4 c 0,5,6
 665 -17 665 -17 618 -17 c 0,7,8
 370 -17 370 -17 241 135 c 0,9,10
 116 282 116 282 116 560 c 0,11,12
 116 846 116 846 284 1032 c 0,13,14
 360 1117 360 1117 458 1163 c 128,-1,15
 556 1209 556 1209 661 1209 c 0,16,17
 1081 1209 1081 1209 1081 723 c 2,18,-1
 1081 686 l 2,19,20
 1081 588 1081 588 1058 588 c 2,21,-1
 312 588 l 1,22,23
 312 373 312 373 404 263 c 128,-1,24
 496 153 496 153 675 153 c 1,0,1
866 712 m 1,25,26
 867 734 867 734 867 746 c 2,27,-1
 867 780 l 2,28,29
 867 940 867 940 811 1013 c 0,30,31
 750 1092 750 1092 614 1092 c 0,32,33
 495 1092 495 1092 402 965 c 0,34,35
 312 841 312 841 312 688 c 1,36,-1
 866 712 l 1,25,26
EndSplineSet
EndChar

StartChar: f
Encoding: 102 102 92
Width: 852
GlyphClass: 2
Flags: W
LayerCount: 2
Fore
SplineSet
978 1561 m 0,0,1
 982 1533 982 1533 982 1501.5 c 128,-1,2
 982 1470 982 1470 960 1360 c 1,3,-1
 815 1360 l 1,4,-1
 815 1444 l 2,5,6
 815 1509 815 1509 788 1534 c 0,7,8
 740 1578 740 1578 639 1578 c 0,9,10
 503 1578 503 1578 456 1448 c 0,11,12
 439 1399 439 1399 439 1332 c 128,-1,13
 439 1265 439 1265 451 1190 c 1,14,-1
 782 1190 l 1,15,-1
 770 1040 l 1,16,-1
 451 1040 l 1,17,-1
 452 245 l 2,18,19
 452 152 452 152 471 131.5 c 128,-1,20
 490 111 490 111 514 106.5 c 128,-1,21
 538 102 538 102 560 102 c 128,-1,22
 582 102 582 102 604 102.5 c 128,-1,23
 626 103 626 103 654 104 c 0,24,25
 730 107 730 107 761 111 c 1,26,-1
 748 0 l 1,27,-1
 75 0 l 1,28,-1
 88 102 l 1,29,30
 151 102 151 102 186.5 109.5 c 128,-1,31
 222 117 222 117 239.5 141 c 128,-1,32
 257 165 257 165 261 211 c 128,-1,33
 265 257 265 257 265 334 c 2,34,-1
 263 1040 l 1,35,-1
 86 1040 l 1,36,-1
 97 1145 l 1,37,38
 150 1149 150 1149 202.5 1166.5 c 128,-1,39
 255 1184 255 1184 265 1190 c 1,40,41
 261 1218 261 1218 261 1259 c 128,-1,42
 261 1300 261 1300 274.5 1356.5 c 128,-1,43
 288 1413 288 1413 314 1466 c 128,-1,44
 340 1519 340 1519 378.5 1566.5 c 128,-1,45
 417 1614 417 1614 468 1650 c 0,46,47
 576 1726 576 1726 715 1726 c 0,48,49
 835 1726 835 1726 906 1674 c 0,50,51
 967 1629 967 1629 978 1561 c 0,0,1
EndSplineSet
EndChar

StartChar: g
Encoding: 103 103 93
Width: 1195
GlyphClass: 2
Flags: W
LayerCount: 2
Fore
SplineSet
566 385 m 0,0,1
 505 385 505 385 466 388 c 1,2,3
 429 366 429 366 413.5 337.5 c 128,-1,4
 398 309 398 309 398 283.5 c 128,-1,5
 398 258 398 258 416 239.5 c 128,-1,6
 434 221 434 221 474.5 210.5 c 128,-1,7
 515 200 515 200 578.5 193 c 128,-1,8
 642 186 642 186 732 175 c 128,-1,9
 822 164 822 164 894 145.5 c 128,-1,10
 966 127 966 127 1018 95 c 0,11,12
 1125 28 1125 28 1125 -108 c 0,13,14
 1125 -293 1125 -293 979 -407 c 0,15,16
 835 -520 835 -520 601 -520 c 0,17,18
 374 -520 374 -520 242 -446 c 0,19,20
 107 -371 107 -371 107 -241 c 0,21,22
 107 -93 107 -93 242 4 c 0,23,24
 285 35 285 35 337 56 c 1,25,26
 219 107 219 107 219 196 c 0,27,28
 219 255 219 255 252 305 c 0,29,30
 307 390 307 390 353 414 c 1,31,32
 229 454 229 454 168 566 c 0,33,34
 118 658 118 658 118 760.5 c 128,-1,35
 118 863 118 863 157 940 c 128,-1,36
 196 1017 196 1017 267 1077 c 0,37,38
 423 1209 423 1209 658 1209 c 0,39,40
 769 1209 769 1209 861 1165 c 1,41,-1
 1171 1209 l 1,42,-1
 1171 1043 l 1,43,-1
 1007 1040 l 1,44,45
 1068 950 1068 950 1068 817 c 0,46,47
 1068 625 1068 625 906 500 c 0,48,49
 757 385 757 385 566 385 c 0,0,1
609 502 m 0,50,51
 671 502 671 502 720.5 520 c 128,-1,52
 770 538 770 538 806 572 c 0,53,54
 882 645 882 645 882 776 c 0,55,56
 882 913 882 913 807 996 c 0,57,58
 728 1083 728 1083 591 1083 c 0,59,60
 467 1083 467 1083 400 1032 c 1,61,62
 308 964 308 964 308 798 c 0,63,64
 308 681 308 681 394 592 c 1,65,66
 483 502 483 502 609 502 c 0,50,51
436 28 m 1,67,68
 305 -44 305 -44 305 -194 c 0,69,70
 305 -288 305 -288 397 -342 c 0,71,72
 484 -394 484 -394 602.5 -394 c 128,-1,73
 721 -394 721 -394 786.5 -379 c 128,-1,74
 852 -364 852 -364 894 -337 c 0,75,76
 974 -285 974 -285 974 -191 c 0,77,78
 974 -131 974 -131 942.5 -96.5 c 128,-1,79
 911 -62 911 -62 844.5 -41 c 128,-1,80
 778 -20 778 -20 676 -6 c 2,81,-1
 436 28 l 1,67,68
EndSplineSet
EndChar

StartChar: h
Encoding: 104 104 94
Width: 1365
GlyphClass: 2
Flags: W
LayerCount: 2
Fore
SplineSet
763 1031 m 0,0,1
 600 1031 600 1031 408 906 c 1,2,-1
 408 207 l 2,3,4
 408 143 408 143 424 126 c 1,5,6
 449 102 449 102 492 102 c 0,7,8
 555 102 555 102 588 111 c 1,9,-1
 573 0 l 1,10,-1
 64 0 l 1,11,-1
 80 102 l 1,12,13
 175 102 175 102 201 160 c 0,14,15
 222 205 222 205 222 356 c 2,16,-1
 222 1368 l 2,17,18
 222 1472 222 1472 198 1499.5 c 128,-1,19
 174 1527 174 1527 139 1532 c 128,-1,20
 104 1537 104 1537 68 1537 c 2,21,-1
 30 1537 l 1,22,-1
 42 1649 l 1,23,-1
 429 1706 l 1,24,25
 408 1618 408 1618 408 1197 c 2,26,-1
 408 1017 l 1,27,-1
 474 1070 l 1,28,29
 654 1209 654 1209 843 1209 c 0,30,31
 1061 1209 1061 1209 1132 1011 c 0,32,33
 1156 944 1156 944 1156 866.5 c 128,-1,34
 1156 789 1156 789 1153 723.5 c 128,-1,35
 1150 658 1150 658 1146 592 c 0,36,37
 1134 394 1134 394 1134 342 c 2,38,-1
 1134 278 l 1,39,-1
 1135 198 l 1,40,41
 1135 113 1135 113 1178 104 c 0,42,43
 1192 102 1192 102 1208 102 c 0,44,45
 1248 102 1248 102 1293 111 c 1,46,-1
 1281 0 l 1,47,-1
 780 0 l 1,48,-1
 795 102 l 1,49,50
 912 102 912 102 938 188 c 1,51,52
 963 277 963 277 965.5 412.5 c 128,-1,53
 968 548 968 548 968 617.5 c 128,-1,54
 968 687 968 687 966.5 728.5 c 128,-1,55
 965 770 965 770 959 812 c 128,-1,56
 953 854 953 854 940.5 893.5 c 128,-1,57
 928 933 928 933 905 964 c 0,58,59
 854 1031 854 1031 763 1031 c 0,0,1
EndSplineSet
EndChar

StartChar: i
Encoding: 105 105 95
Width: 683
GlyphClass: 2
Flags: W
LayerCount: 2
Fore
SplineSet
431.5 1411.5 m 128,-1,1
 405 1400 405 1400 373 1400 c 128,-1,2
 341 1400 341 1400 313 1411.5 c 128,-1,3
 285 1423 285 1423 264 1442 c 1,4,5
 221 1484 221 1484 221 1533 c 128,-1,6
 221 1582 221 1582 232.5 1611 c 128,-1,7
 244 1640 244 1640 264 1661 c 0,8,9
 307 1705 307 1705 374 1705 c 0,10,11
 437 1705 437 1705 478 1661 c 0,12,13
 519 1616 519 1616 519 1566 c 128,-1,14
 519 1516 519 1516 508 1489 c 128,-1,15
 497 1462 497 1462 477.5 1442.5 c 128,-1,0
 458 1423 458 1423 431.5 1411.5 c 128,-1,1
122 102 m 1,16,17
 220 102 220 102 255 158 c 0,18,19
 284 204 284 204 284 312 c 2,20,-1
 284 837 l 2,21,22
 284 964 284 964 240 1002 c 0,23,24
 205 1031 205 1031 86 1031 c 1,25,-1
 102 1155 l 1,26,-1
 502 1209 l 1,27,28
 458 1086 458 1086 458 698 c 1,29,-1
 465 231 l 2,30,31
 465 165 465 165 481 142 c 0,32,33
 509 102 509 102 567 102 c 0,34,35
 617 102 617 102 642 111 c 1,36,-1
 629 0 l 1,37,-1
 104 0 l 1,38,-1
 122 102 l 1,16,17
EndSplineSet
EndChar

StartChar: j
Encoding: 106 106 96
Width: 683
GlyphClass: 2
Flags: W
LayerCount: 2
Fore
SplineSet
444.5 1411.5 m 128,-1,1
 418 1400 418 1400 386 1400 c 128,-1,2
 354 1400 354 1400 326 1411.5 c 128,-1,3
 298 1423 298 1423 278 1442 c 0,4,5
 234 1484 234 1484 234 1533 c 128,-1,6
 234 1582 234 1582 245.5 1611 c 128,-1,7
 257 1640 257 1640 278 1661 c 0,8,9
 320 1705 320 1705 387 1705 c 0,10,11
 450 1705 450 1705 490 1661 c 0,12,13
 532 1616 532 1616 532 1566 c 128,-1,14
 532 1516 532 1516 521 1489 c 128,-1,15
 510 1462 510 1462 490.5 1442.5 c 128,-1,0
 471 1423 471 1423 444.5 1411.5 c 128,-1,1
511 1209 m 1,16,17
 475 1115 475 1115 475 698 c 0,18,19
 475 509 475 509 477 441 c 128,-1,20
 479 373 479 373 480 333 c 128,-1,21
 481 293 481 293 482 256 c 0,22,23
 486 171 486 171 486.5 66 c 128,-1,24
 487 -39 487 -39 450.5 -142 c 128,-1,25
 414 -245 414 -245 357 -320 c 0,26,27
 264 -441 264 -441 103 -520 c 1,28,-1
 37 -463 l 1,29,30
 258 -281 258 -281 286 49 c 0,31,32
 295 150 295 150 295 204 c 2,33,-1
 295 843 l 2,34,35
 295 996 295 996 182 1022 c 0,36,37
 142 1031 142 1031 87 1031 c 1,38,-1
 103 1155 l 1,39,-1
 511 1209 l 1,16,17
EndSplineSet
EndChar

StartChar: k
Encoding: 107 107 97
Width: 1193
GlyphClass: 2
Flags: W
LayerCount: 2
Fore
SplineSet
967 234 m 1,0,1
 1092 102 1092 102 1162 102 c 0,2,3
 1202 102 1202 102 1220 111 c 1,4,-1
 1211 0 l 1,5,-1
 1010 0 l 2,6,7
 877 0 877 0 677 247 c 1,8,-1
 573 382 l 1,9,-1
 482 505 l 2,10,11
 439 562 439 562 408 596 c 1,12,-1
 408 235 l 2,13,14
 408 149 408 149 420.5 129.5 c 128,-1,15
 433 110 433 110 448 106 c 128,-1,16
 463 102 463 102 478.5 102 c 128,-1,17
 494 102 494 102 504 102.5 c 128,-1,18
 514 103 514 103 524 104 c 0,19,20
 549 109 549 109 554 111 c 1,21,-1
 540 0 l 1,22,-1
 63 0 l 1,23,-1
 79 102 l 1,24,25
 168 102 168 102 198 149 c 1,26,27
 224 192 224 192 224 312 c 2,28,-1
 224 1368 l 2,29,30
 224 1472 224 1472 200 1499.5 c 128,-1,31
 176 1527 176 1527 141 1532 c 128,-1,32
 106 1537 106 1537 70 1537 c 2,33,-1
 32 1537 l 1,34,-1
 44 1649 l 1,35,-1
 431 1706 l 1,36,37
 408 1610 408 1610 408 1197 c 2,38,-1
 408 661 l 1,39,40
 511 741 511 741 560 783 c 2,41,-1
 652 863 l 1,42,43
 801 997 801 997 801 1035 c 0,44,45
 801 1062 801 1062 783 1070 c 0,46,47
 754 1083 754 1083 670 1083 c 1,48,-1
 682 1190 l 1,49,-1
 1193 1190 l 1,50,-1
 1183 1083 l 1,51,-1
 1160 1083 l 2,52,53
 1084 1083 1084 1083 996 1006 c 1,54,-1
 960 973 l 1,55,56
 806 849 806 849 742 792 c 0,57,58
 613 675 613 675 586 648 c 1,59,-1
 766 442 l 1,60,-1
 898 302 l 1,61,-1
 967 234 l 1,0,1
EndSplineSet
EndChar

StartChar: l
Encoding: 108 108 98
Width: 683
GlyphClass: 2
Flags: W
LayerCount: 2
Fore
SplineSet
81 102 m 1,0,1
 228 102 228 102 252 174 c 0,2,3
 261 200 261 200 261 236 c 2,4,-1
 261 1368 l 2,5,6
 261 1473 261 1473 231 1505 c 1,7,8
 205 1537 205 1537 98 1537 c 2,9,-1
 59 1537 l 1,10,-1
 71 1649 l 1,11,-1
 468 1706 l 1,12,13
 451 1605 451 1605 449.5 1493 c 128,-1,14
 448 1381 448 1381 448 1269 c 2,15,-1
 448 1197 l 1,16,-1
 450 237 l 2,17,18
 450 155 450 155 463.5 133.5 c 128,-1,19
 477 112 477 112 493.5 107 c 128,-1,20
 510 102 510 102 530 102 c 128,-1,21
 550 102 550 102 566.5 102.5 c 128,-1,22
 583 103 583 103 598 104 c 0,23,24
 635 108 635 108 646 111 c 1,25,-1
 631 0 l 1,26,-1
 64 0 l 1,27,-1
 81 102 l 1,0,1
EndSplineSet
EndChar

StartChar: m
Encoding: 109 109 99
Width: 2049
GlyphClass: 2
Flags: W
LayerCount: 2
Fore
SplineSet
750 1033 m 0,0,1
 634 1033 634 1033 466 916 c 1,2,-1
 466 240 l 2,3,4
 466 150 466 150 483.5 129.5 c 128,-1,5
 501 109 501 109 520.5 105.5 c 128,-1,6
 540 102 540 102 563 102 c 0,7,8
 603 102 603 102 648 111 c 1,9,-1
 633 0 l 1,10,-1
 121 0 l 1,11,-1
 137 102 l 1,12,13
 218 102 218 102 250 157 c 0,14,15
 283 213 283 213 283 345 c 2,16,-1
 283 842 l 2,17,18
 283 952 283 952 251 998 c 1,19,20
 221 1039 221 1039 117 1039 c 1,21,-1
 132 1155 l 1,22,-1
 489 1209 l 1,23,24
 469 1109 469 1109 469 1027 c 1,25,26
 633 1164 633 1164 794 1201 c 0,27,28
 829 1209 829 1209 864 1209 c 0,29,30
 1083 1209 1083 1209 1153 1026 c 1,31,32
 1279 1137 1279 1137 1413 1186 c 0,33,34
 1474 1209 1474 1209 1539 1209 c 128,-1,35
 1604 1209 1604 1209 1662.5 1187 c 128,-1,36
 1721 1165 1721 1165 1763 1122 c 0,37,38
 1853 1028 1853 1028 1853 854 c 0,39,40
 1853 785 1853 785 1849.5 717.5 c 128,-1,41
 1846 650 1846 650 1842 582 c 0,42,43
 1823 209 1823 209 1851 141 c 0,44,45
 1867 102 1867 102 1905 102 c 0,46,47
 1958 102 1958 102 2003 111 c 1,48,-1
 1989 0 l 1,49,-1
 1506 0 l 1,50,-1
 1523 102 l 1,51,52
 1594 102 1594 102 1620 136 c 0,53,54
 1649 174 1649 174 1656 335 c 128,-1,55
 1663 496 1663 496 1663 648.5 c 128,-1,56
 1663 801 1663 801 1654.5 864.5 c 128,-1,57
 1646 928 1646 928 1621 966 c 0,58,59
 1577 1032 1577 1032 1433 1032 c 0,60,61
 1322 1032 1322 1032 1176 930 c 1,62,63
 1181 885 1181 885 1181 835 c 128,-1,64
 1181 785 1181 785 1177.5 717.5 c 128,-1,65
 1174 650 1174 650 1170 582 c 0,66,67
 1153 296 1153 296 1162.5 229.5 c 128,-1,68
 1172 163 1172 163 1183 141 c 0,69,70
 1202 102 1202 102 1256 102 c 128,-1,71
 1310 102 1310 102 1349 111 c 1,72,-1
 1334 0 l 1,73,-1
 817 0 l 1,74,-1
 834 102 l 1,75,76
 926 102 926 102 952 130 c 1,77,78
 975 153 975 153 980.5 215.5 c 128,-1,79
 986 278 986 278 988 338 c 0,80,81
 990 439 990 439 990 617 c 128,-1,82
 990 795 990 795 981.5 860.5 c 128,-1,83
 973 926 973 926 947 964.5 c 128,-1,84
 921 1003 921 1003 874 1018 c 128,-1,85
 827 1033 827 1033 750 1033 c 0,0,1
EndSplineSet
EndChar

StartChar: n
Encoding: 110 110 100
Width: 1365
GlyphClass: 2
Flags: W
LayerCount: 2
Fore
SplineSet
441 1025 m 1,0,1
 658 1209 658 1209 838 1209 c 0,2,3
 1066 1209 1066 1209 1139 1018 c 0,4,5
 1165 950 1165 950 1165 866.5 c 128,-1,6
 1165 783 1165 783 1162 716 c 128,-1,7
 1159 649 1159 649 1155 582 c 0,8,9
 1146 430 1146 430 1146 337 c 128,-1,10
 1146 244 1146 244 1150.5 206 c 128,-1,11
 1155 168 1155 168 1166 145 c 0,12,13
 1185 102 1185 102 1239 102 c 0,14,15
 1291 102 1291 102 1316 111 c 1,16,-1
 1302 0 l 1,17,-1
 802 0 l 1,18,-1
 821 102 l 1,19,20
 904 102 904 102 935 138 c 0,21,22
 948 154 948 154 954.5 181.5 c 128,-1,23
 961 209 961 209 965.5 250 c 128,-1,24
 970 291 970 291 973 350 c 0,25,26
 979 468 979 468 979 618 c 128,-1,27
 979 768 979 768 973.5 837 c 128,-1,28
 968 906 968 906 946 949 c 0,29,30
 906 1031 906 1031 763 1031 c 0,31,32
 633 1031 633 1031 491 945 c 1,33,-1
 441 914 l 1,34,-1
 441 240 l 2,35,36
 441 147 441 147 456 128 c 128,-1,37
 471 109 471 109 490.5 105.5 c 128,-1,38
 510 102 510 102 533 102 c 0,39,40
 584 102 584 102 622 111 c 1,41,-1
 606 0 l 1,42,-1
 95 0 l 1,43,-1
 111 102 l 1,44,45
 195 102 195 102 223 144 c 0,46,47
 255 192 255 192 255 345 c 2,48,-1
 255 830 l 2,49,50
 255 950 255 950 225 990 c 0,51,52
 195 1031 195 1031 91 1031 c 1,53,-1
 107 1155 l 1,54,-1
 456 1209 l 1,55,56
 441 1119 441 1119 441 1025 c 1,0,1
EndSplineSet
EndChar

StartChar: o
Encoding: 111 111 101
Width: 1365
GlyphClass: 2
Flags: W
LayerCount: 2
Fore
SplineSet
120 572 m 2,0,1
 120 719 120 719 175 842.5 c 128,-1,2
 230 966 230 966 312 1046 c 0,3,4
 479 1209 479 1209 725 1209 c 0,5,6
 967 1209 967 1209 1108 1047 c 0,7,8
 1244 892 1244 892 1244 643 c 0,9,10
 1244 632 1244 632 1244 621 c 0,11,12
 1244 482 1244 482 1191 358 c 128,-1,13
 1138 234 1138 234 1058 154 c 0,14,15
 889 -15 889 -15 640 -15 c 0,16,17
 397 -15 397 -15 255 148 c 0,18,19
 120 302 120 302 120 550 c 2,20,-1
 120 572 l 2,0,1
685 108 m 0,21,22
 763 108 763 108 823 135 c 128,-1,23
 883 162 883 162 928 218 c 1,24,25
 1023 340 1023 340 1023 566 c 0,26,27
 1023 808 1023 808 928 950 c 0,28,29
 832 1092 832 1092 670 1092 c 0,30,31
 524 1092 524 1092 436 982 c 0,32,33
 336 858 336 858 336 631 c 0,34,35
 336 394 336 394 428 254 c 0,36,37
 525 108 525 108 685 108 c 0,21,22
EndSplineSet
EndChar

StartChar: p
Encoding: 112 112 102
Width: 1365
GlyphClass: 2
Flags: W
LayerCount: 2
Fore
SplineSet
441 -170 m 1,0,-1
 442 -244 l 1,1,-1
 442 -257 l 2,2,3
 442 -346 442 -346 453 -364 c 0,4,5
 470 -392 470 -392 521.5 -392 c 128,-1,6
 573 -392 573 -392 599 -391 c 128,-1,7
 625 -390 625 -390 640.5 -389 c 128,-1,8
 656 -388 656 -388 668 -388 c 0,9,10
 695 -386 695 -386 697 -384 c 1,11,-1
 680 -510 l 1,12,-1
 70 -510 l 1,13,-1
 86 -402 l 1,14,15
 180 -402 180 -402 206 -374 c 0,16,17
 254 -324 254 -324 254 -181 c 2,18,-1
 254 849 l 2,19,20
 254 972 254 972 212 1006 c 0,21,22
 184 1029 184 1029 94 1029 c 1,23,-1
 110 1155 l 1,24,-1
 447 1209 l 1,25,26
 438 1109 438 1109 436 1048 c 1,27,28
 556 1156 556 1156 724 1196 c 0,29,30
 776 1209 776 1209 823.5 1209 c 128,-1,31
 871 1209 871 1209 924.5 1197 c 128,-1,32
 978 1185 978 1185 1027.5 1157.5 c 128,-1,33
 1077 1130 1077 1130 1120.5 1086.5 c 128,-1,34
 1164 1043 1164 1043 1196 980 c 0,35,36
 1267 843 1267 843 1267 642 c 0,37,38
 1267 370 1267 370 1111 182 c 0,39,40
 948 -15 948 -15 695 -15 c 0,41,42
 548 -15 548 -15 441 16 c 1,43,-1
 441 -170 l 1,0,-1
442 212 m 1,44,45
 485 144 485 144 630 116 c 0,46,47
 672 108 672 108 738 108 c 128,-1,48
 804 108 804 108 872.5 143 c 128,-1,49
 941 178 941 178 985 244 c 0,50,51
 1072 374 1072 374 1072 617 c 0,52,53
 1072 918 1072 918 886 1010 c 0,54,55
 819 1043 819 1043 749 1043 c 128,-1,56
 679 1043 679 1043 634 1031 c 128,-1,57
 589 1019 589 1019 550 1002 c 1,58,59
 464 967 464 967 442 942 c 1,60,-1
 442 212 l 1,44,45
EndSplineSet
EndChar

StartChar: q
Encoding: 113 113 103
Width: 1365
GlyphClass: 2
Flags: W
LayerCount: 2
Fore
SplineSet
959 145 m 1,0,1
 795 -15 795 -15 588 -15 c 0,2,3
 399 -15 399 -15 276 115 c 0,4,5
 132 266 132 266 132 552 c 0,6,7
 132 722 132 722 212 876 c 0,8,9
 289 1024 289 1024 424 1116 c 0,10,11
 561 1209 561 1209 711.5 1209 c 128,-1,12
 862 1209 862 1209 982 1170 c 1,13,-1
 1150 1209 l 1,14,15
 1137 998 1137 998 1137 718 c 2,16,-1
 1137 -252 l 2,17,18
 1137 -352 1137 -352 1149.5 -375 c 128,-1,19
 1162 -398 1162 -398 1179 -404 c 128,-1,20
 1196 -410 1196 -410 1218 -410 c 0,21,22
 1266 -410 1266 -410 1308 -402 c 1,23,-1
 1295 -511 l 1,24,-1
 710 -511 l 1,25,-1
 721 -402 l 1,26,27
 845 -402 845 -402 883.5 -377.5 c 128,-1,28
 922 -353 922 -353 937 -319 c 128,-1,29
 952 -285 952 -285 952 -228 c 2,30,-1
 952 -45 l 1,31,-1
 959 145 l 1,0,1
707 1086 m 0,32,33
 327 1086 327 1086 327 577 c 0,34,35
 327 369 327 369 433 262 c 0,36,37
 531 163 531 163 708 163 c 0,38,39
 809 163 809 163 918 227 c 0,40,41
 943 242 943 242 952 252 c 1,42,-1
 952 982 l 1,43,44
 909 1050 909 1050 778 1078 c 0,45,46
 741 1086 741 1086 707 1086 c 0,32,33
EndSplineSet
EndChar

StartChar: r
Encoding: 114 114 104
Width: 1024
GlyphClass: 2
Flags: W
LayerCount: 2
Fore
SplineSet
499 106.5 m 128,-1,1
 525 102 525 102 598 102 c 128,-1,2
 671 102 671 102 721 112 c 1,3,-1
 714 0 l 1,4,-1
 81 0 l 1,5,-1
 95 102 l 1,6,7
 183 102 183 102 214 141 c 0,8,9
 254 190 254 190 254 334 c 2,10,-1
 254 818 l 2,11,12
 254 952 254 952 224 986 c 0,13,14
 192 1023 192 1023 89 1029 c 1,15,-1
 103 1155 l 1,16,-1
 454 1209 l 1,17,18
 440 1122 440 1122 440 1029 c 1,19,20
 531 1130 531 1130 689 1189 c 0,21,22
 742 1209 742 1209 789 1209 c 0,23,24
 974 1209 974 1209 974 1039 c 0,25,26
 974 935 974 935 957.5 872.5 c 128,-1,27
 941 810 941 810 942 810 c 2,28,-1
 788 810 l 1,29,30
 791 835 791 835 794 856 c 0,31,32
 800 909 800 909 800 932.5 c 128,-1,33
 800 956 800 956 796.5 977.5 c 128,-1,34
 793 999 793 999 782 1013 c 0,35,36
 762 1041 762 1041 715.5 1041 c 128,-1,37
 669 1041 669 1041 630 1028 c 128,-1,38
 591 1015 591 1015 554 996 c 0,39,40
 480 958 480 958 440 918 c 1,41,-1
 441 245 l 2,42,43
 441 147 441 147 457 129 c 128,-1,0
 473 111 473 111 499 106.5 c 128,-1,1
EndSplineSet
EndChar

StartChar: s
Encoding: 115 115 105
Width: 1031
GlyphClass: 2
Flags: W
LayerCount: 2
Fore
SplineSet
246 26 m 2,0,1
 207 33 207 33 181 33 c 128,-1,2
 155 33 155 33 133 29 c 1,3,4
 137 218 137 218 152 340 c 1,5,-1
 268 340 l 1,6,7
 277 156 277 156 419 116 c 0,8,9
 469 102 469 102 528 102 c 128,-1,10
 587 102 587 102 627 110.5 c 128,-1,11
 667 119 667 119 694 138 c 0,12,13
 751 179 751 179 751 267 c 0,14,15
 751 393 751 393 576 469 c 2,16,-1
 479 511 l 1,17,18
 321 581 321 581 261.5 633 c 128,-1,19
 202 685 202 685 171 742.5 c 128,-1,20
 140 800 140 800 139 881 c 128,-1,21
 138 962 138 962 174.5 1023.5 c 128,-1,22
 211 1085 211 1085 270 1126 c 0,23,24
 386 1209 386 1209 550 1209 c 0,25,26
 595 1209 595 1209 648 1201 c 0,27,28
 746 1186 746 1186 785 1186 c 128,-1,29
 824 1186 824 1186 876 1199 c 1,30,31
 878 1189 878 1189 878 1121 c 128,-1,32
 878 1053 878 1053 846 882 c 1,33,-1
 736 882 l 1,34,35
 734 999 734 999 681 1048 c 0,36,37
 628 1096 628 1096 508 1096 c 0,38,39
 368 1096 368 1096 326 1004 c 0,40,41
 312 973 312 973 312 931.5 c 128,-1,42
 312 890 312 890 331.5 859 c 128,-1,43
 351 828 351 828 384 802 c 0,44,45
 433 763 433 763 520.5 724.5 c 128,-1,46
 608 686 608 686 676 652.5 c 128,-1,47
 744 619 744 619 801 574 c 0,48,49
 932 472 932 472 934 340 c 0,50,51
 936 178 936 178 810 77 c 0,52,53
 694 -15 694 -15 529 -15 c 0,54,55
 449 -15 449 -15 366 2 c 2,56,-1
 246 26 l 2,0,1
EndSplineSet
EndChar

StartChar: t
Encoding: 116 116 106
Width: 852
GlyphClass: 2
Flags: W
LayerCount: 2
Fore
SplineSet
766 205 m 1,0,-1
 807 126 l 1,1,2
 715 38 715 38 558 -2 c 0,3,4
 509 -15 509 -15 456 -15 c 128,-1,5
 403 -15 403 -15 359 -3 c 128,-1,6
 315 9 315 9 286 38 c 0,7,8
 229 94 229 94 223 236 c 1,9,-1
 223 1040 l 1,10,-1
 48 1040 l 1,11,-1
 56 1140 l 1,12,13
 196 1165 196 1165 250 1245 c 0,14,15
 293 1308 293 1308 324 1498 c 1,16,-1
 420 1498 l 1,17,-1
 420 1190 l 1,18,-1
 790 1190 l 1,19,-1
 790 1040 l 1,20,-1
 412 1040 l 1,21,-1
 412 352 l 2,22,23
 412 226 412 226 450 186 c 0,24,25
 481 152 481 152 583 152 c 128,-1,26
 685 152 685 152 766 205 c 1,0,-1
EndSplineSet
EndChar

StartChar: u
Encoding: 117 117 107
Width: 1365
GlyphClass: 2
Flags: W
LayerCount: 2
Fore
SplineSet
1184.5 161 m 128,-1,1
 1202 160 1202 160 1224.5 160 c 128,-1,2
 1247 160 1247 160 1297 180 c 1,3,-1
 1294 58 l 1,4,-1
 1008 -17 l 1,5,6
 966 71 966 71 954 149 c 1,7,8
 877 72 877 72 712 15 c 0,9,10
 549 -41 549 -41 418 4 c 0,11,12
 290 48 290 48 241 177 c 0,13,14
 216 243 216 243 216 333 c 1,15,-1
 224 900 l 1,16,17
 224 1001 224 1001 192 1031 c 0,18,19
 171 1052 171 1052 97 1059 c 1,20,-1
 112 1155 l 1,21,-1
 443 1209 l 1,22,23
 440 1173 440 1173 435.5 1137.5 c 128,-1,24
 431 1102 431 1102 426.5 1058.5 c 128,-1,25
 422 1015 422 1015 417.5 960.5 c 128,-1,26
 413 906 413 906 410 832 c 0,27,28
 402 673 402 673 402 516 c 128,-1,29
 402 359 402 359 412.5 303.5 c 128,-1,30
 423 248 423 248 448 214 c 0,31,32
 495 148 495 148 611 148 c 0,33,34
 768 148 768 148 896 228 c 0,35,36
 928 248 928 248 941 264 c 1,37,-1
 941 890 l 2,38,39
 941 997 941 997 900 1028 c 0,40,41
 866 1053 866 1053 756 1055 c 1,42,-1
 771 1155 l 1,43,-1
 1146 1209 l 1,44,45
 1143 1150 1143 1150 1140 1110 c 128,-1,46
 1137 1070 1137 1070 1135 1040 c 128,-1,47
 1133 1010 1133 1010 1131.5 985 c 128,-1,48
 1130 960 1130 960 1129 932 c 0,49,50
 1127 878 1127 878 1127 782 c 2,51,-1
 1127 304 l 2,52,53
 1127 200 1127 200 1154 174 c 0,54,0
 1167 162 1167 162 1184.5 161 c 128,-1,1
EndSplineSet
EndChar

StartChar: v
Encoding: 118 118 108
Width: 1196
GlyphClass: 2
Flags: W
LayerCount: 2
Fore
SplineSet
1165 1084 m 1,0,1
 1155 1086 1155 1086 1140.5 1086 c 128,-1,2
 1126 1086 1126 1086 1112 1072.5 c 128,-1,3
 1098 1059 1098 1059 1084 1034.5 c 128,-1,4
 1070 1010 1070 1010 1056 976 c 2,5,-1
 1026 904 l 2,6,7
 1021 891 1021 891 1002 846 c 2,8,-1
 640 8 l 1,9,-1
 563 -17 l 1,10,-1
 140 931 l 2,11,12
 121 975 121 975 107.5 1004.5 c 128,-1,13
 94 1034 94 1034 67.5 1060.5 c 128,-1,14
 41 1087 41 1087 5 1087 c 0,15,16
 1 1087 1 1087 -2.5 1086.5 c 128,-1,17
 -6 1086 -6 1086 -9 1086 c 1,18,-1
 5 1190 l 1,19,-1
 497 1190 l 1,20,-1
 482 1087 l 1,21,22
 474 1085 474 1085 456 1085 c 2,23,-1
 430 1085 l 2,24,25
 375 1085 375 1085 346 1042 c 0,26,27
 335 1024 335 1024 335 999.5 c 128,-1,28
 335 975 335 975 352 925 c 128,-1,29
 369 875 369 875 395 810 c 1,30,-1
 568 407 l 1,31,32
 593 352 593 352 601 330 c 128,-1,33
 609 308 609 308 612.5 284 c 128,-1,34
 616 260 616 260 621 246 c 1,35,-1
 862 844 l 1,36,37
 906 958 906 958 906 987 c 128,-1,38
 906 1016 906 1016 900.5 1031.5 c 128,-1,39
 895 1047 895 1047 884 1060 c 1,40,41
 858 1087 858 1087 810 1087 c 0,42,43
 797 1087 797 1087 779 1084.5 c 128,-1,44
 761 1082 761 1082 751 1081 c 1,45,-1
 768 1190 l 1,46,-1
 1183 1190 l 1,47,-1
 1165 1084 l 1,0,1
EndSplineSet
EndChar

StartChar: w
Encoding: 119 119 109
Width: 1877
GlyphClass: 2
Flags: W
LayerCount: 2
Fore
SplineSet
1854 1082 m 1,0,1
 1843 1086 1843 1086 1822.5 1086 c 128,-1,2
 1802 1086 1802 1086 1783.5 1070 c 128,-1,3
 1765 1054 1765 1054 1748 1026 c 0,4,5
 1721 982 1721 982 1685 880 c 2,6,-1
 1367 0 l 1,7,-1
 1261 -17 l 1,8,-1
 1026 626 l 1,9,-1
 980 745 l 1,10,11
 964 790 964 790 962 846 c 1,12,-1
 668 0 l 1,13,-1
 562 -17 l 1,14,-1
 200 936 l 1,15,16
 184 981 184 981 178.5 997 c 128,-1,17
 173 1013 173 1013 158 1033 c 128,-1,18
 143 1053 143 1053 124 1064 c 0,19,20
 89 1085 89 1085 28 1085 c 1,21,-1
 43 1189 l 1,22,-1
 582 1189 l 1,23,-1
 563 1079 l 1,24,25
 529 1085 529 1085 486 1085 c 128,-1,26
 443 1085 443 1085 416 1070 c 128,-1,27
 389 1055 389 1055 389 1013 c 128,-1,28
 389 971 389 971 399 927 c 128,-1,29
 409 883 409 883 425 831.5 c 128,-1,30
 441 780 441 780 462 724 c 2,31,-1
 584 400 l 2,32,33
 588 389 588 389 593 372 c 2,34,-1
 604 336 l 2,35,36
 609 321 609 321 613 299 c 2,37,-1
 619 266 l 2,38,39
 621 255 621 255 621 250 c 1,40,41
 793 693 793 693 835 828 c 2,42,-1
 895 1019 l 2,43,44
 900 1036 900 1036 905 1057.5 c 128,-1,45
 910 1079 910 1079 915 1100 c 0,46,47
 922 1132 922 1132 929 1172 c 1,48,49
 990 1172 990 1172 1047 1189 c 1,50,51
 1090 975 1090 975 1222 600 c 1,52,-1
 1310 354 l 2,53,54
 1316 337 1316 337 1320 324 c 2,55,-1
 1327 302 l 2,56,57
 1339 262 1339 262 1339 250 c 1,58,-1
 1558 901 l 2,59,60
 1576 955 1576 955 1576 1007 c 0,61,62
 1576 1086 1576 1086 1477 1086 c 0,63,64
 1460 1086 1460 1086 1447 1084 c 128,-1,65
 1434 1082 1434 1082 1417 1080 c 1,66,-1
 1434 1190 l 1,67,-1
 1872 1190 l 1,68,-1
 1854 1082 l 1,0,1
EndSplineSet
EndChar

StartChar: x
Encoding: 120 120 110
Width: 1364
GlyphClass: 2
Flags: W
LayerCount: 2
Fore
SplineSet
749 0 m 1,0,1
 752 53 752 53 761 102 c 1,2,3
 820 102 820 102 851.5 110.5 c 128,-1,4
 883 119 883 119 883 145 c 256,5,6
 883 171 883 171 844 225 c 1,7,-1
 756 343 l 1,8,-1
 646 481 l 1,9,10
 615 443 615 443 588 406 c 0,11,12
 488 263 488 263 471.5 241 c 128,-1,13
 455 219 455 219 444 202 c 0,14,15
 417 163 417 163 417 144 c 0,16,17
 417 114 417 114 472 104 c 0,18,19
 486 102 486 102 501 102 c 0,20,21
 542 102 542 102 562 111 c 1,22,-1
 549 0 l 1,23,-1
 85 0 l 1,24,-1
 97 102 l 1,25,26
 155 102 155 102 178 111.5 c 128,-1,27
 201 121 201 121 218 134 c 128,-1,28
 235 147 235 147 255 169.5 c 128,-1,29
 275 192 275 192 300 224 c 0,30,31
 381 330 381 330 403 357 c 0,32,33
 531 513 531 513 574 570 c 1,34,-1
 415 766 l 1,35,-1
 218 1018 l 1,36,37
 168 1085 168 1085 78 1085 c 1,38,-1
 90 1189 l 1,39,-1
 600 1189 l 1,40,-1
 586 1080 l 1,41,42
 568 1085 568 1085 535 1085 c 0,43,44
 456 1085 456 1085 456 1038 c 0,45,46
 456 992 456 992 518 910 c 1,47,48
 643 749 643 749 703 677 c 1,49,-1
 820 815 l 2,50,51
 954 972 954 972 954 1036 c 0,52,53
 954 1085 954 1085 886 1085 c 0,54,55
 873 1085 873 1085 858 1084 c 2,56,-1
 825 1080 l 1,57,-1
 841 1189 l 1,58,-1
 1272 1189 l 1,59,-1
 1256 1085 l 1,60,61
 1206 1085 1206 1085 1164 1050 c 0,62,63
 1103 998 1103 998 1050 929 c 1,64,-1
 777 589 l 1,65,-1
 1020 294 l 1,66,-1
 1134 151 l 1,67,68
 1170 102 1170 102 1232 102 c 0,69,70
 1262 102 1262 102 1283 111 c 1,71,-1
 1269 0 l 1,72,-1
 749 0 l 1,0,1
EndSplineSet
EndChar

StartChar: y
Encoding: 121 121 111
Width: 1193
GlyphClass: 2
Flags: W
LayerCount: 2
Fore
SplineSet
146 -262 m 1,0,1
 266 -328 266 -328 329.5 -328 c 128,-1,2
 393 -328 393 -328 428 -305 c 128,-1,3
 463 -282 463 -282 490 -247 c 0,4,5
 534 -192 534 -192 559 -126 c 2,6,-1
 614 15 l 1,7,-1
 525 56 l 1,8,-1
 176 916 l 2,9,10
 157 962 157 962 143 998 c 128,-1,11
 129 1034 129 1034 96 1058 c 128,-1,12
 63 1082 63 1082 43 1082 c 128,-1,13
 23 1082 23 1082 19.5 1081.5 c 128,-1,14
 16 1081 16 1081 13 1081 c 1,15,-1
 27 1189 l 1,16,-1
 521 1189 l 1,17,-1
 507 1082 l 1,18,19
 499 1080 499 1080 480 1080 c 2,20,-1
 445 1080 l 2,21,22
 394 1080 394 1080 370 1040 c 0,23,24
 360 1023 360 1023 360 998 c 128,-1,25
 360 973 360 973 376.5 918.5 c 128,-1,26
 393 864 393 864 420 790 c 1,27,-1
 669 158 l 1,28,29
 771 434 771 434 794 500 c 2,30,-1
 944 940 l 1,31,-1
 954 980 l 2,32,33
 959 999 959 999 959 1016 c 0,34,35
 959 1082 959 1082 864 1082 c 0,36,37
 855 1082 855 1082 828 1079 c 128,-1,38
 801 1076 801 1076 796 1076 c 1,39,-1
 813 1189 l 1,40,-1
 1261 1189 l 1,41,-1
 1244 1079 l 1,42,43
 1234 1081 1234 1081 1217 1081 c 128,-1,44
 1200 1081 1200 1081 1186 1068 c 128,-1,45
 1172 1055 1172 1055 1157.5 1032 c 128,-1,46
 1143 1009 1143 1009 1128 976 c 1,47,48
 1018 712 1018 712 965 569 c 0,49,50
 762 26 762 26 719 -80.5 c 128,-1,51
 676 -187 676 -187 644 -257.5 c 128,-1,52
 612 -328 612 -328 581.5 -374 c 128,-1,53
 551 -420 551 -420 514 -452 c 0,54,55
 437 -520 437 -520 338 -520 c 0,56,57
 235 -520 235 -520 134 -429 c 0,58,59
 104 -402 104 -402 82 -372 c 1,60,-1
 146 -262 l 1,0,1
EndSplineSet
EndChar

StartChar: z
Encoding: 122 122 112
Width: 1195
GlyphClass: 2
Flags: W
LayerCount: 2
Fore
SplineSet
809 1073 m 1,0,-1
 663 1074 l 1,1,2
 452 1074 452 1074 374 1042 c 0,3,4
 283 1004 283 1004 269 850 c 1,5,-1
 153 850 l 1,6,-1
 188 1190 l 1,7,-1
 1053 1190 l 1,8,-1
 1071 1090 l 1,9,10
 1060 1078 1060 1078 1048 1063 c 2,11,-1
 1023 1030 l 2,12,13
 1009 1012 1009 1012 982 974 c 2,14,-1
 689 564 l 1,15,-1
 474 250 l 1,16,17
 425 175 425 175 388 112 c 1,18,-1
 596 114 l 2,19,20
 785 116 785 116 857 147 c 0,21,22
 955 189 955 189 995 384 c 1,23,-1
 1107 384 l 1,24,-1
 1060 0 l 1,25,-1
 163 0 l 1,26,-1
 124 86 l 1,27,28
 653 835 653 835 713 924.5 c 128,-1,29
 773 1014 773 1014 809 1073 c 1,0,-1
EndSplineSet
EndChar

StartChar: braceleft
Encoding: 123 123 113
Width: 1085
GlyphClass: 2
Flags: W
LayerCount: 2
Fore
SplineSet
628 -204.5 m 128,-1,1
 667 -218 667 -218 723.5 -218 c 128,-1,2
 780 -218 780 -218 816 -201 c 1,3,-1
 814 -334 l 1,4,5
 774 -338 774 -338 709 -338 c 128,-1,6
 644 -338 644 -338 569.5 -306 c 128,-1,7
 495 -274 495 -274 442 -219 c 0,8,9
 330 -103 330 -103 330 66 c 0,10,11
 330 144 330 144 369.5 247 c 128,-1,12
 409 350 409 350 427 406 c 128,-1,13
 445 462 445 462 445 515.5 c 128,-1,14
 445 569 445 569 432.5 605.5 c 128,-1,15
 420 642 420 642 392 666 c 0,16,17
 334 714 334 714 202 714 c 1,18,-1
 202 838 l 1,19,20
 395 838 395 838 432 946 c 0,21,22
 445 983 445 983 445 1037.5 c 128,-1,23
 445 1092 445 1092 427 1148 c 128,-1,24
 409 1204 409 1204 388 1259 c 0,25,26
 330 1406 330 1406 330 1487.5 c 128,-1,27
 330 1569 330 1569 359.5 1642.5 c 128,-1,28
 389 1716 389 1716 442 1771 c 0,29,30
 557 1890 557 1890 733 1890 c 0,31,32
 774 1890 774 1890 814 1886 c 1,33,-1
 816 1753 l 1,34,35
 780 1770 780 1770 723.5 1770 c 128,-1,36
 667 1770 667 1770 628 1756.5 c 128,-1,37
 589 1743 589 1743 565 1716 c 0,38,39
 521 1665 521 1665 521 1547 c 0,40,41
 521 1469 521 1469 557 1366.5 c 128,-1,42
 593 1264 593 1264 609.5 1207.5 c 128,-1,43
 626 1151 626 1151 626 1072.5 c 128,-1,44
 626 994 626 994 577.5 910.5 c 128,-1,45
 529 827 529 827 442 776 c 1,46,47
 530 724 530 724 578 641 c 128,-1,48
 626 558 626 558 626 479 c 128,-1,49
 626 400 626 400 609.5 344 c 128,-1,50
 593 288 593 288 574 232 c 0,51,52
 521 83 521 83 521 15.5 c 128,-1,53
 521 -52 521 -52 531 -94 c 128,-1,54
 541 -136 541 -136 565 -163.5 c 128,-1,0
 589 -191 589 -191 628 -204.5 c 128,-1,1
EndSplineSet
EndChar

StartChar: bar
Encoding: 124 124 114
Width: 855
GlyphClass: 2
Flags: W
LayerCount: 2
Fore
SplineSet
357 1870 m 1,0,-1
 497 1870 l 1,1,-1
 497 -340 l 1,2,-1
 357 -340 l 1,3,-1
 357 1870 l 1,0,-1
EndSplineSet
EndChar

StartChar: asciitilde
Encoding: 126 126 116
Width: 1024
GlyphClass: 2
Flags: W
LayerCount: 2
Fore
SplineSet
117 605 m 1,0,1
 130 638 130 638 170.5 675.5 c 128,-1,2
 211 713 211 713 237 728 c 0,3,4
 298 762 298 762 351.5 754 c 128,-1,5
 405 746 405 746 450 725.5 c 128,-1,6
 495 705 495 705 536 682 c 2,7,-1
 612 639 l 2,8,9
 658 614 658 614 678 614 c 2,10,-1
 704 614 l 2,11,12
 752 614 752 614 788 645 c 1,13,-1
 830 679 l 2,14,15
 838 686 838 686 843 692 c 1,16,-1
 901 595 l 1,17,18
 888 562 888 562 847.5 524.5 c 128,-1,19
 807 487 807 487 781 472 c 0,20,21
 720 438 720 438 671.5 445.5 c 128,-1,22
 623 453 623 453 581 473 c 128,-1,23
 539 493 539 493 497 516 c 2,24,-1
 416 560 l 1,25,26
 363 587 363 587 329 587 c 128,-1,27
 295 587 295 587 279.5 583 c 128,-1,28
 264 579 264 579 252 572 c 128,-1,29
 240 565 240 565 230 556 c 2,30,-1
 208 538 l 1,31,-1
 176 507 l 1,32,-1
 117 605 l 1,0,1
EndSplineSet
EndChar

StartChar: cent
Encoding: 162 162 119
Width: 1191
GlyphClass: 2
Flags: W
LayerCount: 2
Fore
SplineSet
715 159 m 0,0,1
 876 159 876 159 1035 246 c 1,2,-1
 1070 171 l 1,3,4
 1025 120 1025 120 945 74 c 0,5,6
 784 -17 784 -17 655 -17 c 0,7,8
 623 -17 623 -17 592 -14 c 1,9,-1
 564 -251 l 1,10,-1
 457 -251 l 1,11,-1
 487 6 l 1,12,13
 321 55 321 55 226 192 c 0,14,15
 127 333 127 333 127 539 c 0,16,17
 127 818 127 818 274 999 c 0,18,19
 413 1169 413 1169 630 1202 c 1,20,-1
 659 1444 l 1,21,-1
 767 1444 l 1,22,-1
 739 1209 l 1,23,24
 871 1207 871 1207 995 1167 c 0,25,26
 1023 1158 1023 1158 1045 1153 c 1,27,28
 1052 1136 1052 1136 1052 1080.5 c 128,-1,29
 1052 1025 1052 1025 1049.5 993.5 c 128,-1,30
 1047 962 1047 962 1043.5 932.5 c 128,-1,31
 1040 903 1040 903 1036 880 c 2,32,-1
 1030 844 l 1,33,34
 1024 837 1024 837 975 837 c 0,35,36
 912 837 912 837 895 844 c 1,37,38
 895 952 895 952 872 994 c 0,39,40
 828 1074 828 1074 724 1089 c 1,41,-1
 614 169 l 1,42,43
 660 159 660 159 715 159 c 0,0,1
616 1088 m 1,44,45
 489 1065 489 1065 410 946 c 0,46,47
 325 816 325 816 325 610 c 0,48,49
 325 309 325 309 511 206 c 1,50,-1
 616 1088 l 1,44,45
EndSplineSet
EndChar

StartChar: sterling
Encoding: 163 163 120
Width: 1535
GlyphClass: 2
Flags: W
LayerCount: 2
Fore
SplineSet
1144 421 m 1,0,-1
 1244 471 l 1,1,2
 1319 422 1319 422 1360 356 c 0,3,4
 1382 322 1382 322 1382 265.5 c 128,-1,5
 1382 209 1382 209 1355 149.5 c 128,-1,6
 1328 90 1328 90 1278 48 c 0,7,8
 1172 -40 1172 -40 994 -40 c 0,9,10
 913 -40 913 -40 855 -13.5 c 128,-1,11
 797 13 797 13 764 31.5 c 128,-1,12
 731 50 731 50 697 66 c 0,13,14
 618 103 618 103 554 103 c 0,15,16
 411 103 411 103 242 -30 c 1,17,18
 230 -38 230 -38 207 1 c 0,19,20
 163 77 163 77 169 109 c 1,21,22
 214 132 214 132 259.5 151.5 c 128,-1,23
 305 171 305 171 340 193.5 c 128,-1,24
 375 216 375 216 409 244.5 c 128,-1,25
 443 273 443 273 469 310 c 0,26,27
 525 391 525 391 525 505 c 0,28,29
 525 553 525 553 460 718 c 1,30,31
 325 714 325 714 190 704 c 1,32,-1
 218 844 l 1,33,-1
 317 840 l 2,34,35
 366 838 366 838 416 837 c 1,36,37
 359 996 359 996 359 1096.5 c 128,-1,38
 359 1197 359 1197 393.5 1283 c 128,-1,39
 428 1369 428 1369 493 1434 c 0,40,41
 634 1573 634 1573 866 1573 c 0,42,43
 918 1573 918 1573 1017 1557.5 c 128,-1,44
 1116 1542 1116 1542 1172.5 1496.5 c 128,-1,45
 1229 1451 1229 1451 1229 1390 c 0,46,47
 1229 1315 1229 1315 1191 1246 c 0,48,49
 1179 1225 1179 1225 1165 1214 c 1,50,-1
 1056 1214 l 1,51,52
 1056 1374 1056 1374 931 1436 c 0,53,54
 879 1461 879 1461 817.5 1460.5 c 128,-1,55
 756 1460 756 1460 714 1441 c 128,-1,56
 672 1422 672 1422 636 1388 c 0,57,58
 554 1311 554 1311 554 1211 c 0,59,60
 554 1092 554 1092 618 926 c 2,61,-1
 653 835 l 1,62,63
 898 835 898 835 1101 844 c 1,64,-1
 1073 704 l 1,65,66
 898 717 898 717 693 721 c 1,67,68
 724 619 724 619 724 546 c 128,-1,69
 724 473 724 473 701.5 421 c 128,-1,70
 679 369 679 369 644 324 c 0,71,72
 583 246 583 246 475 170 c 1,73,-1
 516 188 l 1,74,75
 609 230 609 230 670.5 230 c 128,-1,76
 732 230 732 230 768.5 221 c 128,-1,77
 805 212 805 212 837 198 c 128,-1,78
 869 184 869 184 898.5 168 c 128,-1,79
 928 152 928 152 959 138 c 0,80,81
 1030 106 1030 106 1076.5 106 c 128,-1,82
 1123 106 1123 106 1142.5 115.5 c 128,-1,83
 1162 125 1162 125 1176 140 c 1,84,85
 1207 170 1207 170 1207 225 c 128,-1,86
 1207 280 1207 280 1144 421 c 1,0,-1
EndSplineSet
EndChar

StartChar: currency
Encoding: 164 164 121
Width: 1535
GlyphClass: 2
Flags: W
LayerCount: 2
Fore
SplineSet
1041 353 m 1,0,1
 928 264 928 264 759 264 c 128,-1,2
 590 264 590 264 484 353 c 1,3,-1
 347 198 l 1,4,-1
 232 309 l 1,5,-1
 386 451 l 1,6,7
 315 558 315 558 315 717 c 128,-1,8
 315 876 315 876 392 981 c 1,9,-1
 232 1130 l 1,10,-1
 351 1249 l 1,11,-1
 498 1083 l 1,12,13
 609 1169 609 1169 769 1169 c 0,14,15
 936 1169 936 1169 1041 1085 c 1,16,-1
 1184 1247 l 1,17,-1
 1298 1130 l 1,18,-1
 1138 987 l 1,19,20
 1217 863 1217 863 1217 717 c 128,-1,21
 1217 571 1217 571 1144 458 c 1,22,-1
 1303 309 l 1,23,-1
 1188 195 l 1,24,-1
 1041 353 l 1,0,1
471 716 m 0,25,26
 471 638 471 638 493 577.5 c 128,-1,27
 515 517 515 517 554 476 c 0,28,29
 632 392 632 392 769 392 c 0,30,31
 973 392 973 392 1037 576 c 0,32,33
 1058 637 1058 637 1058 716.5 c 128,-1,34
 1058 796 1058 796 1035.5 857 c 128,-1,35
 1013 918 1013 918 973 958 c 0,36,37
 893 1039 893 1039 762.5 1039 c 128,-1,38
 632 1039 632 1039 553 956 c 0,39,40
 471 871 471 871 471 716 c 0,25,26
EndSplineSet
EndChar

StartChar: yen
Encoding: 165 165 122
Width: 1625
GlyphClass: 2
Flags: W
LayerCount: 2
Fore
SplineSet
1057 103 m 1,0,1
 1139 103 1139 103 1175 112 c 1,2,-1
 1165 0 l 1,3,-1
 473 0 l 1,4,-1
 482 112 l 1,5,-1
 590 108 l 1,6,7
 657 108 657 108 678 127 c 0,8,9
 715 162 715 162 715 241 c 2,10,-1
 714 376 l 1,11,12
 546 372 546 372 377 360 c 1,13,-1
 405 500 l 1,14,15
 558 492 558 492 714 491 c 1,16,-1
 713 691 l 1,17,-1
 620 691 l 2,18,19
 448 691 448 691 364 684 c 1,20,-1
 392 824 l 1,21,22
 451 821 451 821 509.5 814.5 c 128,-1,23
 568 808 568 808 628 802 c 1,24,25
 576 869 576 869 529 936 c 0,26,27
 295 1274 295 1274 258.5 1322 c 128,-1,28
 222 1370 222 1370 204 1384 c 128,-1,29
 186 1398 186 1398 164 1406 c 0,30,31
 127 1418 127 1418 52 1418 c 1,32,-1
 67 1530 l 1,33,-1
 708 1530 l 1,34,-1
 682 1418 l 1,35,36
 566 1418 566 1418 538 1408.5 c 128,-1,37
 510 1399 510 1399 500.5 1385 c 128,-1,38
 491 1371 491 1371 491 1343 c 128,-1,39
 491 1315 491 1315 518 1262 c 128,-1,40
 545 1209 545 1209 588 1142 c 1,41,-1
 797 841 l 1,42,-1
 824 791 l 1,43,-1
 1018 1094 l 2,44,45
 1124 1258 1124 1258 1131 1313 c 0,46,47
 1133 1328 1133 1328 1138 1344.5 c 128,-1,48
 1143 1361 1143 1361 1143 1375 c 0,49,50
 1143 1418 1143 1418 1076 1418 c 0,51,52
 1034 1418 1034 1418 982 1408 c 1,53,-1
 997 1530 l 1,54,-1
 1543 1530 l 1,55,-1
 1524 1418 l 1,56,57
 1429 1418 1429 1418 1387 1393 c 0,58,59
 1314 1349 1314 1349 1266 1250 c 1,60,-1
 978 797 l 1,61,62
 1069 803 1069 803 1163 811.5 c 128,-1,63
 1257 820 1257 820 1335 824 c 1,64,-1
 1307 684 l 1,65,66
 1215 691 1215 691 1031 691 c 2,67,-1
 933 691 l 1,68,-1
 933 491 l 1,69,70
 1176 494 1176 494 1288 500 c 1,71,-1
 1260 360 l 1,72,73
 1090 372 1090 372 933 376 c 1,74,-1
 933 238 l 2,75,76
 933 146 933 146 942 129 c 0,77,78
 958 102 958 102 1021 102 c 1,79,-1
 1057 103 l 1,0,1
EndSplineSet
EndChar

StartChar: brokenbar
Encoding: 166 166 123
Width: 855
GlyphClass: 2
Flags: W
LayerCount: 2
Fore
SplineSet
357 1870 m 1,0,-1
 497 1870 l 1,1,-1
 497 906 l 1,2,-1
 357 906 l 1,3,-1
 357 1870 l 1,0,-1
357 612 m 1,4,-1
 497 612 l 1,5,-1
 497 -340 l 1,6,-1
 357 -340 l 1,7,-1
 357 612 l 1,4,-1
EndSplineSet
EndChar

StartChar: section
Encoding: 167 167 124
Width: 1320
GlyphClass: 2
Flags: W
LayerCount: 2
Fore
SplineSet
960 466 m 1,0,1
 1079 349 1079 349 1079 195 c 0,2,3
 1079 37 1079 37 948 -69 c 0,4,5
 821 -172 821 -172 626 -172 c 0,6,7
 568 -172 568 -172 499 -165 c 128,-1,8
 430 -158 430 -158 366 -158 c 128,-1,9
 302 -158 302 -158 256 -161 c 1,10,-1
 289 199 l 1,11,-1
 390 207 l 1,12,13
 410 50 410 50 460 -9 c 1,14,15
 511 -71 511 -71 611 -71 c 128,-1,16
 711 -71 711 -71 763.5 -54 c 128,-1,17
 816 -37 816 -37 845 -8 c 0,18,19
 896 42 896 42 896 141 c 0,20,21
 896 292 896 292 764 364 c 0,22,23
 722 386 722 386 652 410 c 1,24,-1
 502 459 l 1,25,26
 334 515 334 515 260 610 c 1,27,28
 199 686 199 686 199 790 c 0,29,30
 199 908 199 908 289 1006 c 0,31,32
 316 1036 316 1036 347 1059 c 1,33,34
 235 1180 235 1180 235 1334 c 0,35,36
 235 1493 235 1493 366 1598 c 0,37,38
 496 1701 496 1701 688 1701 c 0,39,40
 746 1701 746 1701 814.5 1694 c 128,-1,41
 883 1687 883 1687 946.5 1687 c 128,-1,42
 1010 1687 1010 1687 1057 1690 c 1,43,-1
 1025 1330 l 1,44,-1
 925 1322 l 1,45,46
 904 1480 904 1480 856 1539 c 1,47,48
 804 1601 804 1601 703 1601 c 128,-1,49
 602 1601 602 1601 550.5 1580 c 128,-1,50
 499 1559 499 1559 470 1527 c 0,51,52
 419 1472 419 1472 419 1398.5 c 128,-1,53
 419 1325 419 1325 435.5 1280.5 c 128,-1,54
 452 1236 452 1236 482 1204 c 0,55,56
 534 1148 534 1148 635 1115 c 2,57,-1
 815 1056 l 2,58,59
 983 1001 983 1001 1058 906 c 0,60,61
 1119 829 1119 829 1119 722 c 0,62,63
 1119 568 1119 568 960 466 c 1,0,1
442 979 m 1,64,65
 359 911 359 911 373.5 844.5 c 128,-1,66
 388 778 388 778 424 744.5 c 128,-1,67
 460 711 460 711 512 687 c 128,-1,68
 564 663 564 663 628 643 c 128,-1,69
 692 623 692 623 739 603 c 0,70,71
 812 572 812 572 858 544 c 1,72,73
 891 565 891 565 913 589 c 128,-1,74
 935 613 935 613 935 638.5 c 128,-1,75
 935 664 935 664 927 697 c 128,-1,76
 919 730 919 730 884.5 764.5 c 128,-1,77
 850 799 850 799 800 824.5 c 128,-1,78
 750 850 750 850 688 872 c 2,79,-1
 558 920 l 2,80,81
 497 942 497 942 442 979 c 1,64,65
EndSplineSet
EndChar

StartChar: dieresis
Encoding: 168 168 125
Width: 1025
GlyphClass: 2
Flags: W
LayerCount: 2
Fore
SplineSet
602 1531 m 128,-1,1
 602 1576 602 1576 613.5 1603.5 c 128,-1,2
 625 1631 625 1631 645 1652 c 0,3,4
 687 1695 687 1695 751 1695 c 0,5,6
 810 1695 810 1695 851.5 1651.5 c 128,-1,7
 893 1608 893 1608 893 1544 c 0,8,9
 893 1486 893 1486 851.5 1444.5 c 128,-1,10
 810 1403 810 1403 764 1403 c 0,11,12
 688 1403 688 1403 645 1444.5 c 128,-1,0
 602 1486 602 1486 602 1531 c 128,-1,1
338.5 1414 m 128,-1,14
 313 1403 313 1403 282 1403 c 128,-1,15
 251 1403 251 1403 223.5 1414 c 128,-1,16
 196 1425 196 1425 176 1444 c 0,17,18
 132 1486 132 1486 132 1531 c 128,-1,19
 132 1576 132 1576 143.5 1603.5 c 128,-1,20
 155 1631 155 1631 176 1652 c 0,21,22
 219 1695 219 1695 283 1695 c 0,23,24
 375 1695 375 1695 412 1604 c 0,25,26
 423 1576 423 1576 423 1545.5 c 128,-1,27
 423 1515 423 1515 412 1489.5 c 128,-1,28
 401 1464 401 1464 382.5 1444.5 c 128,-1,13
 364 1425 364 1425 338.5 1414 c 128,-1,14
EndSplineSet
EndChar

StartChar: copyright
Encoding: 169 169 126
Width: 2044
GlyphClass: 2
Flags: W
LayerCount: 2
Fore
SplineSet
179 843 m 0,0,1
 179 963 179 963 209 1072.5 c 128,-1,2
 239 1182 239 1182 293.5 1276 c 128,-1,3
 348 1370 348 1370 424.5 1445.5 c 128,-1,4
 501 1521 501 1521 594 1574 c 0,5,6
 789 1686 789 1686 1019 1686 c 256,7,8
 1249 1686 1249 1686 1444 1574 c 0,9,10
 1739 1406 1739 1406 1830 1072 c 0,11,12
 1860 963 1860 963 1860 843.5 c 128,-1,13
 1860 724 1860 724 1830 615 c 128,-1,14
 1800 506 1800 506 1745.5 412.5 c 128,-1,15
 1691 319 1691 319 1614 242.5 c 128,-1,16
 1537 166 1537 166 1444 112 c 0,17,18
 1249 -2 1249 -2 1019 -2 c 256,19,20
 789 -2 789 -2 594 112 c 0,21,22
 404 222 404 222 294 412 c 0,23,24
 179 609 179 609 179 843 c 0,0,1
302 842 m 0,25,26
 302 738 302 738 327 642 c 128,-1,27
 352 546 352 546 398.5 463.5 c 128,-1,28
 445 381 445 381 510 313.5 c 128,-1,29
 575 246 575 246 654 198 c 0,30,31
 820 98 820 98 1019 98 c 0,32,33
 1217 98 1217 98 1384 198 c 0,34,35
 1633 347 1633 347 1712 642 c 0,36,37
 1737 737 1737 737 1737 842 c 0,38,39
 1737 1046 1737 1046 1640 1221 c 0,40,41
 1548 1388 1548 1388 1384 1486 c 0,42,43
 1217 1586 1217 1586 1019 1586 c 0,44,45
 719 1586 719 1586 510 1371 c 0,46,47
 302 1157 302 1157 302 842 c 0,25,26
590 609 m 128,-1,49
 550 694 550 694 550 800.5 c 128,-1,50
 550 907 550 907 582 997 c 128,-1,51
 614 1087 614 1087 677 1158 c 0,52,53
 817 1314 817 1314 1053 1314 c 0,54,55
 1173 1314 1173 1314 1369 1289 c 1,56,-1
 1340 1040 l 1,57,-1
 1254 1040 l 1,58,59
 1223 1139 1223 1139 1199 1160 c 0,60,61
 1157 1197 1157 1197 1065.5 1197 c 128,-1,62
 974 1197 974 1197 915 1171 c 128,-1,63
 856 1145 856 1145 818 1098 c 0,64,65
 746 1009 746 1009 746 847 c 0,66,67
 746 558 746 558 949 504 c 0,68,69
 1009 488 1009 488 1061 488 c 128,-1,70
 1113 488 1113 488 1143.5 495.5 c 128,-1,71
 1174 503 1174 503 1198 522 c 0,72,73
 1247 561 1247 561 1282 660 c 1,74,-1
 1367 660 l 1,75,-1
 1352 547 l 2,76,77
 1349 524 1349 524 1346 502 c 2,78,-1
 1339 458 l 2,79,80
 1332 413 1332 413 1329 398 c 1,81,-1
 1303 396 l 1,82,-1
 1252 385 l 2,83,84
 1155 364 1155 364 1037.5 364 c 128,-1,85
 920 364 920 364 839.5 389.5 c 128,-1,86
 759 415 759 415 694.5 469.5 c 128,-1,48
 630 524 630 524 590 609 c 128,-1,49
EndSplineSet
EndChar

StartChar: ordfeminine
Encoding: 170 170 127
Width: 1026
GlyphClass: 2
Flags: W
LayerCount: 2
Fore
SplineSet
983 800 m 1,0,1
 961 727 961 727 865 679 c 1,2,3
 814 679 814 679 766 704 c 128,-1,4
 718 729 718 729 690 781 c 1,5,6
 596 712 596 712 470 686 c 0,7,8
 436 679 436 679 392 679 c 128,-1,9
 348 679 348 679 294.5 698.5 c 128,-1,10
 241 718 241 718 203 754 c 0,11,12
 124 827 124 827 124 949 c 0,13,14
 124 1100 124 1100 286 1185 c 0,15,16
 432 1262 432 1262 661 1264 c 1,17,18
 657 1378 657 1378 656.5 1435 c 128,-1,19
 656 1492 656 1492 640 1521.5 c 128,-1,20
 624 1551 624 1551 601 1567 c 0,21,22
 564 1593 564 1593 496 1593 c 0,23,24
 358 1593 358 1593 358 1476 c 0,25,26
 358 1451 358 1451 364 1418 c 1,27,-1
 185 1418 l 1,28,29
 164 1495 164 1495 164 1528 c 0,30,31
 164 1565 164 1565 168 1569 c 1,32,-1
 224 1601 l 1,33,34
 391 1699 391 1699 570 1699 c 0,35,36
 762 1699 762 1699 832 1576 c 1,37,38
 857 1530 857 1530 857 1480 c 128,-1,39
 857 1430 857 1430 856 1388 c 128,-1,40
 855 1346 855 1346 854 1298.5 c 128,-1,41
 853 1251 853 1251 851 1201 c 128,-1,42
 849 1151 849 1151 848 1103 c 2,43,-1
 846 1012 l 2,44,45
 845 968 845 968 845 930 c 128,-1,46
 845 892 845 892 859 865.5 c 128,-1,47
 873 839 873 839 894 824 c 0,48,49
 929 800 929 800 983 800 c 1,0,1
471 808 m 0,50,51
 566 808 566 808 663 882 c 1,52,-1
 663 897 l 1,53,54
 664 928 664 928 664 959 c 128,-1,55
 664 990 664 990 664 1026 c 2,56,-1
 664 1104 l 2,57,58
 664 1145 664 1145 663 1183 c 1,59,-1
 656 1183 l 2,60,61
 524 1183 524 1183 432 1126 c 0,62,63
 336 1066 336 1066 336 968 c 0,64,65
 336 899 336 899 364 866 c 0,66,67
 412 808 412 808 471 808 c 0,50,51
EndSplineSet
EndChar

StartChar: logicalnot
Encoding: 172 172 129
Width: 1193
GlyphClass: 2
Flags: W
LayerCount: 2
Fore
SplineSet
183 667 m 1,0,-1
 1021 667 l 1,1,-1
 1021 138 l 1,2,-1
 841 138 l 1,3,-1
 841 508 l 1,4,-1
 164 508 l 1,5,-1
 183 667 l 1,0,-1
EndSplineSet
EndChar

StartChar: registered
Encoding: 174 174 131
Width: 2039
GlyphClass: 2
Flags: W
LayerCount: 2
Fore
SplineSet
179 843 m 0,0,1
 179 963 179 963 209 1072.5 c 128,-1,2
 239 1182 239 1182 293.5 1276 c 128,-1,3
 348 1370 348 1370 424.5 1445.5 c 128,-1,4
 501 1521 501 1521 594 1574 c 0,5,6
 789 1686 789 1686 1019 1686 c 256,7,8
 1249 1686 1249 1686 1444 1574 c 0,9,10
 1739 1406 1739 1406 1830 1072 c 0,11,12
 1860 963 1860 963 1860 843.5 c 128,-1,13
 1860 724 1860 724 1830 615 c 128,-1,14
 1800 506 1800 506 1745.5 412.5 c 128,-1,15
 1691 319 1691 319 1614 242.5 c 128,-1,16
 1537 166 1537 166 1444 112 c 0,17,18
 1249 -2 1249 -2 1019 -2 c 256,19,20
 789 -2 789 -2 594 112 c 0,21,22
 404 222 404 222 294 412 c 0,23,24
 179 609 179 609 179 843 c 0,0,1
302 842 m 0,25,26
 302 738 302 738 327 642 c 128,-1,27
 352 546 352 546 398.5 463.5 c 128,-1,28
 445 381 445 381 510 313.5 c 128,-1,29
 575 246 575 246 654 198 c 0,30,31
 820 98 820 98 1019 98 c 0,32,33
 1217 98 1217 98 1384 198 c 0,34,35
 1633 347 1633 347 1712 642 c 0,36,37
 1737 737 1737 737 1737 842 c 0,38,39
 1737 1046 1737 1046 1640 1221 c 0,40,41
 1548 1388 1548 1388 1384 1486 c 0,42,43
 1217 1586 1217 1586 1019 1586 c 0,44,45
 719 1586 719 1586 510 1371 c 0,46,47
 302 1157 302 1157 302 842 c 0,25,26
1051 1334 m 1,48,49
 1368 1334 1368 1334 1368 1094 c 0,50,51
 1368 997 1368 997 1289 920 c 0,52,53
 1220 853 1220 853 1136 837 c 1,54,55
 1153 822 1153 822 1173 797 c 2,56,-1
 1343 574 l 2,57,58
 1374 534 1374 534 1410 492 c 1,59,60
 1426 476 1426 476 1464 474.5 c 128,-1,61
 1502 473 1502 473 1513 475 c 1,62,-1
 1513 368 l 1,63,-1
 1382 365 l 1,64,65
 1293 365 1293 365 1251.5 411 c 128,-1,66
 1210 457 1210 457 1170 524 c 2,67,-1
 1079 680 l 2,68,69
 1022 777 1022 777 957 788 c 0,70,71
 938 792 938 792 920 792 c 1,72,-1
 920 540 l 2,73,74
 920 492 920 492 926 480 c 0,75,76
 937 460 937 460 973 462 c 1,77,78
 1001 462 1001 462 1047 472 c 1,79,-1
 1032 364 l 1,80,-1
 646 365 l 1,81,-1
 652 466 l 1,82,83
 707 465 707 465 727 494.5 c 128,-1,84
 747 524 747 524 747 581 c 2,85,-1
 746 1150 l 2,86,87
 746 1208 746 1208 742 1218 c 0,88,89
 734 1234 734 1234 705 1234 c 2,90,-1
 635 1233 l 1,91,-1
 621 1233 l 1,92,-1
 621 1330 l 1,93,-1
 830 1330 l 1,94,-1
 1051 1334 l 1,48,49
1079.5 1219 m 128,-1,96
 1054 1225 1054 1225 1014 1225 c 128,-1,97
 974 1225 974 1225 920 1213 c 1,98,-1
 920 885 l 1,99,-1
 969 883 l 2,100,101
 993 882 993 882 1016 879 c 1,102,-1
 1014 880 l 1,103,104
 1088 884 1088 884 1134 940 c 0,105,106
 1177 992 1177 992 1177 1056 c 128,-1,107
 1177 1120 1177 1120 1163 1149.5 c 128,-1,108
 1149 1179 1149 1179 1127 1196 c 128,-1,95
 1105 1213 1105 1213 1079.5 1219 c 128,-1,96
EndSplineSet
EndChar

StartChar: macron
Encoding: 175 175 132
Width: 678
GlyphClass: 2
Flags: W
LayerCount: 2
Fore
SplineSet
-34 1621 m 1,0,-1
 720 1621 l 1,1,-1
 700 1463 l 1,2,-1
 -54 1463 l 1,3,-1
 -34 1621 l 1,0,-1
EndSplineSet
EndChar

StartChar: degree
Encoding: 176 176 133
Width: 1193
GlyphClass: 2
Flags: W
LayerCount: 2
Fore
SplineSet
596 850 m 256,0,1
 423 850 423 850 296 974 c 1,2,3
 169 1100 169 1100 169 1275 c 256,4,5
 169 1450 169 1450 296 1576 c 1,6,7
 423 1700 423 1700 596 1700 c 256,8,9
 769 1700 769 1700 895.5 1575.5 c 128,-1,10
 1022 1451 1022 1451 1022 1275 c 256,11,12
 1022 1099 1022 1099 895.5 974.5 c 128,-1,13
 769 850 769 850 596 850 c 256,0,1
596 977 m 256,14,15
 713 977 713 977 795 1061 c 0,16,17
 880 1148 880 1148 880 1275 c 256,18,19
 880 1402 880 1402 795 1489 c 0,20,21
 713 1573 713 1573 596 1573 c 256,22,23
 479 1573 479 1573 397 1489 c 0,24,25
 312 1402 312 1402 312 1275 c 256,26,27
 312 1148 312 1148 397 1061 c 0,28,29
 479 977 479 977 596 977 c 256,14,15
EndSplineSet
EndChar

StartChar: plusminus
Encoding: 177 177 134
Width: 1370
GlyphClass: 2
Flags: W
LayerCount: 2
Fore
SplineSet
179 170 m 1,0,-1
 510 170 l 1,1,-1
 510 508 l 1,2,-1
 154 508 l 1,3,-1
 174 667 l 1,4,-1
 510 667 l 1,5,-1
 510 1030 l 1,6,-1
 682 1030 l 1,7,-1
 682 667 l 1,8,-1
 1039 667 l 1,9,-1
 1019 508 l 1,10,-1
 682 508 l 1,11,-1
 682 170 l 1,12,-1
 1033 170 l 1,13,-1
 1013 11 l 1,14,-1
 159 11 l 1,15,-1
 179 170 l 1,0,-1
EndSplineSet
EndChar

StartChar: twosuperior
Encoding: 178 178 135
Width: 1026
GlyphClass: 2
Flags: W
LayerCount: 2
Fore
SplineSet
111 715 m 1,0,1
 87 733 87 733 87 784 c 1,2,3
 133 821 133 821 192 862 c 2,4,-1
 314 946 l 1,5,6
 465 1055 465 1055 528 1128 c 0,7,8
 647 1268 647 1268 647 1392 c 0,9,10
 647 1519 647 1519 550 1556 c 0,11,12
 521 1567 521 1567 474.5 1567 c 128,-1,13
 428 1567 428 1567 385 1547.5 c 128,-1,14
 342 1528 342 1528 315 1494 c 0,15,16
 263 1429 263 1429 263 1316 c 1,17,-1
 135 1316 l 1,18,19
 135 1399 135 1399 133 1472 c 128,-1,20
 131 1545 131 1545 131 1606 c 1,21,22
 149 1603 149 1603 174 1603 c 128,-1,23
 199 1603 199 1603 232 1613 c 2,24,-1
 304 1635 l 2,25,26
 409 1667 409 1667 497.5 1667 c 128,-1,27
 586 1667 586 1667 648.5 1651.5 c 128,-1,28
 711 1636 711 1636 758 1602 c 0,29,30
 857 1531 857 1531 857 1389 c 0,31,32
 857 1202 857 1202 518 962 c 0,33,34
 416 890 416 890 336 850 c 1,35,36
 486 850 486 850 573 858 c 1,37,-1
 708 872 l 1,38,39
 755 882 755 882 778.5 912.5 c 128,-1,40
 802 943 802 943 813 1006 c 1,41,-1
 938 1006 l 1,42,-1
 903 715 l 1,43,-1
 111 715 l 1,0,1
EndSplineSet
EndChar

StartChar: threesuperior
Encoding: 179 179 136
Width: 1031
GlyphClass: 2
Flags: W
LayerCount: 2
Fore
SplineSet
867 1437 m 0,0,1
 867 1288 867 1288 708 1213 c 1,2,3
 817 1193 817 1193 877 1117 c 0,4,5
 926 1055 926 1055 926 985.5 c 128,-1,6
 926 916 926 916 895.5 863.5 c 128,-1,7
 865 811 865 811 810 774 c 0,8,9
 697 697 697 697 511 697 c 0,10,11
 425 697 425 697 358 712 c 2,12,-1
 256 734 l 2,13,14
 223 741 223 741 182 741 c 1,15,16
 174 802 174 802 174 866 c 0,17,18
 174 944 174 944 181 991 c 1,19,-1
 267 991 l 1,20,21
 273 845 273 845 414 806 c 0,22,23
 458 794 458 794 516.5 794 c 128,-1,24
 575 794 575 794 616.5 809 c 128,-1,25
 658 824 658 824 682 848 c 0,26,27
 728 894 728 894 728 971 c 0,28,29
 728 1141 728 1141 502 1141 c 0,30,31
 493 1141 493 1141 484 1141 c 128,-1,32
 475 1141 475 1141 465 1140 c 2,33,-1
 429 1135 l 2,34,35
 422 1135 422 1135 414.5 1175 c 128,-1,36
 407 1215 407 1215 407 1218.5 c 128,-1,37
 407 1222 407 1222 408 1222 c 0,38,39
 554 1230 554 1230 618.5 1278 c 128,-1,40
 683 1326 683 1326 683 1420 c 0,41,42
 683 1484 683 1484 641 1528 c 0,43,44
 599 1571 599 1571 529 1571 c 0,45,46
 305 1571 305 1571 302 1367 c 1,47,-1
 196 1365 l 1,48,49
 185 1453 185 1453 185 1510.5 c 128,-1,50
 185 1568 185 1568 192 1627 c 1,51,-1
 204 1626 l 1,52,53
 234 1626 234 1626 274 1633 c 2,54,-1
 358 1648 l 2,55,56
 482 1670 482 1670 548 1670 c 128,-1,57
 614 1670 614 1670 673 1657 c 128,-1,58
 732 1644 732 1644 775 1616 c 0,59,60
 867 1556 867 1556 867 1437 c 0,0,1
684 1216 m 2,61,62
 684 1216 684 1216 683 1216 c 2,63,64
 683 1216 683 1216 684 1216 c 2,61,62
EndSplineSet
EndChar

StartChar: acute
Encoding: 180 180 137
Width: 1287
GlyphClass: 2
Flags: W
LayerCount: 2
Fore
SplineSet
592 1419 m 1,0,-1
 1016 1757 l 1,1,-1
 1133 1593 l 1,2,-1
 661 1311 l 1,3,-1
 592 1419 l 1,0,-1
EndSplineSet
EndChar

StartChar: mu
Encoding: 181 181 138
AltUni2: 0003bc.ffffffff.0
Width: 1537
GlyphClass: 2
Flags: W
LayerCount: 2
Fore
SplineSet
374 36 m 1,0,1
 412 -183 412 -183 505 -268 c 1,2,3
 505 -363 505 -363 466 -424 c 1,4,5
 434 -477 434 -477 393 -477 c 0,6,7
 351 -477 351 -477 304 -424 c 0,8,9
 249 -362 249 -362 249 -280 c 2,10,-1
 249 400 l 2,11,12
 249 460 249 460 249.5 519 c 128,-1,13
 250 578 250 578 250 637 c 2,14,-1
 252 758 l 1,15,16
 252 820 252 820 252 886 c 0,17,18
 252 1078 252 1078 209 1137 c 1,19,-1
 488 1190 l 1,20,21
 457 880 457 880 457 407 c 0,22,23
 457 259 457 259 482 209 c 128,-1,24
 507 159 507 159 543 138 c 128,-1,25
 579 117 579 117 640 117 c 0,26,27
 818 117 818 117 952 274 c 1,28,-1
 952 876 l 2,29,30
 952 1075 952 1075 913 1137 c 1,31,-1
 1169 1190 l 1,32,33
 1154 905 1154 905 1154 663 c 2,34,-1
 1154 282 l 2,35,36
 1154 163 1154 163 1191 146 c 0,37,38
 1202 141 1202 141 1214 141 c 0,39,40
 1306 141 1306 141 1369 213 c 1,41,-1
 1427 151 l 1,42,43
 1366 55 1366 55 1268 2 c 0,44,45
 1186 -42 1186 -42 1105 -42 c 0,46,47
 975 -42 975 -42 962 152 c 1,48,49
 920 83 920 83 813 25 c 0,50,51
 698 -37 698 -37 615 -37 c 0,52,53
 468 -37 468 -37 374 36 c 1,0,1
EndSplineSet
EndChar

StartChar: paragraph
Encoding: 182 182 139
Width: 1364
GlyphClass: 2
Flags: W
LayerCount: 2
Fore
SplineSet
674 511 m 1,0,1
 670 510 670 510 664 510 c 2,2,-1
 636 510 l 2,3,4
 461 510 461 510 329 596 c 0,5,6
 160 706 160 706 160 951 c 0,7,8
 160 1155 160 1155 272 1270 c 1,9,10
 357 1355 357 1355 500 1388 c 0,11,12
 579 1406 579 1406 636 1406 c 128,-1,13
 693 1406 693 1406 737 1406.5 c 128,-1,14
 781 1407 781 1407 834.5 1408 c 128,-1,15
 888 1409 888 1409 945 1410.5 c 128,-1,16
 1002 1412 1002 1412 1050 1414 c 0,17,18
 1159 1417 1159 1417 1164 1420 c 1,19,20
 1142 1332 1142 1332 1142 1077 c 2,21,-1
 1142 -170 l 1,22,-1
 986 -170 l 1,23,-1
 986 1287 l 1,24,-1
 830 1287 l 1,25,-1
 830 -170 l 1,26,-1
 674 -170 l 1,27,-1
 674 511 l 1,0,1
EndSplineSet
EndChar

StartChar: periodcentered
Encoding: 183 183 140
Width: 852
GlyphClass: 2
Flags: W
LayerCount: 2
Fore
SplineSet
425 587 m 0,0,1
 359 587 359 587 310.5 635.5 c 128,-1,2
 262 684 262 684 262 753 c 256,3,4
 262 822 262 822 310.5 870.5 c 128,-1,5
 359 919 359 919 425 919 c 0,6,7
 492 919 492 919 540.5 870.5 c 128,-1,8
 589 822 589 822 589 753 c 256,9,10
 589 684 589 684 540.5 635.5 c 128,-1,11
 492 587 492 587 425 587 c 0,0,1
EndSplineSet
EndChar

StartChar: cedilla
Encoding: 184 184 141
Width: 1707
GlyphClass: 2
Flags: W
LayerCount: 2
Fore
SplineSet
319 -313 m 1,0,1
 390 -359 390 -359 487 -359 c 0,2,3
 566 -359 566 -359 586 -312 c 0,4,5
 592 -299 592 -299 592 -278.5 c 128,-1,6
 592 -258 592 -258 573 -238 c 128,-1,7
 554 -218 554 -218 531 -198 c 128,-1,8
 508 -178 508 -178 489 -153.5 c 128,-1,9
 470 -129 470 -129 470 -82.5 c 128,-1,10
 470 -36 470 -36 515 40 c 1,11,-1
 583 40 l 1,12,13
 575 18 575 18 575 -4.5 c 128,-1,14
 575 -27 575 -27 589 -48 c 128,-1,15
 603 -69 603 -69 624 -88 c 128,-1,16
 645 -107 645 -107 670 -126 c 128,-1,17
 695 -145 695 -145 716 -168 c 0,18,19
 765 -222 765 -222 765 -284 c 128,-1,20
 765 -346 765 -346 740 -389 c 128,-1,21
 715 -432 715 -432 678 -460 c 0,22,23
 603 -517 603 -517 494 -517 c 128,-1,24
 385 -517 385 -517 319 -482 c 1,25,-1
 319 -313 l 1,0,1
EndSplineSet
EndChar

StartChar: onesuperior
Encoding: 185 185 142
Width: 855
GlyphClass: 2
Flags: W
LayerCount: 2
Fore
SplineSet
563 1084 m 1,0,-1
 562 999 l 1,1,2
 562 870 562 870 594 837 c 0,3,4
 607 823 607 823 641 823 c 0,5,6
 715 823 715 823 771 836 c 1,7,-1
 758 715 l 1,8,-1
 158 715 l 1,9,-1
 171 826 l 1,10,-1
 265 826 l 1,11,12
 340 824 340 824 355 844 c 0,13,14
 375 871 375 871 375 973 c 2,15,-1
 375 1332 l 2,16,17
 375 1409 375 1409 361.5 1440.5 c 128,-1,18
 348 1472 348 1472 321 1472 c 128,-1,19
 294 1472 294 1472 271.5 1468.5 c 128,-1,20
 249 1465 249 1465 226 1460 c 2,21,-1
 184 1450 l 2,22,23
 164 1446 164 1446 152 1443 c 1,24,-1
 124 1548 l 1,25,-1
 590 1668 l 1,26,27
 571 1611 571 1611 568 1556 c 2,28,-1
 564 1484 l 2,29,30
 563 1466 563 1466 563 1454 c 2,31,-1
 563 1084 l 1,0,-1
EndSplineSet
EndChar

StartChar: ordmasculine
Encoding: 186 186 143
Width: 1026
GlyphClass: 2
Flags: W
LayerCount: 2
Fore
SplineSet
507 680 m 0,0,1
 407 680 407 680 331.5 715 c 128,-1,2
 256 750 256 750 207 815 c 0,3,4
 109 945 109 945 113 1181 c 256,5,6
 117 1417 117 1417 225 1555 c 0,7,8
 337 1699 337 1699 530 1699 c 0,9,10
 728 1699 728 1699 830 1563 c 0,11,12
 925 1435 925 1435 921 1196 c 0,13,14
 917 962 917 962 811 823 c 0,15,16
 702 680 702 680 507 680 c 0,0,1
421 823 m 128,-1,18
 462 785 462 785 525 785 c 128,-1,19
 588 785 588 785 623.5 808.5 c 128,-1,20
 659 832 659 832 678 880 c 0,21,22
 709 957 709 957 711 1162 c 0,23,24
 713 1351 713 1351 685 1434.5 c 128,-1,25
 657 1518 657 1518 616.5 1557 c 128,-1,26
 576 1596 576 1596 513 1596.5 c 128,-1,27
 450 1597 450 1597 414.5 1572.5 c 128,-1,28
 379 1548 379 1548 359 1500 c 0,29,30
 325 1419 325 1419 323 1215 c 0,31,32
 321 1027 321 1027 350.5 944 c 128,-1,17
 380 861 380 861 421 823 c 128,-1,18
EndSplineSet
EndChar

StartChar: onequarter
Encoding: 188 188 145
Width: 2219
GlyphClass: 2
Flags: W
LayerCount: 2
Fore
SplineSet
1590 1900 m 1,0,-1
 1687 1846 l 1,1,-1
 588 -230 l 1,2,-1
 491 -176 l 1,3,-1
 1590 1900 l 1,0,-1
1650 -5 m 1,4,5
 1661 110 1661 110 1661 158 c 2,6,-1
 1661 277 l 1,7,-1
 1209 277 l 1,8,-1
 1157 390 l 1,9,-1
 1660 994 l 1,10,11
 1679 996 1679 996 1704 1000 c 2,12,-1
 1852 1020 l 1,13,-1
 1852 416 l 1,14,-1
 2095 416 l 1,15,-1
 2080 277 l 1,16,-1
 1852 277 l 1,17,-1
 1852 118 l 1,18,-1
 1854 19 l 1,19,20
 1832 14 1832 14 1805.5 9.5 c 128,-1,21
 1779 5 1779 5 1752 0 c 2,22,-1
 1701 -8 l 1,23,24
 1676 -13 1676 -13 1656 -17 c 1,25,-1
 1650 -5 l 1,4,5
1661 415 m 1,26,-1
 1661 862 l 1,27,-1
 1318 417 l 1,28,-1
 1661 415 l 1,26,-1
648 1084 m 1,29,-1
 647 999 l 1,30,31
 647 870 647 870 678 837 c 0,32,33
 692 823 692 823 726 823 c 0,34,35
 800 823 800 823 856 836 c 1,36,-1
 843 715 l 1,37,-1
 243 715 l 1,38,-1
 256 826 l 1,39,-1
 350 826 l 1,40,41
 425 824 425 824 440 844 c 0,42,43
 460 871 460 871 460 973 c 2,44,-1
 460 1332 l 2,45,46
 460 1409 460 1409 446.5 1440.5 c 128,-1,47
 433 1472 433 1472 406 1472 c 128,-1,48
 379 1472 379 1472 356.5 1468.5 c 128,-1,49
 334 1465 334 1465 312 1460 c 2,50,-1
 269 1450 l 2,51,52
 249 1446 249 1446 237 1443 c 1,53,-1
 209 1548 l 1,54,-1
 675 1668 l 1,55,56
 656 1611 656 1611 653 1556 c 2,57,-1
 649 1484 l 2,58,59
 648 1466 648 1466 648 1454 c 2,60,-1
 648 1084 l 1,29,-1
EndSplineSet
EndChar

StartChar: onehalf
Encoding: 189 189 146
Width: 2219
GlyphClass: 2
Flags: W
LayerCount: 2
Fore
SplineSet
1590 1900 m 1,0,-1
 1687 1846 l 1,1,-1
 588 -230 l 1,2,-1
 491 -176 l 1,3,-1
 1590 1900 l 1,0,-1
1294 3 m 1,4,5
 1270 21 1270 21 1270 72 c 1,6,7
 1316 109 1316 109 1376 150 c 2,8,-1
 1497 234 l 1,9,10
 1648 343 1648 343 1711 416 c 0,11,12
 1830 556 1830 556 1830 680 c 0,13,14
 1830 807 1830 807 1733 844 c 0,15,16
 1704 855 1704 855 1657.5 855 c 128,-1,17
 1611 855 1611 855 1568 835.5 c 128,-1,18
 1525 816 1525 816 1498 782 c 0,19,20
 1446 717 1446 717 1446 604 c 1,21,-1
 1318 604 l 1,22,23
 1318 687 1318 687 1316 760 c 128,-1,24
 1314 833 1314 833 1314 894 c 1,25,26
 1332 891 1332 891 1357 891 c 128,-1,27
 1382 891 1382 891 1414 901 c 2,28,-1
 1486 923 l 2,29,30
 1592 955 1592 955 1680.5 955 c 128,-1,31
 1769 955 1769 955 1831.5 939.5 c 128,-1,32
 1894 924 1894 924 1940 890 c 1,33,34
 2040 819 2040 819 2040 677 c 0,35,36
 2040 490 2040 490 1701 250 c 0,37,38
 1600 178 1600 178 1519 138 c 1,39,40
 1669 138 1669 138 1756 146 c 1,41,-1
 1891 160 l 1,42,43
 1938 170 1938 170 1961.5 200.5 c 128,-1,44
 1985 231 1985 231 1996 294 c 1,45,-1
 2121 294 l 1,46,-1
 2086 3 l 1,47,-1
 1294 3 l 1,4,5
643 1084 m 1,48,-1
 642 999 l 1,49,50
 642 870 642 870 674 837 c 0,51,52
 687 823 687 823 721 823 c 0,53,54
 795 823 795 823 851 836 c 1,55,-1
 838 715 l 1,56,-1
 238 715 l 1,57,-1
 251 826 l 1,58,-1
 345 826 l 1,59,60
 420 824 420 824 435 844 c 0,61,62
 455 871 455 871 455 973 c 2,63,-1
 455 1332 l 2,64,65
 455 1409 455 1409 441.5 1440.5 c 128,-1,66
 428 1472 428 1472 401 1472 c 128,-1,67
 374 1472 374 1472 351.5 1468.5 c 128,-1,68
 329 1465 329 1465 306 1460 c 2,69,-1
 264 1450 l 2,70,71
 244 1446 244 1446 232 1443 c 1,72,-1
 204 1548 l 1,73,-1
 670 1668 l 1,74,75
 651 1611 651 1611 648 1556 c 2,76,-1
 644 1484 l 2,77,78
 643 1466 643 1466 643 1454 c 2,79,-1
 643 1084 l 1,48,-1
EndSplineSet
EndChar

StartChar: threequarters
Encoding: 190 190 147
Width: 2219
GlyphClass: 2
Flags: W
LayerCount: 2
Fore
SplineSet
1590 1900 m 1,0,-1
 1687 1846 l 1,1,-1
 588 -230 l 1,2,-1
 491 -176 l 1,3,-1
 1590 1900 l 1,0,-1
1650 -5 m 1,4,5
 1661 110 1661 110 1661 158 c 2,6,-1
 1661 277 l 1,7,-1
 1209 277 l 1,8,-1
 1157 390 l 1,9,-1
 1660 994 l 1,10,11
 1679 996 1679 996 1704 1000 c 2,12,-1
 1852 1020 l 1,13,-1
 1852 416 l 1,14,-1
 2095 416 l 1,15,-1
 2080 277 l 1,16,-1
 1852 277 l 1,17,-1
 1852 118 l 1,18,-1
 1854 19 l 1,19,20
 1832 14 1832 14 1805.5 9.5 c 128,-1,21
 1779 5 1779 5 1752 0 c 2,22,-1
 1701 -8 l 1,23,24
 1676 -13 1676 -13 1656 -17 c 1,25,-1
 1650 -5 l 1,4,5
1661 415 m 1,26,-1
 1661 862 l 1,27,-1
 1318 417 l 1,28,-1
 1661 415 l 1,26,-1
863 1437 m 0,29,30
 863 1288 863 1288 704 1213 c 1,31,32
 813 1193 813 1193 873 1117 c 0,33,34
 922 1055 922 1055 922 985.5 c 128,-1,35
 922 916 922 916 891.5 863.5 c 128,-1,36
 861 811 861 811 806 774 c 0,37,38
 693 697 693 697 507 697 c 0,39,40
 421 697 421 697 354 712 c 2,41,-1
 252 734 l 2,42,43
 219 741 219 741 178 741 c 1,44,45
 170 802 170 802 170 866 c 0,46,47
 170 944 170 944 177 991 c 1,48,-1
 263 991 l 1,49,50
 269 845 269 845 410 806 c 0,51,52
 454 794 454 794 512.5 794 c 128,-1,53
 571 794 571 794 612.5 809 c 128,-1,54
 654 824 654 824 678 848 c 0,55,56
 724 894 724 894 724 971 c 0,57,58
 724 1141 724 1141 498 1141 c 0,59,60
 489 1141 489 1141 480 1141 c 128,-1,61
 471 1141 471 1141 461 1140 c 2,62,-1
 425 1135 l 2,63,64
 418 1135 418 1135 410.5 1175 c 128,-1,65
 403 1215 403 1215 403 1218.5 c 128,-1,66
 403 1222 403 1222 404 1222 c 0,67,68
 550 1230 550 1230 614.5 1278 c 128,-1,69
 679 1326 679 1326 679 1420 c 0,70,71
 679 1484 679 1484 637 1528 c 0,72,73
 595 1571 595 1571 525 1571 c 0,74,75
 301 1571 301 1571 298 1367 c 1,76,-1
 192 1365 l 1,77,78
 181 1453 181 1453 181 1510.5 c 128,-1,79
 181 1568 181 1568 188 1627 c 1,80,-1
 200 1626 l 1,81,82
 230 1626 230 1626 270 1633 c 2,83,-1
 354 1648 l 2,84,85
 478 1670 478 1670 544 1670 c 128,-1,86
 610 1670 610 1670 669 1657 c 128,-1,87
 728 1644 728 1644 771 1616 c 0,88,89
 863 1556 863 1556 863 1437 c 0,29,30
680 1216 m 2,90,91
 680 1216 680 1216 679 1216 c 2,92,93
 679 1216 679 1216 680 1216 c 2,90,91
EndSplineSet
EndChar

StartChar: AE
Encoding: 198 198 155
Width: 2049
GlyphClass: 2
Flags: W
LayerCount: 2
Fore
SplineSet
807 0 m 1,0,1
 816 76 816 76 824 106 c 1,2,3
 910 106 910 106 936 130 c 0,4,5
 983 172 983 172 983 268 c 2,6,-1
 983 680 l 1,7,-1
 593 680 l 1,8,-1
 351 223 l 2,9,10
 337 198 337 198 337 170.5 c 128,-1,11
 337 143 337 143 353 125.5 c 128,-1,12
 369 108 369 108 385.5 107 c 128,-1,13
 402 106 402 106 421.5 106.5 c 128,-1,14
 441 107 441 107 462 108 c 0,15,16
 517 112 517 112 537 120 c 1,17,-1
 522 0 l 1,18,-1
 -94 0 l 1,19,-1
 -80 105 l 1,20,21
 -4 105 -4 105 48.5 133 c 128,-1,22
 101 161 101 161 142 230 c 2,23,-1
 833 1417 l 1,24,-1
 685 1417 l 2,25,26
 544 1417 544 1417 416 1382 c 1,27,-1
 425 1530 l 1,28,-1
 1603 1530 l 2,29,30
 1858 1530 1858 1530 1955 1545 c 1,31,32
 1955 1324 1955 1324 1909 1171 c 1,33,-1
 1825 1171 l 1,34,35
 1815 1334 1815 1334 1761 1379 c 0,36,37
 1731 1404 1731 1404 1683 1410.5 c 128,-1,38
 1635 1417 1635 1417 1563 1417 c 2,39,-1
 1179 1417 l 1,40,-1
 1179 799 l 1,41,-1
 1376 799 l 2,42,43
 1529 799 1529 799 1558 895 c 0,44,45
 1567 927 1567 927 1571 969 c 1,46,-1
 1674 970 l 1,47,-1
 1674 922 l 2,48,49
 1674 775 1674 775 1666 651 c 2,50,-1
 1655 482 l 1,51,-1
 1552 482 l 1,52,53
 1546 588 1546 588 1508 632 c 1,54,55
 1469 680 1469 680 1370 680 c 2,56,-1
 1179 680 l 1,57,-1
 1179 278 l 2,58,59
 1179 178 1179 178 1218 146 c 0,60,61
 1257 115 1257 115 1381 111 c 1,62,-1
 1578 111 l 2,63,64
 1784 111 1784 111 1862 284 c 0,65,66
 1886 339 1886 339 1894 407 c 1,67,-1
 2001 407 l 1,68,69
 2001 296 2001 296 1978 170 c 2,70,-1
 1948 0 l 1,71,-1
 807 0 l 1,0,1
983 799 m 1,72,-1
 984 1417 l 1,73,-1
 656 799 l 1,74,-1
 983 799 l 1,72,-1
EndSplineSet
EndChar

StartChar: Ccedilla
Encoding: 199 199 156
Width: 1709
GlyphClass: 2
Flags: W
LayerCount: 2
Fore
SplineSet
789 -313 m 1,0,1
 860 -359 860 -359 957 -359 c 0,2,3
 1036 -359 1036 -359 1056 -312 c 0,4,5
 1062 -299 1062 -299 1062 -278.5 c 128,-1,6
 1062 -258 1062 -258 1043 -237.5 c 128,-1,7
 1024 -217 1024 -217 1001 -197 c 0,8,9
 940 -144 940 -144 940 -100 c 128,-1,10
 940 -56 940 -56 957 -15 c 1,11,-1
 949 -15 l 2,12,13
 631 -15 631 -15 407 154 c 0,14,15
 243 277 243 277 177 499 c 0,16,17
 143 613 143 613 143 776.5 c 128,-1,18
 143 940 143 940 205.5 1085.5 c 128,-1,19
 268 1231 268 1231 380 1333 c 0,20,21
 614 1545 614 1545 987 1545 c 0,22,23
 1070 1545 1070 1545 1193 1530 c 0,24,25
 1424 1502 1424 1502 1468 1502 c 2,26,-1
 1520 1502 l 2,27,28
 1528 1502 1528 1502 1536 1503 c 1,29,30
 1538 1479 1538 1479 1538 1392 c 128,-1,31
 1538 1305 1538 1305 1506 1095 c 1,32,-1
 1392 1095 l 1,33,34
 1374 1239 1374 1239 1342 1303 c 1,35,36
 1262 1438 1262 1438 972 1438 c 0,37,38
 689 1438 689 1438 529 1254 c 0,39,40
 377 1078 377 1078 377 787 c 0,41,42
 377 454 377 454 568 262 c 1,43,44
 741 90 741 90 993 90 c 0,45,46
 1177 90 1177 90 1271 158 c 0,47,48
 1368 228 1368 228 1425 406 c 1,49,-1
 1536 406 l 1,50,51
 1538 386 1538 386 1538 356.5 c 128,-1,52
 1538 327 1538 327 1534.5 287 c 128,-1,53
 1531 247 1531 247 1526 210 c 0,54,55
 1513 126 1513 126 1500 90 c 1,56,57
 1318 -1 1318 -1 1046 -13 c 1,58,59
 1052 -51 1052 -51 1088 -82 c 2,60,-1
 1146 -131 l 1,61,62
 1235 -203 1235 -203 1235 -287 c 0,63,64
 1235 -394 1235 -394 1148 -460 c 0,65,66
 1073 -517 1073 -517 964 -517 c 128,-1,67
 855 -517 855 -517 789 -482 c 1,68,-1
 789 -313 l 1,0,1
EndSplineSet
EndChar

StartChar: Eth
Encoding: 208 208 165
Width: 1539
GlyphClass: 2
Flags: W
LayerCount: 2
Fore
SplineSet
708 -15 m 1,0,-1
 373 -1 l 1,1,-1
 98 0 l 1,2,-1
 105 106 l 1,3,4
 196 106 196 106 226 132 c 0,5,6
 279 179 279 179 279 285 c 2,7,-1
 279 702 l 1,8,-1
 -14 702 l 1,9,-1
 -14 849 l 1,10,-1
 279 849 l 1,11,-1
 279 1230 l 2,12,13
 279 1336 279 1336 257 1368.5 c 128,-1,14
 235 1401 235 1401 213 1410 c 128,-1,15
 191 1419 191 1419 159.5 1419 c 128,-1,16
 128 1419 128 1419 97 1410 c 1,17,-1
 107 1530 l 1,18,-1
 353 1530 l 2,19,20
 402 1530 402 1530 444 1532.5 c 128,-1,21
 486 1535 486 1535 528 1538 c 1,22,23
 528 1538 528 1538 616 1542 c 0,24,25
 662 1545 662 1545 719 1545 c 0,26,27
 1101 1545 1101 1545 1295.5 1360.5 c 128,-1,28
 1490 1176 1490 1176 1490 809 c 0,29,30
 1490 438 1490 438 1276 211 c 0,31,32
 1063 -15 1063 -15 708 -15 c 1,0,-1
904 1402 m 0,33,34
 792 1433 792 1433 681 1433 c 128,-1,35
 570 1433 570 1433 482 1412 c 1,36,-1
 482 849 l 1,37,-1
 747 849 l 1,38,-1
 747 702 l 1,39,-1
 482 702 l 1,40,-1
 482 207 l 2,41,42
 482 155 482 155 490 143 c 128,-1,43
 498 131 498 131 513 125 c 128,-1,44
 528 119 528 119 558 116 c 0,45,46
 607 111 607 111 732.5 111 c 128,-1,47
 858 111 858 111 953.5 148 c 128,-1,48
 1049 185 1049 185 1118 264 c 0,49,50
 1264 431 1264 431 1264 763 c 0,51,52
 1264 1302 1264 1302 904 1402 c 0,33,34
EndSplineSet
EndChar

StartChar: Odieresis
Encoding: 214 214 171
Width: 1709
GlyphClass: 2
Flags: W
LayerCount: 2
Fore
SplineSet
1178.5 1753 m 128,-1,1
 1153 1742 1153 1742 1123 1742 c 128,-1,2
 1093 1742 1093 1742 1066 1753 c 128,-1,3
 1039 1764 1039 1764 1020 1783 c 0,4,5
 978 1823 978 1823 978 1868.5 c 128,-1,6
 978 1914 978 1914 989 1941.5 c 128,-1,7
 1000 1969 1000 1969 1020 1989 c 0,8,9
 1061 2032 1061 2032 1124 2032 c 0,10,11
 1216 2032 1216 2032 1252 1942 c 0,12,13
 1263 1914 1263 1914 1263 1883.5 c 128,-1,14
 1263 1853 1263 1853 1252 1827.5 c 128,-1,15
 1241 1802 1241 1802 1222.5 1783 c 128,-1,0
 1204 1764 1204 1764 1178.5 1753 c 128,-1,1
660 1753 m 128,-1,17
 635 1742 635 1742 604.5 1742 c 128,-1,18
 574 1742 574 1742 547 1753 c 128,-1,19
 520 1764 520 1764 500 1783 c 0,20,21
 458 1824 458 1824 458 1869 c 128,-1,22
 458 1914 458 1914 469.5 1941.5 c 128,-1,23
 481 1969 481 1969 500 1989 c 0,24,25
 542 2032 542 2032 606 2032 c 0,26,27
 664 2032 664 2032 704 1989 c 0,28,29
 743 1946 743 1946 743 1899.5 c 128,-1,30
 743 1853 743 1853 732.5 1827.5 c 128,-1,31
 722 1802 722 1802 703.5 1783 c 128,-1,16
 685 1764 685 1764 660 1753 c 128,-1,17
131 728 m 0,32,33
 134 901 134 901 186 1048 c 128,-1,34
 238 1195 238 1195 337 1306 c 0,35,36
 551 1546 551 1546 909 1546 c 0,37,38
 1217 1546 1217 1546 1403 1352 c 0,39,40
 1596 1151 1596 1151 1590 797 c 0,41,42
 1584 450 1584 450 1384 226 c 1,43,44
 1171 -15 1171 -15 814 -15 c 0,45,46
 504 -15 504 -15 319 180 c 0,47,48
 125 385 125 385 131 728 c 0,32,33
640.5 159 m 128,-1,50
 736 108 736 108 851 108 c 128,-1,51
 966 108 966 108 1056 146.5 c 128,-1,52
 1146 185 1146 185 1213 263 c 0,53,54
 1358 432 1358 432 1362 733 c 1,55,56
 1368 1046 1368 1046 1240 1230 c 0,57,58
 1106 1422 1106 1422 857 1422 c 0,59,60
 643 1422 643 1422 508 1269 c 1,61,62
 364 1104 364 1104 358 801 c 0,63,64
 352 488 352 488 481 302 c 0,65,49
 545 210 545 210 640.5 159 c 128,-1,50
EndSplineSet
EndChar

StartChar: multiply
Encoding: 215 215 172
Width: 1193
GlyphClass: 2
Flags: W
LayerCount: 2
Fore
SplineSet
486 591 m 1,0,-1
 232 851 l 1,1,-1
 356 949 l 1,2,-1
 595 705 l 1,3,-1
 840 959 l 1,4,-1
 958 849 l 1,5,-1
 708 590 l 1,6,-1
 961 332 l 1,7,-1
 836 234 l 1,8,-1
 598 476 l 1,9,-1
 371 241 l 1,10,-1
 254 351 l 1,11,-1
 486 591 l 1,0,-1
EndSplineSet
EndChar

StartChar: Oslash
Encoding: 216 216 173
Width: 1709
GlyphClass: 2
Flags: W
LayerCount: 2
Fore
SplineSet
922 1546 m 0,0,1
 1023 1546 1023 1546 1121 1521 c 1,2,-1
 1210 1716 l 1,3,-1
 1360 1656 l 1,4,-1
 1268 1464 l 1,5,6
 1515 1333 1515 1333 1582 1022 c 0,7,8
 1605 919 1605 919 1602.5 775.5 c 128,-1,9
 1600 632 1600 632 1548 484.5 c 128,-1,10
 1496 337 1496 337 1398 226 c 0,11,12
 1184 -15 1184 -15 827 -15 c 0,13,14
 701 -15 701 -15 590 20 c 1,15,-1
 497 -185 l 1,16,-1
 352 -121 l 1,17,-1
 448 85 l 1,18,19
 223 225 223 225 162 520 c 0,20,21
 142 620 142 620 144.5 760.5 c 128,-1,22
 147 901 147 901 199 1048 c 128,-1,23
 251 1195 251 1195 350 1306 c 0,24,25
 564 1546 564 1546 922 1546 c 0,0,1
653.5 159 m 128,-1,27
 749 108 749 108 864 108 c 128,-1,28
 979 108 979 108 1069 146.5 c 128,-1,29
 1159 185 1159 185 1226 263 c 0,30,31
 1371 432 1371 432 1375 733 c 1,32,33
 1381 1046 1381 1046 1252 1230 c 1,34,35
 1119 1422 1119 1422 870 1422 c 0,36,37
 656 1422 656 1422 522 1269 c 0,38,39
 377 1104 377 1104 371 801 c 0,40,41
 365 488 365 488 494 302 c 0,42,26
 558 210 558 210 653.5 159 c 128,-1,27
EndSplineSet
EndChar

StartChar: Thorn
Encoding: 222 222 179
Width: 1364
GlyphClass: 2
Flags: W
LayerCount: 2
Fore
SplineSet
585 113 m 128,-1,1
 616 106 616 106 662.5 106 c 128,-1,2
 709 106 709 106 777 124 c 1,3,-1
 765 0 l 1,4,-1
 131 0 l 1,5,-1
 142 105 l 1,6,7
 270 105 270 105 292 231 c 0,8,9
 300 273 300 273 300 330 c 2,10,-1
 299 1215 l 2,11,12
 299 1388 299 1388 240 1411 c 0,13,14
 223 1418 223 1418 200 1418 c 0,15,16
 135 1418 135 1418 101 1411 c 1,17,-1
 117 1530 l 1,18,-1
 689 1530 l 1,19,-1
 673 1418 l 1,20,21
 566 1418 566 1418 537 1384 c 1,22,23
 510 1354 510 1354 510 1245 c 1,24,25
 557 1246 557 1246 592.5 1248.5 c 128,-1,26
 628 1251 628 1251 662 1252 c 2,27,-1
 732 1256 l 1,28,29
 769 1257 769 1257 863 1256 c 128,-1,30
 957 1255 957 1255 1052.5 1221 c 128,-1,31
 1148 1187 1148 1187 1208 1128 c 0,32,33
 1322 1014 1322 1014 1322 808 c 0,34,35
 1322 587 1322 587 1161 446 c 0,36,37
 1007 311 1007 311 783 311 c 0,38,39
 696 311 696 311 606 335 c 1,40,-1
 588 447 l 1,41,42
 664 429 664 429 739.5 429 c 128,-1,43
 815 429 815 429 884 454 c 128,-1,44
 953 479 953 479 1002 526 c 0,45,46
 1106 626 1106 626 1106 795 c 0,47,48
 1106 1148 1106 1148 705 1148 c 0,49,50
 594 1148 594 1148 510 1128 c 1,51,-1
 505 260 l 2,52,53
 505 168 505 168 529.5 144 c 128,-1,0
 554 120 554 120 585 113 c 128,-1,1
EndSplineSet
EndChar

StartChar: germandbls
Encoding: 223 223 180
Width: 1535
GlyphClass: 2
Flags: W
LayerCount: 2
Fore
SplineSet
502 56 m 1,0,-1
 503 3 l 1,1,-1
 98 0 l 1,2,-1
 113 102 l 1,3,4
 228 102 228 102 266 141 c 0,5,6
 301 176 301 176 301 280 c 2,7,-1
 302 1034 l 1,8,-1
 302 1041 l 1,9,-1
 127 1041 l 1,10,-1
 138 1145 l 1,11,12
 228 1148 228 1148 265 1165.5 c 128,-1,13
 302 1183 302 1183 302 1190 c 0,14,15
 302 1358 302 1358 404 1532 c 0,16,17
 488 1674 488 1674 640 1738 c 1,18,19
 721 1771 721 1771 835.5 1771 c 128,-1,20
 950 1771 950 1771 1031.5 1741.5 c 128,-1,21
 1113 1712 1113 1712 1162 1666 c 0,22,23
 1251 1580 1251 1580 1251 1450 c 0,24,25
 1251 1252 1251 1252 1084 1114 c 1,26,-1
 1004 1046 l 1,27,28
 967 1013 967 1013 942.5 980.5 c 128,-1,29
 918 948 918 948 918 911 c 128,-1,30
 918 874 918 874 932 847.5 c 128,-1,31
 946 821 946 821 970 800 c 0,32,33
 1009 765 1009 765 1080 731 c 128,-1,34
 1151 697 1151 697 1212 664 c 128,-1,35
 1273 631 1273 631 1322 588 c 0,36,37
 1436 489 1436 489 1436 363 c 0,38,39
 1436 178 1436 178 1314 78 c 0,40,41
 1202 -14 1202 -14 1040 -14 c 128,-1,42
 878 -14 878 -14 687 40 c 1,43,-1
 700 341 l 1,44,-1
 819 341 l 1,45,46
 822 136 822 136 954 104 c 0,47,48
 994 95 994 95 1039 95 c 0,49,50
 1142 95 1142 95 1192 143.5 c 128,-1,51
 1242 192 1242 192 1242 264.5 c 128,-1,52
 1242 337 1242 337 1221.5 376.5 c 128,-1,53
 1201 416 1201 416 1168 444 c 128,-1,54
 1135 472 1135 472 1092 492 c 2,55,-1
 1006 534 l 1,56,57
 883 592 883 592 837 639 c 0,58,59
 746 732 746 732 746 858 c 0,60,61
 746 958 746 958 821 1048 c 0,62,63
 853 1087 853 1087 891 1123 c 128,-1,64
 929 1159 929 1159 961 1202 c 0,65,66
 1036 1301 1036 1301 1036 1423 c 0,67,68
 1036 1507 1036 1507 982 1574 c 0,69,70
 919 1654 919 1654 805 1654 c 0,71,72
 732 1654 732 1654 675.5 1631.5 c 128,-1,73
 619 1609 619 1609 580 1546 c 0,74,75
 502 1419 502 1419 502 1083 c 2,76,-1
 502 56 l 1,0,-1
EndSplineSet
EndChar

StartChar: ae
Encoding: 230 230 187
Width: 1912
GlyphClass: 2
Flags: W
LayerCount: 2
Fore
SplineSet
1328 -17 m 0,0,1
 1023 -17 1023 -17 906 212 c 1,2,3
 856 120 856 120 716 44 c 1,4,5
 590 -23 590 -23 503.5 -23 c 128,-1,6
 417 -23 417 -23 349 0.5 c 128,-1,7
 281 24 281 24 234 66 c 0,8,9
 136 154 136 154 136 303 c 0,10,11
 136 486 136 486 336 586 c 1,12,13
 525 679 525 679 832 679 c 2,14,-1
 846 679 l 1,15,-1
 852 713 l 1,16,-1
 850 845 l 1,17,18
 846 971 846 971 762 1033 c 0,19,20
 696 1082 696 1082 594 1082 c 128,-1,21
 492 1082 492 1082 428.5 1031 c 128,-1,22
 365 980 365 980 365 883 c 0,23,24
 365 842 365 842 373 810 c 1,25,-1
 203 810 l 1,26,27
 176 918 176 918 176 966 c 0,28,29
 176 1018 176 1018 181 1025 c 1,30,-1
 222 1052 l 2,31,32
 342 1131 342 1131 428 1159 c 0,33,34
 582 1209 582 1209 696 1209 c 0,35,36
 930 1209 930 1209 1003 1029 c 1,37,38
 1160 1209 1160 1209 1371 1209 c 0,39,40
 1791 1209 1791 1209 1791 723 c 2,41,-1
 1791 686 l 2,42,43
 1791 588 1791 588 1768 588 c 2,44,-1
 1031 588 l 1,45,46
 1031 153 1031 153 1385 153 c 1,47,48
 1569 163 1569 163 1731 248 c 1,49,-1
 1773 166 l 1,50,51
 1628 42 1628 42 1432 -4 c 0,52,53
 1375 -17 1375 -17 1328 -17 c 0,0,1
1573 712 m 1,54,55
 1574 734 1574 734 1574 746 c 2,56,-1
 1574 780 l 2,57,58
 1574 934 1574 934 1514 1013 c 128,-1,59
 1454 1092 1454 1092 1314 1092 c 0,60,61
 1203 1092 1203 1092 1116 965 c 0,62,63
 1031 841 1031 841 1031 688 c 1,64,-1
 1573 712 l 1,54,55
837 575 m 1,65,66
 827 577 827 577 772.5 577 c 128,-1,67
 718 577 718 577 632.5 559.5 c 128,-1,68
 547 542 547 542 484 508 c 0,69,70
 349 435 349 435 349 316 c 0,71,72
 349 232 349 232 405 176 c 0,73,74
 463 118 463 118 553 118 c 0,75,76
 662 118 662 118 780 218 c 0,77,78
 815 247 815 247 841 280 c 1,79,80
 843 316 843 316 844 349 c 2,81,-1
 846 412 l 1,82,83
 837 481 837 481 837 560 c 2,84,-1
 837 575 l 1,65,66
EndSplineSet
EndChar

StartChar: ccedilla
Encoding: 231 231 188
Width: 1191
GlyphClass: 2
Flags: W
LayerCount: 2
Fore
SplineSet
419 -313 m 1,0,1
 490 -359 490 -359 587 -359 c 0,2,3
 666 -359 666 -359 686 -312 c 0,4,5
 692 -299 692 -299 692 -278.5 c 128,-1,6
 692 -258 692 -258 673 -237.5 c 128,-1,7
 654 -217 654 -217 630.5 -197 c 128,-1,8
 607 -177 607 -177 588 -152.5 c 128,-1,9
 569 -128 569 -128 569 -93 c 128,-1,10
 569 -58 569 -58 587 -13 c 1,11,12
 376 9 376 9 250 155 c 0,13,14
 119 306 119 306 119 539 c 0,15,16
 119 849 119 849 302 1036 c 0,17,18
 472 1209 472 1209 728 1209 c 0,19,20
 872 1209 872 1209 1003 1168 c 0,21,22
 1033 1158 1033 1158 1056 1153 c 1,23,24
 1063 1136 1063 1136 1063 1080.5 c 128,-1,25
 1063 1025 1063 1025 1060.5 993.5 c 128,-1,26
 1058 962 1058 962 1054.5 932.5 c 128,-1,27
 1051 903 1051 903 1047 880 c 2,28,-1
 1041 844 l 1,29,30
 1035 837 1035 837 977.5 837 c 128,-1,31
 920 837 920 837 903 844 c 1,32,33
 903 964 903 964 872.5 1008 c 128,-1,34
 842 1052 842 1052 796 1072.5 c 128,-1,35
 750 1093 750 1093 675.5 1093 c 128,-1,36
 601 1093 601 1093 537.5 1062 c 128,-1,37
 474 1031 474 1031 426 970 c 0,38,39
 321 837 321 837 321 610 c 0,40,41
 321 285 321 285 544 190 c 0,42,43
 618 159 618 159 719 159 c 0,44,45
 884 159 884 159 1046 246 c 1,46,-1
 1082 171 l 1,47,48
 1034 120 1034 120 958 77 c 0,49,50
 803 -11 803 -11 677 -16 c 1,51,52
 683 -53 683 -53 719 -83.5 c 128,-1,53
 755 -114 755 -114 778 -132 c 128,-1,54
 801 -150 801 -150 820 -172 c 0,55,56
 865 -224 865 -224 865 -285 c 128,-1,57
 865 -346 865 -346 840 -389 c 128,-1,58
 815 -432 815 -432 778 -460 c 0,59,60
 703 -517 703 -517 594 -517 c 128,-1,61
 485 -517 485 -517 419 -482 c 1,62,-1
 419 -313 l 1,0,1
EndSplineSet
EndChar

StartChar: igrave
Encoding: 236 236 193
Width: 690
GlyphClass: 2
Flags: W
LayerCount: 2
Fore
SplineSet
-32 1593 m 1,0,-1
 85 1757 l 1,1,-1
 459 1419 l 1,2,-1
 390 1311 l 1,3,-1
 -32 1593 l 1,0,-1
122 102 m 1,4,5
 220 102 220 102 255 158 c 0,6,7
 284 204 284 204 284 312 c 2,8,-1
 284 837 l 2,9,10
 284 964 284 964 240 1002 c 0,11,12
 205 1031 205 1031 86 1031 c 1,13,-1
 102 1155 l 1,14,-1
 502 1209 l 1,15,16
 458 1086 458 1086 458 698 c 1,17,-1
 465 231 l 2,18,19
 465 165 465 165 481 142 c 0,20,21
 509 102 509 102 567 102 c 0,22,23
 617 102 617 102 642 111 c 1,24,-1
 629 0 l 1,25,-1
 104 0 l 1,26,-1
 122 102 l 1,4,5
EndSplineSet
EndChar

StartChar: idieresis
Encoding: 239 239 196
Width: 690
GlyphClass: 2
Flags: W
LayerCount: 2
Fore
SplineSet
418 1531 m 128,-1,1
 418 1576 418 1576 429.5 1603.5 c 128,-1,2
 441 1631 441 1631 461 1652 c 0,3,4
 503 1695 503 1695 567 1695 c 0,5,6
 626 1695 626 1695 667.5 1651.5 c 128,-1,7
 709 1608 709 1608 709 1544 c 0,8,9
 709 1486 709 1486 667.5 1444.5 c 128,-1,10
 626 1403 626 1403 580 1403 c 0,11,12
 504 1403 504 1403 461 1444.5 c 128,-1,0
 418 1486 418 1486 418 1531 c 128,-1,1
200.5 1414 m 128,-1,14
 175 1403 175 1403 144 1403 c 128,-1,15
 113 1403 113 1403 85.5 1414 c 128,-1,16
 58 1425 58 1425 38 1444 c 0,17,18
 -6 1486 -6 1486 -6 1531 c 128,-1,19
 -6 1576 -6 1576 5.5 1603.5 c 128,-1,20
 17 1631 17 1631 38 1652 c 0,21,22
 81 1695 81 1695 145 1695 c 0,23,24
 237 1695 237 1695 274 1604 c 0,25,26
 285 1576 285 1576 285 1545.5 c 128,-1,27
 285 1515 285 1515 274 1489.5 c 128,-1,28
 263 1464 263 1464 244.5 1444.5 c 128,-1,13
 226 1425 226 1425 200.5 1414 c 128,-1,14
122 102 m 1,29,30
 220 102 220 102 255 158 c 0,31,32
 284 204 284 204 284 312 c 2,33,-1
 284 837 l 2,34,35
 284 964 284 964 240 1002 c 0,36,37
 205 1031 205 1031 86 1031 c 1,38,-1
 102 1155 l 1,39,-1
 502 1209 l 1,40,41
 458 1086 458 1086 458 698 c 1,42,-1
 465 231 l 2,43,44
 465 165 465 165 481 142 c 0,45,46
 509 102 509 102 567 102 c 0,47,48
 617 102 617 102 642 111 c 1,49,-1
 629 0 l 1,50,-1
 104 0 l 1,51,-1
 122 102 l 1,29,30
EndSplineSet
EndChar

StartChar: eth
Encoding: 240 240 197
Width: 1322
GlyphClass: 2
Flags: W
LayerCount: 2
Fore
SplineSet
458 1550 m 1,0,1
 305 1624 305 1624 194 1653 c 1,2,-1
 214 1697 l 1,3,4
 232 1734 232 1734 235 1748 c 1,5,-1
 235 1749 l 1,6,7
 241 1748 241 1748 253.5 1744 c 128,-1,8
 266 1740 266 1740 310 1728 c 0,9,10
 408 1703 408 1703 529 1654 c 1,11,-1
 650 1841 l 1,12,-1
 757 1768 l 1,13,-1
 645 1594 l 1,14,15
 1054 1376 1054 1376 1186 952 c 0,16,17
 1233 799 1233 799 1233 646.5 c 128,-1,18
 1233 494 1233 494 1196.5 381 c 128,-1,19
 1160 268 1160 268 1089 180 c 0,20,21
 932 -15 932 -15 678 -15 c 0,22,23
 456 -15 456 -15 319 89 c 0,24,25
 123 238 123 238 123 570 c 0,26,27
 123 793 123 793 283 972 c 0,28,29
 388 1090 388 1090 538 1137 c 0,30,31
 614 1161 614 1161 690 1161 c 0,32,33
 819 1161 819 1161 895 1137 c 1,34,35
 774 1359 774 1359 572 1483 c 1,36,-1
 440 1279 l 1,37,-1
 327 1352 l 1,38,-1
 458 1550 l 1,0,1
338 566 m 0,39,40
 338 476 338 476 361.5 392 c 128,-1,41
 385 308 385 308 428 241 c 0,42,43
 524 92 524 92 669 92 c 0,44,45
 838 92 838 92 922 196 c 0,46,47
 1023 322 1023 322 1023 607 c 0,48,49
 1023 781 1023 781 977 938 c 1,50,51
 865 1044 865 1044 690 1044 c 0,52,53
 491 1044 491 1044 406 898 c 0,54,55
 338 783 338 783 338 566 c 0,39,40
EndSplineSet
EndChar

StartChar: divide
Encoding: 247 247 204
Width: 1193
GlyphClass: 2
Flags: W
LayerCount: 2
Fore
SplineSet
182 667 m 1,0,-1
 1030 667 l 1,1,-1
 1011 508 l 1,2,-1
 163 508 l 1,3,-1
 182 667 l 1,0,-1
448 1032 m 0,4,5
 448 1065 448 1065 460 1093.5 c 128,-1,6
 472 1122 472 1122 493 1143 c 0,7,8
 538 1188 538 1188 601 1188 c 256,9,10
 664 1188 664 1188 709 1143 c 0,11,12
 755 1097 755 1097 755 1032 c 0,13,14
 755 968 755 968 709 922 c 128,-1,15
 663 876 663 876 601 876 c 256,16,17
 539 876 539 876 493 922 c 0,18,19
 448 967 448 967 448 1032 c 0,4,5
448 128 m 0,20,21
 448 160 448 160 460 188.5 c 128,-1,22
 472 217 472 217 493 238 c 0,23,24
 538 283 538 283 601 283 c 256,25,26
 664 283 664 283 709 238 c 0,27,28
 755 192 755 192 755 127 c 0,29,30
 755 63 755 63 709 17 c 128,-1,31
 663 -29 663 -29 601 -29 c 256,32,33
 539 -29 539 -29 493 17 c 0,34,35
 448 62 448 62 448 128 c 0,20,21
EndSplineSet
EndChar

StartChar: oslash
Encoding: 248 248 205
Width: 1365
GlyphClass: 2
Flags: W
LayerCount: 2
Fore
SplineSet
898 1360 m 1,0,-1
 1034 1360 l 1,1,-1
 924 1073 l 1,2,-1
 804 1114 l 1,3,-1
 898 1360 l 1,0,-1
418 128 m 1,4,-1
 534 78 l 1,5,-1
 440 -169 l 1,6,-1
 305 -169 l 1,7,-1
 418 128 l 1,4,-1
115 572 m 2,8,9
 115 719 115 719 170 842.5 c 128,-1,10
 225 966 225 966 306 1046 c 1,11,12
 474 1209 474 1209 720 1209 c 0,13,14
 962 1209 962 1209 1104 1047 c 0,15,16
 1239 892 1239 892 1239 643 c 0,17,18
 1239 632 1239 632 1239 621 c 0,19,20
 1239 482 1239 482 1186 358 c 128,-1,21
 1133 234 1133 234 1052 154 c 1,22,23
 884 -15 884 -15 635 -15 c 0,24,25
 392 -15 392 -15 250 148 c 0,26,27
 115 302 115 302 115 550 c 2,28,-1
 115 572 l 2,8,9
680 108 m 0,29,30
 758 108 758 108 818 135 c 128,-1,31
 878 162 878 162 922 218 c 0,32,33
 1018 340 1018 340 1018 566 c 0,34,35
 1018 808 1018 808 923 950 c 0,36,37
 827 1092 827 1092 665 1092 c 0,38,39
 519 1092 519 1092 430 982 c 0,40,41
 331 858 331 858 331 631 c 0,42,43
 331 394 331 394 424 254 c 0,44,45
 520 108 520 108 680 108 c 0,29,30
EndSplineSet
EndChar

StartChar: thorn
Encoding: 254 254 211
Width: 1362
GlyphClass: 2
Flags: W
LayerCount: 2
Fore
SplineSet
441 -170 m 1,0,-1
 442 -244 l 1,1,-1
 442 -257 l 2,2,3
 442 -346 442 -346 453 -364 c 0,4,5
 470 -392 470 -392 521.5 -392 c 128,-1,6
 573 -392 573 -392 599 -391 c 128,-1,7
 625 -390 625 -390 640.5 -389 c 128,-1,8
 656 -388 656 -388 668 -388 c 0,9,10
 695 -386 695 -386 697 -384 c 1,11,-1
 680 -510 l 1,12,-1
 70 -510 l 1,13,-1
 86 -402 l 1,14,15
 179 -402 179 -402 205 -374 c 0,16,17
 252 -325 252 -325 252 -181 c 2,18,-1
 252 547 l 1,19,-1
 246 1368 l 2,20,21
 246 1428 246 1428 241.5 1457.5 c 128,-1,22
 237 1487 237 1487 220 1507 c 0,23,24
 194 1537 194 1537 96 1537 c 2,25,-1
 58 1537 l 1,26,-1
 70 1649 l 1,27,-1
 458 1706 l 1,28,29
 440 1631 440 1631 440 1197 c 1,30,-1
 431 1054 l 1,31,32
 549 1156 549 1156 720 1197 c 0,33,34
 770 1209 770 1209 818.5 1209 c 128,-1,35
 867 1209 867 1209 923.5 1197 c 128,-1,36
 980 1185 980 1185 1032 1157.5 c 128,-1,37
 1084 1130 1084 1130 1129 1086.5 c 128,-1,38
 1174 1043 1174 1043 1208 980 c 0,39,40
 1280 844 1280 844 1280 642 c 0,41,42
 1280 372 1280 372 1116 182 c 1,43,44
 948 -15 948 -15 699 -15 c 0,45,46
 557 -15 557 -15 441 17 c 1,47,-1
 441 -170 l 1,0,-1
440 212 m 1,48,49
 483 145 483 145 634 116 c 0,50,51
 677 108 677 108 741.5 108 c 128,-1,52
 806 108 806 108 877 143 c 128,-1,53
 948 178 948 178 997 244 c 0,54,55
 1096 377 1096 377 1096 617 c 0,56,57
 1096 811 1096 811 992 928 c 0,58,59
 889 1043 889 1043 724 1043 c 0,60,61
 612 1043 612 1043 480 969 c 0,62,63
 449 952 449 952 440 942 c 1,64,-1
 440 212 l 1,48,49
EndSplineSet
EndChar

StartChar: Aogonek
Encoding: 260 260 217
Width: 1522
GlyphClass: 2
Flags: W
LayerCount: 2
Fore
SplineSet
1312 -356 m 1,0,-1
 1312 -444 l 1,1,2
 1256 -486 1256 -486 1156 -504 c 0,3,4
 1126 -510 1126 -510 1087.5 -510 c 128,-1,5
 1049 -510 1049 -510 1001 -495.5 c 128,-1,6
 953 -481 953 -481 914 -452 c 0,7,8
 828 -388 828 -388 828 -289 c 0,9,10
 828 -186 828 -186 906 -103 c 0,11,12
 938 -69 938 -69 974 -46 c 1,13,-1
 1033 -5 l 1,14,15
 1128 50 1128 50 1135 134 c 0,16,17
 1137 158 1137 158 1137 179 c 128,-1,18
 1137 200 1137 200 1134 218 c 1,19,-1
 1032 493 l 1,20,-1
 425 493 l 1,21,-1
 314 182 l 2,22,23
 310 173 310 173 310 153 c 128,-1,24
 310 133 310 133 333.5 119.5 c 128,-1,25
 357 106 357 106 377.5 106 c 128,-1,26
 398 106 398 106 416.5 106.5 c 128,-1,27
 435 107 435 107 454 108 c 0,28,29
 495 112 495 112 518 120 c 1,30,-1
 503 0 l 1,31,-1
 6 0 l 1,32,-1
 19 105 l 1,33,34
 94 105 94 105 119 125 c 0,35,36
 157 155 157 155 187 230 c 1,37,-1
 684 1539 l 1,38,39
 753 1539 753 1539 840 1568 c 1,40,-1
 1299 333 l 2,41,42
 1356 177 1356 177 1420 123 c 0,43,44
 1440 106 1440 106 1457 106 c 0,45,46
 1506 106 1506 106 1529 121 c 1,47,-1
 1509 0 l 1,48,-1
 1330 0 l 2,49,50
 1245 0 1245 0 1136 -66 c 0,51,52
 1009 -143 1009 -143 1009 -247 c 0,53,54
 1009 -309 1009 -309 1060 -346 c 0,55,56
 1104 -379 1104 -379 1162 -379 c 128,-1,57
 1220 -379 1220 -379 1312 -356 c 1,0,-1
991 605 m 1,58,-1
 724 1329 l 1,59,-1
 465 605 l 1,60,-1
 991 605 l 1,58,-1
EndSplineSet
EndChar

StartChar: aogonek
Encoding: 261 261 218
Width: 1195
GlyphClass: 2
Flags: W
LayerCount: 2
Fore
SplineSet
928 19 m 1,0,1
 868 68 868 68 842 151 c 1,2,3
 774 79 774 79 658 26 c 0,4,5
 550 -23 550 -23 471 -23 c 128,-1,6
 392 -23 392 -23 323 0.5 c 128,-1,7
 254 24 254 24 208 66 c 0,8,9
 114 152 114 152 114 303 c 0,10,11
 114 486 114 486 316 586 c 1,12,13
 507 679 507 679 814 679 c 2,14,-1
 832 679 l 1,15,-1
 829 845 l 1,16,17
 825 970 825 970 740 1033 c 0,18,19
 674 1082 674 1082 574.5 1082 c 128,-1,20
 475 1082 475 1082 415 1030.5 c 128,-1,21
 355 979 355 979 355 883 c 0,22,23
 355 850 355 850 363 810 c 1,24,-1
 191 810 l 1,25,26
 164 918 164 918 164 966 c 0,27,28
 164 1018 164 1018 169 1025 c 1,29,30
 169 1025 169 1025 210 1052 c 1,31,32
 438 1209 438 1209 674 1209 c 0,33,34
 912 1209 912 1209 988 1034 c 0,35,36
 1016 969 1016 969 1016 872 c 1,37,-1
 1000 339 l 1,38,39
 1000 231 1000 231 1065 184 c 0,40,41
 1111 150 1111 150 1181 150 c 1,42,43
 1177 102 1177 102 1144 63 c 0,44,45
 1085 -5 1085 -5 1044 -20 c 1,46,47
 1046 -22 1046 -22 1010.5 -41 c 128,-1,48
 975 -60 975 -60 941 -88 c 0,49,50
 854 -158 854 -158 854 -247 c 0,51,52
 854 -309 854 -309 904 -346 c 0,53,54
 949 -379 949 -379 1016.5 -379 c 128,-1,55
 1084 -379 1084 -379 1133 -356 c 1,56,-1
 1133 -444 l 1,57,58
 1054 -510 1054 -510 923 -510 c 0,59,60
 821 -510 821 -510 750 -452 c 0,61,62
 673 -390 673 -390 673 -289 c 128,-1,63
 673 -188 673 -188 777 -89 c 0,64,65
 836 -33 836 -33 928 19 c 1,0,1
821 300 m 1,66,67
 828 428 828 428 831 572 c 1,68,69
 814 577 814 577 757 577 c 128,-1,70
 700 577 700 577 614 559.5 c 128,-1,71
 528 542 528 542 464 508 c 0,72,73
 327 434 327 434 327 316 c 0,74,75
 327 232 327 232 383 176 c 0,76,77
 441 118 441 118 531 118 c 0,78,79
 643 118 643 118 760 218 c 0,80,81
 794 247 794 247 821 280 c 1,82,-1
 821 300 l 1,66,67
EndSplineSet
EndChar

StartChar: dcaron
Encoding: 271 271 228
Width: 1535
GlyphClass: 2
Flags: W
LayerCount: 2
Fore
SplineSet
1280 1160 m 1,0,1
 1397 1277 1397 1277 1397 1395 c 1,2,3
 1300 1405 1300 1405 1264 1498 c 0,4,5
 1253 1526 1253 1526 1253 1559 c 128,-1,6
 1253 1592 1253 1592 1265.5 1622 c 128,-1,7
 1278 1652 1278 1652 1300 1674 c 0,8,9
 1348 1722 1348 1722 1400 1722 c 128,-1,10
 1452 1722 1452 1722 1481.5 1707.5 c 128,-1,11
 1511 1693 1511 1693 1530 1667 c 0,12,13
 1570 1614 1570 1614 1570 1531.5 c 128,-1,14
 1570 1449 1570 1449 1544 1377 c 128,-1,15
 1518 1305 1518 1305 1483 1249.5 c 128,-1,16
 1448 1194 1448 1194 1413.5 1161 c 128,-1,17
 1379 1128 1379 1128 1361 1128 c 0,18,19
 1319 1128 1319 1128 1280 1160 c 1,0,1
726 1209 m 0,20,21
 829 1209 829 1209 934 1179 c 1,22,-1
 934 1216 l 2,23,24
 934 1436 934 1436 924 1465 c 128,-1,25
 914 1494 914 1494 902 1505.5 c 128,-1,26
 890 1517 890 1517 870 1524 c 128,-1,27
 850 1531 850 1531 826 1534 c 128,-1,28
 802 1537 802 1537 774 1537 c 2,29,-1
 719 1537 l 1,30,-1
 734 1649 l 1,31,-1
 1138 1705 l 1,32,33
 1138 1701 1138 1701 1136.5 1695 c 128,-1,34
 1135 1689 1135 1689 1133 1673.5 c 128,-1,35
 1131 1658 1131 1658 1128 1627.5 c 128,-1,36
 1125 1597 1125 1597 1123 1544 c 0,37,38
 1118 1412 1118 1412 1118 1216 c 2,39,-1
 1118 301 l 2,40,41
 1118 223 1118 223 1137 190 c 128,-1,42
 1156 157 1156 157 1193.5 157 c 128,-1,43
 1231 157 1231 157 1257 166 c 2,44,-1
 1309 182 l 1,45,46
 1307 170 1307 170 1306 149 c 128,-1,47
 1305 128 1305 128 1303 106 c 128,-1,48
 1301 84 1301 84 1300 59 c 1,49,-1
 993 -17 l 1,50,51
 984 -12 984 -12 964.5 46 c 128,-1,52
 945 104 945 104 939 130 c 1,53,54
 810 36 810 36 666 -2 c 0,55,56
 614 -15 614 -15 543.5 -15 c 128,-1,57
 473 -15 473 -15 390 21 c 128,-1,58
 307 57 307 57 246 128 c 0,59,60
 115 279 115 279 115 545 c 0,61,62
 115 815 115 815 286 1010 c 1,63,64
 458 1209 458 1209 726 1209 c 0,20,21
618 166 m 0,65,66
 674 167 674 167 727 178.5 c 128,-1,67
 780 190 780 190 824 204 c 0,68,69
 914 233 914 233 934 253 c 1,70,-1
 934 982 l 1,71,72
 891 1050 891 1050 760 1078 c 0,73,74
 722 1086 722 1086 662.5 1086 c 128,-1,75
 603 1086 603 1086 534 1059 c 128,-1,76
 465 1032 465 1032 416 972 c 0,77,78
 314 846 314 846 314 577 c 0,79,80
 314 395 314 395 408 276 c 0,81,82
 497 162 497 162 618 166 c 0,65,66
EndSplineSet
EndChar

StartChar: Dcroat
Encoding: 272 272 229
Width: 1539
GlyphClass: 2
Flags: W
LayerCount: 2
Fore
SplineSet
708 -15 m 1,0,-1
 373 -1 l 1,1,-1
 98 0 l 1,2,-1
 105 106 l 1,3,4
 196 106 196 106 226 132 c 0,5,6
 279 179 279 179 279 285 c 2,7,-1
 279 702 l 1,8,-1
 -14 702 l 1,9,-1
 -14 849 l 1,10,-1
 279 849 l 1,11,-1
 279 1230 l 2,12,13
 279 1336 279 1336 257 1368.5 c 128,-1,14
 235 1401 235 1401 213 1410 c 128,-1,15
 191 1419 191 1419 159.5 1419 c 128,-1,16
 128 1419 128 1419 97 1410 c 1,17,-1
 107 1530 l 1,18,-1
 353 1530 l 2,19,20
 402 1530 402 1530 444 1532.5 c 128,-1,21
 486 1535 486 1535 528 1538 c 1,22,23
 528 1538 528 1538 616 1542 c 0,24,25
 662 1545 662 1545 719 1545 c 0,26,27
 1101 1545 1101 1545 1295.5 1360.5 c 128,-1,28
 1490 1176 1490 1176 1490 809 c 0,29,30
 1490 438 1490 438 1276 211 c 0,31,32
 1063 -15 1063 -15 708 -15 c 1,0,-1
904 1402 m 0,33,34
 792 1433 792 1433 681 1433 c 128,-1,35
 570 1433 570 1433 482 1412 c 1,36,-1
 482 849 l 1,37,-1
 747 849 l 1,38,-1
 747 702 l 1,39,-1
 482 702 l 1,40,-1
 482 207 l 2,41,42
 482 155 482 155 490 143 c 128,-1,43
 498 131 498 131 513 125 c 128,-1,44
 528 119 528 119 558 116 c 0,45,46
 607 111 607 111 732.5 111 c 128,-1,47
 858 111 858 111 953.5 148 c 128,-1,48
 1049 185 1049 185 1118 264 c 0,49,50
 1264 431 1264 431 1264 763 c 0,51,52
 1264 1302 1264 1302 904 1402 c 0,33,34
EndSplineSet
EndChar

StartChar: dcroat
Encoding: 273 273 230
Width: 1362
GlyphClass: 2
Flags: W
LayerCount: 2
Fore
SplineSet
726 1209 m 0,0,1
 829 1209 829 1209 934 1179 c 1,2,-1
 934 1286 l 1,3,-1
 586 1286 l 1,4,-1
 604 1414 l 1,5,-1
 931 1414 l 1,6,7
 925 1484 925 1484 902 1504 c 1,8,9
 872 1537 872 1537 774 1537 c 2,10,-1
 719 1537 l 1,11,-1
 734 1649 l 1,12,-1
 1138 1705 l 1,13,14
 1138 1701 1138 1701 1137 1697 c 128,-1,15
 1136 1693 1136 1693 1134 1683 c 128,-1,16
 1132 1673 1132 1673 1130 1654.5 c 128,-1,17
 1128 1636 1128 1636 1126 1605 c 0,18,19
 1121 1521 1121 1521 1119 1414 c 1,20,-1
 1287 1414 l 1,21,-1
 1269 1286 l 1,22,-1
 1118 1286 l 1,23,-1
 1118 301 l 2,24,25
 1118 223 1118 223 1137 190 c 128,-1,26
 1156 157 1156 157 1193.5 157 c 128,-1,27
 1231 157 1231 157 1257 166 c 2,28,-1
 1309 182 l 1,29,30
 1307 170 1307 170 1306 149 c 128,-1,31
 1305 128 1305 128 1303 106 c 128,-1,32
 1301 84 1301 84 1300 59 c 1,33,-1
 993 -17 l 1,34,35
 984 -12 984 -12 964.5 46 c 128,-1,36
 945 104 945 104 939 130 c 1,37,38
 810 36 810 36 666 -2 c 0,39,40
 614 -15 614 -15 543.5 -15 c 128,-1,41
 473 -15 473 -15 390 21 c 128,-1,42
 307 57 307 57 246 128 c 0,43,44
 115 279 115 279 115 545 c 0,45,46
 115 815 115 815 286 1010 c 1,47,48
 458 1209 458 1209 726 1209 c 0,0,1
618 166 m 0,49,50
 674 167 674 167 727 178.5 c 128,-1,51
 780 190 780 190 824 204 c 0,52,53
 914 233 914 233 934 253 c 1,54,-1
 934 982 l 1,55,56
 891 1050 891 1050 760 1078 c 0,57,58
 722 1086 722 1086 662.5 1086 c 128,-1,59
 603 1086 603 1086 534 1059 c 128,-1,60
 465 1032 465 1032 416 972 c 0,61,62
 314 846 314 846 314 577 c 0,63,64
 314 395 314 395 408 276 c 0,65,66
 497 162 497 162 618 166 c 0,49,50
EndSplineSet
EndChar

StartChar: Eogonek
Encoding: 280 280 237
Width: 1368
GlyphClass: 2
Flags: W
LayerCount: 2
Fore
SplineSet
1223 -356 m 1,0,-1
 1223 -444 l 1,1,2
 1144 -510 1144 -510 1013 -510 c 0,3,4
 911 -510 911 -510 840 -452 c 0,5,6
 763 -390 763 -390 763 -289 c 0,7,8
 763 -134 763 -134 952 -16 c 0,9,10
 970 -5 970 -5 977 0 c 1,11,-1
 93 0 l 1,12,-1
 110 106 l 1,13,14
 210 106 210 106 242 150 c 0,15,16
 270 189 270 189 270 306 c 2,17,-1
 270 1222 l 2,18,19
 270 1418 270 1418 176 1418 c 0,20,21
 135 1418 135 1418 106 1411 c 1,22,-1
 118 1530 l 1,23,-1
 889 1530 l 2,24,25
 1139 1530 1139 1530 1244 1545 c 1,26,27
 1244 1321 1244 1321 1199 1171 c 1,28,-1
 1111 1171 l 1,29,30
 1101 1333 1101 1333 1047 1377 c 0,31,32
 1017 1401 1017 1401 969 1407 c 128,-1,33
 921 1413 921 1413 849 1413 c 2,34,-1
 473 1413 l 1,35,-1
 473 872 l 1,36,-1
 688 872 l 2,37,38
 792 872 792 872 826 915 c 0,39,40
 842 936 842 936 847.5 968 c 128,-1,41
 853 1000 853 1000 858 1042 c 1,42,-1
 967 1043 l 1,43,-1
 967 995 l 2,44,45
 967 853 967 853 959 734 c 2,46,-1
 948 569 l 1,47,-1
 838 569 l 1,48,49
 831 682 831 682 811 711.5 c 128,-1,50
 791 741 791 741 761.5 752 c 128,-1,51
 732 763 732 763 682 763 c 2,52,-1
 473 763 l 1,53,-1
 473 278 l 2,54,55
 473 177 473 177 511 146 c 128,-1,56
 549 115 549 115 673 111 c 1,57,-1
 864 111 l 2,58,59
 1070 111 1070 111 1148 284 c 0,60,61
 1172 339 1172 339 1180 407 c 1,62,-1
 1290 407 l 1,63,64
 1290 296 1290 296 1268 170 c 2,65,-1
 1237 0 l 1,66,-1
 1221 0 l 1,67,68
 1142 -9 1142 -9 1055 -65 c 0,69,70
 944 -137 944 -137 944 -247 c 0,71,72
 944 -309 944 -309 994 -346 c 0,73,74
 1039 -379 1039 -379 1106.5 -379 c 128,-1,75
 1174 -379 1174 -379 1223 -356 c 1,0,-1
EndSplineSet
EndChar

StartChar: eogonek
Encoding: 281 281 238
Width: 1195
GlyphClass: 2
Flags: W
LayerCount: 2
Fore
SplineSet
1015 -448 m 1,0,1
 917 -510 917 -510 790 -510 c 0,2,3
 695 -510 695 -510 626 -455 c 0,4,5
 549 -394 549 -394 549 -299 c 0,6,7
 549 -137 549 -137 736 0 c 1,8,9
 670 -17 670 -17 618 -17 c 0,10,11
 370 -17 370 -17 241 135 c 0,12,13
 116 282 116 282 116 560 c 0,14,15
 116 846 116 846 284 1032 c 0,16,17
 360 1117 360 1117 458 1163 c 128,-1,18
 556 1209 556 1209 661 1209 c 0,19,20
 1081 1209 1081 1209 1081 723 c 2,21,-1
 1081 686 l 2,22,23
 1081 588 1081 588 1058 588 c 2,24,-1
 312 588 l 1,25,26
 312 373 312 373 404 263 c 128,-1,27
 496 153 496 153 675 153 c 1,28,29
 866 163 866 163 1021 245 c 1,30,-1
 1063 166 l 1,31,32
 1024 134 1024 134 986 110 c 1,33,34
 740 -107 740 -107 740 -256 c 0,35,36
 740 -382 740 -382 878 -382 c 0,37,38
 927 -382 927 -382 1015 -360 c 1,39,-1
 1015 -448 l 1,0,1
866 712 m 1,40,41
 867 734 867 734 867 746 c 2,42,-1
 867 780 l 2,43,44
 867 940 867 940 811 1013 c 0,45,46
 750 1092 750 1092 614 1092 c 0,47,48
 495 1092 495 1092 402 965 c 0,49,50
 312 841 312 841 312 688 c 1,51,-1
 866 712 l 1,40,41
EndSplineSet
EndChar

StartChar: hcircumflex
Encoding: 293 293 250
Width: 1365
GlyphClass: 2
Flags: W
LayerCount: 2
Fore
SplineSet
763 1031 m 0,0,1
 600 1031 600 1031 408 906 c 1,2,-1
 408 207 l 2,3,4
 408 143 408 143 424 126 c 1,5,6
 449 102 449 102 492 102 c 0,7,8
 555 102 555 102 588 111 c 1,9,-1
 573 0 l 1,10,-1
 64 0 l 1,11,-1
 80 102 l 1,12,13
 175 102 175 102 201 160 c 0,14,15
 222 205 222 205 222 356 c 2,16,-1
 222 1298 l 2,17,18
 222 1402 222 1402 198 1429.5 c 128,-1,19
 174 1457 174 1457 139 1462 c 128,-1,20
 104 1467 104 1467 68 1467 c 2,21,-1
 30 1467 l 1,22,-1
 42 1579 l 1,23,-1
 429 1636 l 1,24,25
 408 1539 408 1539 408 1197 c 2,26,-1
 408 1017 l 1,27,-1
 474 1070 l 1,28,29
 654 1209 654 1209 843 1209 c 0,30,31
 1061 1209 1061 1209 1132 1011 c 0,32,33
 1156 944 1156 944 1156 866.5 c 128,-1,34
 1156 789 1156 789 1153 723.5 c 128,-1,35
 1150 658 1150 658 1146 592 c 0,36,37
 1134 394 1134 394 1134 342 c 2,38,-1
 1134 278 l 1,39,-1
 1135 198 l 1,40,41
 1135 113 1135 113 1178 104 c 0,42,43
 1192 102 1192 102 1208 102 c 0,44,45
 1248 102 1248 102 1293 111 c 1,46,-1
 1281 0 l 1,47,-1
 780 0 l 1,48,-1
 795 102 l 1,49,50
 912 102 912 102 938 188 c 1,51,52
 963 277 963 277 965.5 412.5 c 128,-1,53
 968 548 968 548 968 617.5 c 128,-1,54
 968 687 968 687 966.5 728.5 c 128,-1,55
 965 770 965 770 959 812 c 128,-1,56
 953 854 953 854 940.5 893.5 c 128,-1,57
 928 933 928 933 905 964 c 0,58,59
 854 1031 854 1031 763 1031 c 0,0,1
289 1771 m 1,60,-1
 680 2040 l 1,61,-1
 1065 1779 l 1,62,-1
 1004 1673 l 1,63,-1
 680 1829 l 1,64,-1
 343 1673 l 1,65,-1
 289 1771 l 1,60,-1
EndSplineSet
EndChar

StartChar: Hbar
Encoding: 294 294 251
Width: 1706
GlyphClass: 2
Flags: W
LayerCount: 2
Fore
SplineSet
273 1222 m 2,0,1
 273 1418 273 1418 180 1418 c 0,2,3
 140 1418 140 1418 109 1411 c 1,4,-1
 121 1530 l 1,5,-1
 642 1530 l 1,6,-1
 627 1418 l 1,7,8
 581 1418 581 1418 551.5 1413 c 128,-1,9
 522 1408 522 1408 506 1388 c 0,10,11
 476 1351 476 1351 476 1209 c 2,12,-1
 476 1183 l 1,13,-1
 1230 1183 l 1,14,-1
 1230 1215 l 2,15,16
 1230 1345 1230 1345 1215.5 1374.5 c 128,-1,17
 1201 1404 1201 1404 1183.5 1411 c 128,-1,18
 1166 1418 1166 1418 1134 1418 c 0,19,20
 1087 1418 1087 1418 1042 1408 c 1,21,-1
 1060 1530 l 1,22,-1
 1603 1530 l 1,23,-1
 1589 1418 l 1,24,25
 1500 1418 1500 1418 1470 1380 c 1,26,27
 1433 1336 1433 1336 1433 1214 c 2,28,-1
 1433 1183 l 1,29,-1
 1652 1183 l 1,30,-1
 1623 1079 l 1,31,-1
 1433 1079 l 1,32,-1
 1433 257 l 2,33,34
 1433 172 1433 172 1450 146 c 0,35,36
 1477 106 1477 106 1524 106 c 0,37,38
 1560 106 1560 106 1601 118 c 1,39,-1
 1589 0 l 1,40,-1
 1051 0 l 1,41,-1
 1069 106 l 1,42,43
 1166 106 1166 106 1200 159 c 0,44,45
 1230 205 1230 205 1230 326 c 2,46,-1
 1230 728 l 1,47,-1
 476 728 l 1,48,-1
 476 268 l 2,49,50
 476 161 476 161 486.5 138 c 128,-1,51
 497 115 497 115 511 110.5 c 128,-1,52
 525 106 525 106 555 106 c 0,53,54
 602 106 602 106 662 120 c 1,55,-1
 647 0 l 1,56,-1
 96 0 l 1,57,-1
 113 106 l 1,58,59
 213 106 213 106 245 150 c 0,60,61
 273 189 273 189 273 306 c 2,62,-1
 273 1079 l 1,63,-1
 43 1079 l 1,64,-1
 72 1183 l 1,65,-1
 273 1183 l 1,66,-1
 273 1222 l 2,0,1
1230 850 m 1,67,-1
 1230 1079 l 1,68,-1
 476 1079 l 1,69,-1
 476 850 l 1,70,-1
 1230 850 l 1,67,-1
EndSplineSet
EndChar

StartChar: hbar
Encoding: 295 295 252
Width: 1365
GlyphClass: 2
Flags: W
LayerCount: 2
Fore
SplineSet
763 1031 m 0,0,1
 600 1031 600 1031 408 906 c 1,2,-1
 408 207 l 2,3,4
 408 143 408 143 424 126 c 1,5,6
 449 102 449 102 492 102 c 0,7,8
 555 102 555 102 588 111 c 1,9,-1
 573 0 l 1,10,-1
 64 0 l 1,11,-1
 80 102 l 1,12,13
 175 102 175 102 201 160 c 0,14,15
 222 205 222 205 222 356 c 2,16,-1
 222 1247 l 1,17,-1
 38 1247 l 1,18,-1
 57 1379 l 1,19,-1
 222 1379 l 1,20,21
 220 1474 220 1474 197 1500.5 c 128,-1,22
 174 1527 174 1527 139 1532 c 128,-1,23
 104 1537 104 1537 68 1537 c 2,24,-1
 30 1537 l 1,25,-1
 42 1649 l 1,26,-1
 429 1706 l 1,27,28
 412 1635 412 1635 409 1379 c 1,29,-1
 609 1379 l 1,30,-1
 590 1247 l 1,31,-1
 408 1247 l 1,32,-1
 408 1017 l 1,33,-1
 474 1070 l 1,34,35
 654 1209 654 1209 843 1209 c 0,36,37
 1061 1209 1061 1209 1132 1011 c 0,38,39
 1156 944 1156 944 1156 866.5 c 128,-1,40
 1156 789 1156 789 1153 723.5 c 128,-1,41
 1150 658 1150 658 1146 592 c 0,42,43
 1134 394 1134 394 1134 342 c 2,44,-1
 1134 278 l 1,45,-1
 1135 198 l 1,46,47
 1135 113 1135 113 1178 104 c 0,48,49
 1192 102 1192 102 1208 102 c 0,50,51
 1248 102 1248 102 1293 111 c 1,52,-1
 1281 0 l 1,53,-1
 780 0 l 1,54,-1
 795 102 l 1,55,56
 912 102 912 102 938 188 c 1,57,58
 963 277 963 277 965.5 412.5 c 128,-1,59
 968 548 968 548 968 617.5 c 128,-1,60
 968 687 968 687 966.5 728.5 c 128,-1,61
 965 770 965 770 959 812 c 128,-1,62
 953 854 953 854 940.5 893.5 c 128,-1,63
 928 933 928 933 905 964 c 0,64,65
 854 1031 854 1031 763 1031 c 0,0,1
EndSplineSet
EndChar

StartChar: Imacron
Encoding: 298 298 255
Width: 853
GlyphClass: 2
Flags: W
LayerCount: 2
Fore
SplineSet
114 1973 m 1,0,-1
 753 1973 l 1,1,-1
 734 1820 l 1,2,-1
 95 1820 l 1,3,-1
 114 1973 l 1,0,-1
132 106 m 1,4,5
 229 106 229 106 274 153 c 0,6,7
 325 206 325 206 325 340 c 2,8,-1
 324 1215 l 2,9,10
 324 1335 324 1335 304.5 1369.5 c 128,-1,11
 285 1404 285 1404 268 1411 c 128,-1,12
 251 1418 251 1418 228 1418 c 0,13,14
 163 1418 163 1418 129 1411 c 1,15,-1
 145 1530 l 1,16,-1
 717 1530 l 1,17,-1
 701 1418 l 1,18,19
 588 1418 588 1418 557 1380 c 0,20,21
 528 1346 528 1346 528 1222 c 2,22,-1
 528 270 l 2,23,24
 528 173 528 173 544 148 c 0,25,26
 571 106 571 106 648 106 c 0,27,28
 659 106 659 106 680 110 c 2,29,-1
 712 115 l 2,30,31
 724 117 724 117 733 119 c 1,32,-1
 721 0 l 1,33,-1
 121 0 l 1,34,-1
 132 106 l 1,4,5
EndSplineSet
EndChar

StartChar: imacron
Encoding: 299 299 256
Width: 683
GlyphClass: 2
Flags: W
LayerCount: 2
Fore
SplineSet
42 1621 m 1,0,-1
 716 1621 l 1,1,-1
 696 1463 l 1,2,-1
 22 1463 l 1,3,-1
 42 1621 l 1,0,-1
137 102 m 1,4,5
 235 102 235 102 270 158 c 0,6,7
 299 204 299 204 299 312 c 2,8,-1
 299 837 l 2,9,10
 299 964 299 964 255 1002 c 0,11,12
 220 1031 220 1031 101 1031 c 1,13,-1
 117 1155 l 1,14,-1
 517 1209 l 1,15,16
 473 1086 473 1086 473 698 c 1,17,-1
 480 231 l 2,18,19
 480 165 480 165 496 142 c 0,20,21
 524 102 524 102 582 102 c 0,22,23
 632 102 632 102 657 111 c 1,24,-1
 644 0 l 1,25,-1
 119 0 l 1,26,-1
 137 102 l 1,4,5
EndSplineSet
EndChar

StartChar: Iogonek
Encoding: 302 302 259
Width: 853
GlyphClass: 2
Flags: W
LayerCount: 2
Fore
SplineSet
415 -371 m 128,-1,1
 444 -379 444 -379 493.5 -379 c 128,-1,2
 543 -379 543 -379 592 -356 c 1,3,-1
 592 -444 l 1,4,5
 513 -510 513 -510 382 -510 c 0,6,7
 280 -510 280 -510 209 -452 c 0,8,9
 132 -390 132 -390 132 -289 c 0,10,11
 132 -182 132 -182 212 -88 c 0,12,13
 258 -35 258 -35 314 0 c 1,14,-1
 121 0 l 1,15,-1
 132 106 l 1,16,17
 229 106 229 106 274 153 c 0,18,19
 325 206 325 206 325 340 c 2,20,-1
 324 1215 l 2,21,22
 324 1335 324 1335 304.5 1369.5 c 128,-1,23
 285 1404 285 1404 268 1411 c 128,-1,24
 251 1418 251 1418 228 1418 c 0,25,26
 163 1418 163 1418 129 1411 c 1,27,-1
 145 1530 l 1,28,-1
 717 1530 l 1,29,-1
 701 1418 l 1,30,31
 588 1418 588 1418 557 1380 c 0,32,33
 528 1346 528 1346 528 1222 c 2,34,-1
 528 270 l 2,35,36
 528 173 528 173 544 148 c 0,37,38
 571 106 571 106 648 106 c 0,39,40
 659 106 659 106 680 110 c 2,41,-1
 712 115 l 2,42,43
 724 117 724 117 733 119 c 1,44,-1
 721 0 l 1,45,-1
 558 0 l 1,46,47
 482 -8 482 -8 425.5 -51.5 c 128,-1,48
 369 -95 369 -95 341 -140.5 c 128,-1,49
 313 -186 313 -186 313 -233.5 c 128,-1,50
 313 -281 313 -281 327 -305.5 c 128,-1,51
 341 -330 341 -330 363.5 -346.5 c 128,-1,0
 386 -363 386 -363 415 -371 c 128,-1,1
EndSplineSet
EndChar

StartChar: iogonek
Encoding: 303 303 260
Width: 683
GlyphClass: 2
Flags: W
LayerCount: 2
Fore
SplineSet
431.5 1411.5 m 128,-1,1
 405 1400 405 1400 373 1400 c 128,-1,2
 341 1400 341 1400 313 1411.5 c 128,-1,3
 285 1423 285 1423 264 1442 c 1,4,5
 221 1484 221 1484 221 1533 c 128,-1,6
 221 1582 221 1582 232.5 1611 c 128,-1,7
 244 1640 244 1640 264 1661 c 0,8,9
 307 1705 307 1705 374 1705 c 0,10,11
 437 1705 437 1705 478 1661 c 0,12,13
 519 1616 519 1616 519 1566 c 128,-1,14
 519 1516 519 1516 508 1489 c 128,-1,15
 497 1462 497 1462 477.5 1442.5 c 128,-1,0
 458 1423 458 1423 431.5 1411.5 c 128,-1,1
389 -371 m 128,-1,17
 418 -379 418 -379 467.5 -379 c 128,-1,18
 517 -379 517 -379 566 -356 c 1,19,-1
 566 -444 l 1,20,21
 487 -510 487 -510 356 -510 c 0,22,23
 254 -510 254 -510 183 -452 c 0,24,25
 106 -390 106 -390 106 -289 c 0,26,27
 106 -182 106 -182 186 -88 c 0,28,29
 232 -35 232 -35 288 0 c 1,30,-1
 104 0 l 1,31,-1
 122 102 l 1,32,33
 220 102 220 102 255 158 c 0,34,35
 284 204 284 204 284 312 c 2,36,-1
 284 837 l 2,37,38
 284 964 284 964 240 1002 c 0,39,40
 205 1031 205 1031 86 1031 c 1,41,-1
 102 1155 l 1,42,-1
 502 1209 l 1,43,44
 458 1086 458 1086 458 698 c 1,45,-1
 465 231 l 2,46,47
 465 165 465 165 481 142 c 0,48,49
 509 102 509 102 567 102 c 0,50,51
 617 102 617 102 642 111 c 1,52,-1
 629 0 l 1,53,-1
 532 0 l 1,54,55
 456 -8 456 -8 399.5 -51.5 c 128,-1,56
 343 -95 343 -95 315 -140.5 c 128,-1,57
 287 -186 287 -186 287 -233.5 c 128,-1,58
 287 -281 287 -281 301 -305.5 c 128,-1,59
 315 -330 315 -330 337.5 -346.5 c 128,-1,16
 360 -363 360 -363 389 -371 c 128,-1,17
EndSplineSet
EndChar

StartChar: dotlessi
Encoding: 305 305 262
Width: 683
GlyphClass: 2
Flags: W
LayerCount: 2
Fore
SplineSet
122 102 m 1,0,1
 220 102 220 102 255 158 c 0,2,3
 284 204 284 204 284 312 c 2,4,-1
 284 837 l 2,5,6
 284 964 284 964 240 1002 c 0,7,8
 205 1031 205 1031 86 1031 c 1,9,-1
 102 1155 l 1,10,-1
 502 1209 l 1,11,12
 458 1086 458 1086 458 698 c 1,13,-1
 465 231 l 2,14,15
 465 165 465 165 481 142 c 0,16,17
 509 102 509 102 567 102 c 0,18,19
 617 102 617 102 642 111 c 1,20,-1
 629 0 l 1,21,-1
 104 0 l 1,22,-1
 122 102 l 1,0,1
EndSplineSet
EndChar

StartChar: kgreenlandic
Encoding: 312 312 269
Width: 1191
GlyphClass: 2
Flags: W
LayerCount: 2
Fore
SplineSet
409 1209 m 1,0,1
 399 1129 399 1129 399 1025 c 2,2,-1
 399 727 l 1,3,-1
 401 237 l 2,4,5
 401 143 401 143 412 125.5 c 128,-1,6
 423 108 423 108 438 105 c 128,-1,7
 453 102 453 102 472 102 c 0,8,9
 506 102 506 102 548 112 c 1,10,-1
 535 0 l 1,11,-1
 45 0 l 1,12,-1
 62 102 l 1,13,14
 149 102 149 102 180 146 c 0,15,16
 213 192 213 192 213 312 c 2,17,-1
 213 830 l 2,18,19
 213 950 213 950 183 990 c 0,20,21
 153 1031 153 1031 49 1031 c 1,22,-1
 65 1155 l 1,23,-1
 409 1209 l 1,0,1
412 631 m 1,24,25
 488 700 488 700 532 744 c 2,26,-1
 618 832 l 1,27,28
 775 995 775 995 775 1035 c 0,29,30
 775 1082 775 1082 686 1082 c 0,31,32
 668 1082 668 1082 662 1083 c 1,33,-1
 675 1190 l 1,34,-1
 1154 1190 l 1,35,36
 1153 1170 1153 1170 1151 1152 c 2,37,-1
 1147 1116 l 2,38,39
 1145 1097 1145 1097 1143 1083 c 1,40,-1
 1122 1083 l 2,41,42
 1071 1083 1071 1083 1000 1032 c 1,43,-1
 968 1010 l 1,44,45
 935 986 935 986 897 954 c 1,46,47
 795 863 795 863 755 823 c 0,48,49
 670 736 670 736 650 714.5 c 128,-1,50
 630 693 630 693 629 692 c 1,51,-1
 854 376 l 1,52,53
 931 273 931 273 976 219 c 0,54,55
 1071 105 1071 105 1168 105 c 0,56,57
 1182 105 1182 105 1206 108 c 1,58,-1
 1192 0 l 1,59,-1
 898 0 l 2,60,61
 859 0 859 0 728 192 c 1,62,-1
 508 518 l 1,63,64
 436 621 436 621 412 631 c 1,24,25
EndSplineSet
EndChar

StartChar: lacute
Encoding: 314 314 271
Width: 683
GlyphClass: 2
Flags: W
LayerCount: 2
Fore
SplineSet
81 102 m 1,0,1
 228 102 228 102 252 174 c 0,2,3
 261 200 261 200 261 236 c 2,4,-1
 261 1298 l 2,5,6
 261 1403 261 1403 231 1435 c 1,7,8
 205 1467 205 1467 98 1467 c 2,9,-1
 59 1467 l 1,10,-1
 71 1579 l 1,11,-1
 468 1636 l 1,12,13
 451 1535 451 1535 449.5 1423 c 128,-1,14
 448 1311 448 1311 448 1199 c 2,15,-1
 448 1127 l 1,16,-1
 450 237 l 2,17,18
 450 155 450 155 463.5 133.5 c 128,-1,19
 477 112 477 112 493.5 107 c 128,-1,20
 510 102 510 102 530 102 c 128,-1,21
 550 102 550 102 566.5 102.5 c 128,-1,22
 583 103 583 103 598 104 c 0,23,24
 635 108 635 108 646 111 c 1,25,-1
 631 0 l 1,26,-1
 64 0 l 1,27,-1
 81 102 l 1,0,1
42 1785 m 1,28,-1
 595 2040 l 1,29,-1
 665 1852 l 1,30,-1
 80 1671 l 1,31,-1
 42 1785 l 1,28,-1
EndSplineSet
EndChar

StartChar: Lcaron
Encoding: 317 317 274
Width: 1367
GlyphClass: 2
Flags: W
LayerCount: 2
Fore
SplineSet
895 1160 m 1,0,1
 1012 1277 1012 1277 1012 1395 c 1,2,3
 915 1405 915 1405 879 1498 c 0,4,5
 868 1526 868 1526 868 1559 c 128,-1,6
 868 1592 868 1592 880.5 1622 c 128,-1,7
 893 1652 893 1652 915 1674 c 0,8,9
 963 1722 963 1722 1015 1722 c 128,-1,10
 1067 1722 1067 1722 1096.5 1707.5 c 128,-1,11
 1126 1693 1126 1693 1146 1667 c 0,12,13
 1185 1614 1185 1614 1185 1531.5 c 128,-1,14
 1185 1449 1185 1449 1159 1377 c 128,-1,15
 1133 1305 1133 1305 1098 1249.5 c 128,-1,16
 1063 1194 1063 1194 1028.5 1161 c 128,-1,17
 994 1128 994 1128 976 1128 c 0,18,19
 934 1128 934 1128 895 1160 c 1,0,1
1138 446 m 1,20,-1
 1268 441 l 1,21,22
 1273 386 1273 386 1273 340.5 c 128,-1,23
 1273 295 1273 295 1266.5 240.5 c 128,-1,24
 1260 186 1260 186 1252.5 139.5 c 128,-1,25
 1245 93 1245 93 1237.5 57 c 128,-1,26
 1230 21 1230 21 1229 0 c 1,27,-1
 68 0 l 1,28,-1
 80 111 l 1,29,30
 177 109 177 109 216 150 c 0,31,32
 260 197 260 197 260 330 c 2,33,-1
 259 1249 l 2,34,35
 259 1358 259 1358 244 1383 c 128,-1,36
 229 1408 229 1408 212 1413 c 128,-1,37
 195 1418 195 1418 171 1418 c 0,38,39
 140 1418 140 1418 92 1408 c 1,40,-1
 108 1530 l 1,41,-1
 696 1530 l 1,42,-1
 682 1417 l 1,43,44
 553 1417 553 1417 520.5 1396.5 c 128,-1,45
 488 1376 488 1376 476.5 1343.5 c 128,-1,46
 465 1311 465 1311 465 1255 c 1,47,-1
 466 1224 l 1,48,-1
 466 279 l 2,49,50
 466 128 466 128 568 111 c 0,51,52
 599 106 599 106 634 106 c 2,53,-1
 799 106 l 2,54,55
 1000 106 1000 106 1072 211 c 0,56,57
 1113 270 1113 270 1123 336 c 128,-1,58
 1133 402 1133 402 1138 446 c 1,20,-1
EndSplineSet
EndChar

StartChar: lcaron
Encoding: 318 318 275
Width: 855
GlyphClass: 2
Flags: W
LayerCount: 2
Fore
SplineSet
608 1160 m 1,0,1
 725 1277 725 1277 725 1395 c 1,2,3
 628 1405 628 1405 592 1498 c 0,4,5
 581 1526 581 1526 581 1559 c 128,-1,6
 581 1592 581 1592 593.5 1622 c 128,-1,7
 606 1652 606 1652 628 1674 c 0,8,9
 676 1722 676 1722 728 1722 c 128,-1,10
 780 1722 780 1722 809.5 1707.5 c 128,-1,11
 839 1693 839 1693 858 1667 c 0,12,13
 898 1614 898 1614 898 1531.5 c 128,-1,14
 898 1449 898 1449 872 1377 c 128,-1,15
 846 1305 846 1305 811 1249.5 c 128,-1,16
 776 1194 776 1194 741.5 1161 c 128,-1,17
 707 1128 707 1128 689 1128 c 0,18,19
 647 1128 647 1128 608 1160 c 1,0,1
81 102 m 1,20,21
 228 102 228 102 252 174 c 0,22,23
 261 200 261 200 261 236 c 2,24,-1
 261 1368 l 2,25,26
 261 1473 261 1473 231 1505 c 1,27,28
 205 1537 205 1537 98 1537 c 2,29,-1
 59 1537 l 1,30,-1
 71 1649 l 1,31,-1
 468 1706 l 1,32,33
 451 1605 451 1605 449.5 1493 c 128,-1,34
 448 1381 448 1381 448 1269 c 2,35,-1
 448 1197 l 1,36,-1
 450 237 l 2,37,38
 450 155 450 155 463.5 133.5 c 128,-1,39
 477 112 477 112 493.5 107 c 128,-1,40
 510 102 510 102 530 102 c 128,-1,41
 550 102 550 102 566.5 102.5 c 128,-1,42
 583 103 583 103 598 104 c 0,43,44
 635 108 635 108 646 111 c 1,45,-1
 631 0 l 1,46,-1
 64 0 l 1,47,-1
 81 102 l 1,20,21
EndSplineSet
EndChar

StartChar: Lslash
Encoding: 321 321 278
Width: 1367
GlyphClass: 2
Flags: W
LayerCount: 2
Fore
SplineSet
1138 446 m 1,0,-1
 1268 441 l 1,1,2
 1273 386 1273 386 1273 340.5 c 128,-1,3
 1273 295 1273 295 1266.5 240.5 c 128,-1,4
 1260 186 1260 186 1252.5 139.5 c 128,-1,5
 1245 93 1245 93 1237.5 57 c 128,-1,6
 1230 21 1230 21 1229 0 c 1,7,-1
 68 0 l 1,8,-1
 80 111 l 1,9,10
 177 109 177 109 216 150 c 0,11,12
 260 197 260 197 260 330 c 2,13,-1
 259 637 l 1,14,-1
 61 561 l 1,15,-1
 24 700 l 1,16,-1
 259 790 l 1,17,-1
 259 1249 l 2,18,19
 259 1358 259 1358 244 1383 c 128,-1,20
 229 1408 229 1408 212 1413 c 128,-1,21
 195 1418 195 1418 171 1418 c 0,22,23
 140 1418 140 1418 92 1408 c 1,24,-1
 108 1530 l 1,25,-1
 696 1530 l 1,26,-1
 682 1417 l 1,27,28
 553 1417 553 1417 520.5 1396.5 c 128,-1,29
 488 1376 488 1376 476.5 1343.5 c 128,-1,30
 465 1311 465 1311 465 1255 c 1,31,-1
 466 1224 l 1,32,-1
 466 870 l 1,33,-1
 827 1009 l 1,34,-1
 864 871 l 1,35,-1
 466 717 l 1,36,-1
 466 279 l 2,37,38
 466 128 466 128 568 111 c 0,39,40
 599 106 599 106 634 106 c 2,41,-1
 799 106 l 2,42,43
 1000 106 1000 106 1072 211 c 0,44,45
 1113 270 1113 270 1123 336 c 128,-1,46
 1133 402 1133 402 1138 446 c 1,0,-1
EndSplineSet
EndChar

StartChar: lslash
Encoding: 322 322 279
Width: 683
GlyphClass: 2
Flags: W
LayerCount: 2
Fore
SplineSet
81 102 m 1,0,1
 228 102 228 102 252 174 c 0,2,3
 261 200 261 200 261 236 c 2,4,-1
 261 748 l 1,5,-1
 92 685 l 1,6,-1
 53 833 l 1,7,-1
 261 910 l 1,8,-1
 261 1368 l 2,9,10
 261 1473 261 1473 231 1505 c 1,11,12
 205 1537 205 1537 98 1537 c 2,13,-1
 59 1537 l 1,14,-1
 71 1649 l 1,15,-1
 468 1706 l 1,16,17
 451 1605 451 1605 449.5 1493 c 128,-1,18
 448 1381 448 1381 448 1269 c 2,19,-1
 448 980 l 1,20,-1
 647 1055 l 1,21,-1
 686 908 l 1,22,-1
 449 819 l 1,23,-1
 450 237 l 2,24,25
 450 155 450 155 463.5 133.5 c 128,-1,26
 477 112 477 112 493.5 107 c 128,-1,27
 510 102 510 102 530 102 c 128,-1,28
 550 102 550 102 566.5 102.5 c 128,-1,29
 583 103 583 103 598 104 c 0,30,31
 635 108 635 108 646 111 c 1,32,-1
 631 0 l 1,33,-1
 64 0 l 1,34,-1
 81 102 l 1,0,1
EndSplineSet
EndChar

StartChar: Eng
Encoding: 330 330 286
Width: 1705
GlyphClass: 2
Flags: W
LayerCount: 2
Fore
SplineSet
1493 252 m 2,0,1
 1493 96 1493 96 1498 16 c 1,2,3
 1498 -97 1498 -97 1376 -280 c 0,4,5
 1304 -387 1304 -387 1242 -443.5 c 128,-1,6
 1180 -500 1180 -500 1144 -520 c 1,7,-1
 1073 -448 l 1,8,-1
 1162 -324 l 1,9,10
 1248 -199 1248 -199 1275.5 -95.5 c 128,-1,11
 1303 8 1303 8 1308 105 c 1,12,-1
 1188 272 l 1,13,-1
 896 652 l 1,14,-1
 407 1266 l 1,15,-1
 407 300 l 2,16,17
 407 193 407 193 427.5 159.5 c 128,-1,18
 448 126 448 126 469.5 116 c 128,-1,19
 491 106 491 106 524 106 c 0,20,21
 571 106 571 106 649 119 c 1,22,-1
 637 0 l 1,23,-1
 91 0 l 1,24,-1
 104 106 l 1,25,26
 196 106 196 106 224 127 c 0,27,28
 276 166 276 166 276 283 c 2,29,-1
 276 1222 l 2,30,31
 276 1337 276 1337 262 1365 c 128,-1,32
 248 1393 248 1393 229 1401.5 c 128,-1,33
 210 1410 210 1410 184 1410 c 0,34,35
 144 1410 144 1410 87 1400 c 1,36,-1
 102 1530 l 1,37,-1
 497 1530 l 1,38,39
 518 1446 518 1446 587 1359 c 1,40,-1
 975 856 l 1,41,-1
 1361 368 l 1,42,-1
 1361 1245 l 2,43,44
 1361 1364 1361 1364 1348 1387 c 128,-1,45
 1335 1410 1335 1410 1317 1414.5 c 128,-1,46
 1299 1419 1299 1419 1280 1419 c 128,-1,47
 1261 1419 1261 1419 1248.5 1418 c 128,-1,48
 1236 1417 1236 1417 1222 1416 c 2,49,-1
 1193 1412 l 1,50,51
 1178 1411 1178 1411 1166 1409 c 1,52,-1
 1177 1530 l 1,53,-1
 1678 1530 l 1,54,-1
 1664 1419 l 1,55,56
 1607 1419 1607 1419 1573 1417 c 128,-1,57
 1539 1415 1539 1415 1522 1402 c 0,58,59
 1493 1380 1493 1380 1493 1270 c 2,60,-1
 1493 252 l 2,0,1
EndSplineSet
EndChar

StartChar: eng
Encoding: 331 331 287
Width: 1365
GlyphClass: 2
Flags: W
LayerCount: 2
Fore
SplineSet
111 102 m 1,0,1
 194 102 194 102 222 144 c 1,2,3
 255 191 255 191 255 345 c 2,4,-1
 255 830 l 2,5,6
 255 951 255 951 224 990 c 1,7,8
 194 1031 194 1031 91 1031 c 1,9,-1
 107 1155 l 1,10,-1
 453 1209 l 1,11,12
 438 1119 438 1119 438 1025 c 1,13,14
 588 1156 588 1156 748 1198 c 0,15,16
 793 1209 793 1209 848.5 1209 c 128,-1,17
 904 1209 904 1209 963 1190 c 128,-1,18
 1022 1171 1022 1171 1066 1128 c 0,19,20
 1163 1036 1163 1036 1163 852 c 2,21,-1
 1163 596 l 2,22,23
 1163 215 1163 215 1166 115 c 128,-1,24
 1169 15 1169 15 1155.5 -58.5 c 128,-1,25
 1142 -132 1142 -132 1102 -208 c 0,26,27
 1016 -371 1016 -371 798 -520 c 1,28,-1
 730 -466 l 1,29,-1
 802 -372 l 1,30,31
 922 -208 922 -208 953 -45 c 1,32,33
 981 110 981 110 981 261 c 2,34,-1
 981 670 l 2,35,36
 981 883 981 883 953 937.5 c 128,-1,37
 925 992 925 992 881 1011.5 c 128,-1,38
 837 1031 837 1031 773 1031 c 128,-1,39
 709 1031 709 1031 658.5 1017 c 128,-1,40
 608 1003 608 1003 564.5 984 c 128,-1,41
 521 965 521 965 488 945 c 2,42,-1
 438 914 l 1,43,-1
 438 240 l 2,44,45
 438 147 438 147 453 128 c 128,-1,46
 468 109 468 109 487.5 105.5 c 128,-1,47
 507 102 507 102 526 102 c 128,-1,48
 545 102 545 102 555.5 102.5 c 128,-1,49
 566 103 566 103 577 104.5 c 128,-1,50
 588 106 588 106 599 107.5 c 128,-1,51
 610 109 610 109 618 111 c 1,52,-1
 603 0 l 1,53,-1
 95 0 l 1,54,-1
 111 102 l 1,0,1
EndSplineSet
EndChar

StartChar: OE
Encoding: 338 338 294
Width: 2214
GlyphClass: 2
Flags: W
LayerCount: 2
Fore
SplineSet
1717 1530 m 2,0,1
 1967 1530 1967 1530 2072 1545 c 1,2,3
 2072 1321 2072 1321 2027 1171 c 1,4,-1
 1939 1171 l 1,5,6
 1929 1333 1929 1333 1875 1377 c 0,7,8
 1845 1401 1845 1401 1797 1407 c 128,-1,9
 1749 1413 1749 1413 1677 1413 c 2,10,-1
 1271 1413 l 1,11,-1
 1271 872 l 1,12,-1
 1516 872 l 2,13,14
 1620 872 1620 872 1654 915 c 0,15,16
 1670 936 1670 936 1675.5 968 c 128,-1,17
 1681 1000 1681 1000 1686 1042 c 1,18,-1
 1795 1043 l 1,19,-1
 1795 995 l 2,20,21
 1795 853 1795 853 1787 734 c 2,22,-1
 1776 569 l 1,23,-1
 1666 569 l 1,24,25
 1659 682 1659 682 1639 711.5 c 128,-1,26
 1619 741 1619 741 1589.5 752 c 128,-1,27
 1560 763 1560 763 1510 763 c 2,28,-1
 1271 763 l 1,29,-1
 1271 278 l 2,30,31
 1271 180 1271 180 1324 146 c 0,32,33
 1372 115 1372 115 1501 111 c 1,34,-1
 1692 111 l 2,35,36
 1898 111 1898 111 1976 284 c 0,37,38
 2000 339 2000 339 2008 407 c 1,39,-1
 2118 407 l 1,40,41
 2118 296 2118 296 2096 170 c 2,42,-1
 2065 0 l 1,43,-1
 982 0 l 1,44,45
 905 -15 905 -15 786 -15 c 128,-1,46
 667 -15 667 -15 540.5 34.5 c 128,-1,47
 414 84 414 84 323 180 c 0,48,49
 129 385 129 385 135 736 c 0,50,51
 141 1086 141 1086 326 1306 c 0,52,53
 527 1546 527 1546 883 1546 c 0,54,55
 968 1546 968 1546 1048 1530 c 1,56,-1
 1717 1530 l 2,0,1
905 1420 m 1,57,58
 883 1422 883 1422 861 1422 c 0,59,60
 647 1422 647 1422 512 1269 c 1,61,62
 368 1104 368 1104 362 801 c 0,63,64
 356 488 356 488 485 302 c 0,65,66
 620 108 620 108 868 108 c 0,67,68
 957 108 957 108 1026 134 c 1,69,70
 1052 157 1052 157 1060 198.5 c 128,-1,71
 1068 240 1068 240 1068 306 c 2,72,-1
 1068 1222 l 2,73,74
 1068 1352 1068 1352 1030 1394 c 1,75,76
 988 1410 988 1410 960 1412 c 1,77,78
 925 1416 925 1416 904 1411 c 1,79,-1
 905 1420 l 1,57,58
EndSplineSet
EndChar

StartChar: oe
Encoding: 339 339 295
Width: 2103
GlyphClass: 2
Flags: W
LayerCount: 2
Fore
SplineSet
1498 -17 m 0,0,1
 1197 -17 1197 -17 1074 202 c 1,2,3
 993 99 993 99 876.5 42 c 128,-1,4
 760 -15 760 -15 629 -15 c 128,-1,5
 498 -15 498 -15 401.5 28.5 c 128,-1,6
 305 72 305 72 239 148 c 0,7,8
 103 305 103 305 103 551 c 0,9,10
 103 562 103 562 103 573 c 0,11,12
 103 721 103 721 158 843.5 c 128,-1,13
 213 966 213 966 294 1046 c 0,14,15
 461 1209 461 1209 704 1209 c 0,16,17
 848 1209 848 1209 955.5 1149.5 c 128,-1,18
 1063 1090 1063 1090 1127 987 c 1,19,20
 1245 1147 1245 1147 1424 1194 c 0,21,22
 1482 1209 1482 1209 1566 1209 c 128,-1,23
 1650 1209 1650 1209 1731 1177 c 128,-1,24
 1812 1145 1812 1145 1866 1083 c 0,25,26
 1974 959 1974 959 1974 723 c 2,27,-1
 1974 686 l 2,28,29
 1974 588 1974 588 1951 588 c 2,30,-1
 1192 588 l 1,31,32
 1192 373 1192 373 1284 263 c 128,-1,33
 1376 153 1376 153 1555 153 c 1,34,35
 1746 163 1746 163 1901 245 c 1,36,-1
 1943 166 l 1,37,38
 1798 42 1798 42 1602 -4 c 0,39,40
 1545 -17 1545 -17 1498 -17 c 0,0,1
1760 780 m 2,41,42
 1760 1092 1760 1092 1484 1092 c 0,43,44
 1373 1092 1373 1092 1282 964 c 0,45,46
 1192 839 1192 839 1192 688 c 1,47,-1
 1759 712 l 1,48,49
 1760 734 1760 734 1760 746 c 2,50,-1
 1760 780 l 2,41,42
521.5 150.5 m 128,-1,52
 588 108 588 108 664.5 108 c 128,-1,53
 741 108 741 108 800 135 c 128,-1,54
 859 162 859 162 902 218 c 0,55,56
 996 340 996 340 996 566 c 0,57,58
 996 791 996 791 903 938 c 0,59,60
 806 1092 806 1092 650 1092 c 0,61,62
 506 1092 506 1092 416 982 c 0,63,64
 314 858 314 858 314 631 c 0,65,66
 314 414 314 414 409 265 c 0,67,51
 455 193 455 193 521.5 150.5 c 128,-1,52
EndSplineSet
EndChar

StartChar: Scedilla
Encoding: 350 350 306
Width: 1364
GlyphClass: 2
Flags: W
LayerCount: 2
Fore
SplineSet
504 -313 m 1,0,1
 575 -359 575 -359 672 -359 c 0,2,3
 751 -359 751 -359 772 -312 c 0,4,5
 777 -299 777 -299 777 -278.5 c 128,-1,6
 777 -258 777 -258 758 -237.5 c 128,-1,7
 739 -217 739 -217 715.5 -197 c 128,-1,8
 692 -177 692 -177 673 -152.5 c 128,-1,9
 654 -128 654 -128 654 -92.5 c 128,-1,10
 654 -57 654 -57 671 -16 c 1,11,12
 605 -15 605 -15 508 3 c 0,13,14
 330 36 330 36 273.5 36 c 128,-1,15
 217 36 217 36 177 30 c 1,16,17
 176 52 176 52 176 74 c 2,18,-1
 176 116 l 2,19,20
 176 326 176 326 199 457 c 1,21,-1
 298 457 l 1,22,23
 306 269 306 269 392 181 c 0,24,25
 482 89 482 89 672 89 c 0,26,27
 831 89 831 89 926 161 c 0,28,29
 1020 232 1020 232 1016 347 c 0,30,31
 1009 515 1009 515 746 630 c 2,32,-1
 591 698 l 2,33,34
 205 868 205 868 198 1160 c 0,35,36
 194 1334 194 1334 340 1440 c 0,37,38
 483 1545 483 1545 713 1545 c 0,39,40
 744 1545 744 1545 783 1540 c 2,41,-1
 866 1529 l 2,42,43
 985 1513 985 1513 1050.5 1513 c 128,-1,44
 1116 1513 1116 1513 1167 1524 c 1,45,46
 1169 1484 1169 1484 1169 1449 c 0,47,48
 1169 1288 1169 1288 1137 1116 c 1,49,-1
 1041 1116 l 1,50,51
 1035 1369 1035 1369 836 1422 c 0,52,53
 774 1439 774 1439 689 1439 c 128,-1,54
 604 1439 604 1439 544.5 1416.5 c 128,-1,55
 485 1394 485 1394 452 1359 c 0,56,57
 394 1298 394 1298 399 1197 c 0,58,59
 407 1043 407 1043 622 933 c 0,60,61
 687 900 687 900 765 865.5 c 128,-1,62
 843 831 843 831 927.5 788.5 c 128,-1,63
 1012 746 1012 746 1080 691 c 0,64,65
 1230 568 1230 568 1234 403 c 1,66,67
 1236 213 1236 213 1102 104 c 0,68,69
 976 2 976 2 761 -13 c 1,70,71
 767 -52 767 -52 803 -82 c 2,72,-1
 862 -131 l 2,73,74
 950 -203 950 -203 950 -287 c 0,75,76
 950 -394 950 -394 862 -460 c 1,77,78
 788 -517 788 -517 679 -517 c 128,-1,79
 570 -517 570 -517 504 -482 c 1,80,-1
 504 -313 l 1,0,1
EndSplineSet
EndChar

StartChar: scedilla
Encoding: 351 351 307
Width: 1031
GlyphClass: 2
Flags: W
LayerCount: 2
Fore
SplineSet
234 27.5 m 128,-1,1
 202 33 202 33 178.5 33 c 128,-1,2
 155 33 155 33 133 29 c 1,3,4
 137 218 137 218 152 340 c 1,5,-1
 268 340 l 1,6,7
 277 156 277 156 419 116 c 0,8,9
 469 102 469 102 528 102 c 128,-1,10
 587 102 587 102 627 110.5 c 128,-1,11
 667 119 667 119 694 138 c 0,12,13
 751 179 751 179 751 267 c 0,14,15
 751 393 751 393 576 469 c 2,16,-1
 479 511 l 1,17,18
 321 581 321 581 261.5 633 c 128,-1,19
 202 685 202 685 171 742.5 c 128,-1,20
 140 800 140 800 139 881 c 128,-1,21
 138 962 138 962 174.5 1023.5 c 128,-1,22
 211 1085 211 1085 270 1126 c 0,23,24
 386 1209 386 1209 550 1209 c 0,25,26
 595 1209 595 1209 648 1201 c 0,27,28
 746 1186 746 1186 785 1186 c 128,-1,29
 824 1186 824 1186 876 1199 c 1,30,31
 878 1189 878 1189 878 1121 c 128,-1,32
 878 1053 878 1053 846 882 c 1,33,-1
 736 882 l 1,34,35
 734 999 734 999 681 1048 c 0,36,37
 628 1096 628 1096 508 1096 c 0,38,39
 368 1096 368 1096 326 1004 c 0,40,41
 312 973 312 973 312 931.5 c 128,-1,42
 312 890 312 890 331.5 859 c 128,-1,43
 351 828 351 828 384 802 c 0,44,45
 433 763 433 763 520.5 724.5 c 128,-1,46
 608 686 608 686 676 652.5 c 128,-1,47
 744 619 744 619 801 574 c 0,48,49
 932 472 932 472 934 340 c 0,50,51
 936 184 936 184 819 85 c 0,52,53
 712 -5 712 -5 555 -14 c 1,54,55
 561 -52 561 -52 597 -82 c 2,56,-1
 656 -132 l 1,57,58
 744 -202 744 -202 744 -287 c 0,59,60
 744 -394 744 -394 656 -460 c 1,61,62
 582 -517 582 -517 473 -517 c 128,-1,63
 364 -517 364 -517 298 -482 c 1,64,-1
 298 -313 l 1,65,66
 369 -359 369 -359 466 -359 c 0,67,68
 545 -359 545 -359 566 -312 c 0,69,70
 571 -299 571 -299 571 -278.5 c 128,-1,71
 571 -258 571 -258 552 -237.5 c 128,-1,72
 533 -217 533 -217 510 -197 c 128,-1,73
 487 -177 487 -177 468 -152.5 c 128,-1,74
 449 -128 449 -128 449 -90.5 c 128,-1,75
 449 -53 449 -53 467 -12 c 1,76,77
 407 -7 407 -7 336.5 7.5 c 128,-1,0
 266 22 266 22 234 27.5 c 128,-1,1
EndSplineSet
EndChar

StartChar: tcaron
Encoding: 357 357 313
Width: 1026
GlyphClass: 2
Flags: W
LayerCount: 2
Fore
SplineSet
780 1160 m 1,0,1
 897 1277 897 1277 897 1395 c 1,2,3
 800 1405 800 1405 764 1498 c 0,4,5
 753 1526 753 1526 753 1559 c 128,-1,6
 753 1592 753 1592 765.5 1622 c 128,-1,7
 778 1652 778 1652 800 1674 c 0,8,9
 848 1722 848 1722 900 1722 c 128,-1,10
 952 1722 952 1722 981.5 1707.5 c 128,-1,11
 1011 1693 1011 1693 1030 1667 c 0,12,13
 1070 1614 1070 1614 1070 1531.5 c 128,-1,14
 1070 1449 1070 1449 1044 1377 c 128,-1,15
 1018 1305 1018 1305 983 1249.5 c 128,-1,16
 948 1194 948 1194 913.5 1161 c 128,-1,17
 879 1128 879 1128 861 1128 c 0,18,19
 819 1128 819 1128 780 1160 c 1,0,1
766 205 m 1,20,-1
 807 126 l 1,21,22
 715 38 715 38 558 -2 c 0,23,24
 509 -15 509 -15 456 -15 c 128,-1,25
 403 -15 403 -15 359 -3 c 128,-1,26
 315 9 315 9 286 38 c 0,27,28
 229 94 229 94 223 236 c 1,29,-1
 223 1040 l 1,30,-1
 48 1040 l 1,31,-1
 56 1140 l 1,32,33
 196 1165 196 1165 250 1245 c 0,34,35
 293 1308 293 1308 324 1498 c 1,36,-1
 420 1498 l 1,37,-1
 420 1190 l 1,38,-1
 680 1190 l 1,39,-1
 680 1040 l 1,40,-1
 412 1040 l 1,41,-1
 412 352 l 2,42,43
 412 226 412 226 450 186 c 0,44,45
 481 152 481 152 583 152 c 128,-1,46
 685 152 685 152 766 205 c 1,20,-1
EndSplineSet
EndChar

StartChar: Tbar
Encoding: 358 358 314
Width: 1535
GlyphClass: 2
Flags: W
LayerCount: 2
Fore
SplineSet
392 108 m 1,0,1
 490 108 490 108 545 114 c 128,-1,2
 600 120 600 120 626.5 140.5 c 128,-1,3
 653 161 653 161 659 201.5 c 128,-1,4
 665 242 665 242 665 311 c 2,5,-1
 665 714 l 1,6,-1
 369 714 l 1,7,-1
 389 839 l 1,8,-1
 665 839 l 1,9,-1
 665 1411 l 1,10,-1
 500 1412 l 1,11,12
 329 1408 329 1408 271 1350 c 0,13,14
 212 1292 212 1292 198 1131 c 1,15,-1
 71 1131 l 1,16,17
 76 1170 76 1170 83 1217 c 2,18,19
 83 1217 83 1217 129 1530 c 1,20,-1
 1440 1530 l 1,21,22
 1442 1519 1442 1519 1442 1506 c 2,23,-1
 1442 1478 l 2,24,25
 1442 1434 1442 1434 1438 1356 c 2,26,-1
 1433 1228 l 2,27,28
 1431 1180 1431 1180 1430 1131 c 1,29,-1
 1302 1131 l 1,30,31
 1302 1263 1302 1263 1294 1300.5 c 128,-1,32
 1286 1338 1286 1338 1271.5 1358 c 128,-1,33
 1257 1378 1257 1378 1231 1390 c 0,34,35
 1185 1410 1185 1410 1069 1412 c 1,36,-1
 872 1411 l 1,37,-1
 872 839 l 1,38,-1
 1155 839 l 1,39,-1
 1135 714 l 1,40,-1
 872 714 l 1,41,-1
 872 289 l 2,42,43
 872 171 872 171 890.5 146 c 128,-1,44
 909 121 909 121 934.5 114.5 c 128,-1,45
 960 108 960 108 985 108 c 128,-1,46
 1010 108 1010 108 1031 109.5 c 128,-1,47
 1052 111 1052 111 1076 113 c 0,48,49
 1133 118 1133 118 1152 122 c 1,50,-1
 1140 0 l 1,51,-1
 384 1 l 1,52,-1
 392 108 l 1,0,1
EndSplineSet
EndChar

StartChar: tbar
Encoding: 359 359 315
Width: 852
GlyphClass: 2
Flags: W
LayerCount: 2
Fore
SplineSet
766 205 m 1,0,-1
 807 126 l 1,1,2
 715 38 715 38 558 -2 c 0,3,4
 509 -15 509 -15 456 -15 c 128,-1,5
 403 -15 403 -15 359 -3 c 128,-1,6
 315 9 315 9 286 38 c 0,7,8
 229 94 229 94 223 236 c 1,9,-1
 223 537 l 1,10,-1
 63 537 l 1,11,-1
 81 665 l 1,12,-1
 223 665 l 1,13,-1
 223 1040 l 1,14,-1
 48 1040 l 1,15,-1
 56 1140 l 1,16,17
 196 1165 196 1165 250 1245 c 0,18,19
 293 1308 293 1308 324 1498 c 1,20,-1
 420 1498 l 1,21,-1
 420 1190 l 1,22,-1
 790 1190 l 1,23,-1
 790 1040 l 1,24,-1
 412 1040 l 1,25,-1
 412 665 l 1,26,-1
 764 665 l 1,27,-1
 746 537 l 1,28,-1
 412 537 l 1,29,-1
 412 352 l 2,30,31
 412 226 412 226 450 186 c 0,32,33
 481 152 481 152 583 152 c 128,-1,34
 685 152 685 152 766 205 c 1,0,-1
EndSplineSet
EndChar

StartChar: Uogonek
Encoding: 370 370 326
Width: 1537
GlyphClass: 2
Flags: W
LayerCount: 2
Fore
SplineSet
1132 -356 m 1,0,-1
 1132 -444 l 1,1,2
 1053 -510 1053 -510 922 -510 c 0,3,4
 820 -510 820 -510 749 -452 c 0,5,6
 672 -390 672 -390 672 -289 c 0,7,8
 672 -194 672 -194 734 -107 c 0,9,10
 773 -52 773 -52 825 -14 c 1,11,12
 816 -15 816 -15 808 -15 c 2,13,-1
 790 -15 l 2,14,15
 487 -15 487 -15 338 159 c 0,16,17
 201 319 201 319 201 617 c 2,18,-1
 201 1058 l 1,19,-1
 200 1234 l 1,20,-1
 200 1264 l 2,21,22
 200 1369 200 1369 184 1391 c 128,-1,23
 168 1413 168 1413 151.5 1415.5 c 128,-1,24
 135 1418 135 1418 119 1418 c 0,25,26
 87 1418 87 1418 42 1408 c 1,27,-1
 56 1530 l 1,28,-1
 607 1530 l 1,29,-1
 592 1418 l 1,30,31
 468 1418 468 1418 437 1384 c 0,32,33
 407 1352 407 1352 407 1222 c 2,34,-1
 407 646 l 2,35,36
 407 108 407 108 789 108 c 0,37,38
 920 108 920 108 986.5 137 c 128,-1,39
 1053 166 1053 166 1092 203.5 c 128,-1,40
 1131 241 1131 241 1159 300 c 0,41,42
 1218 423 1218 423 1218 636 c 2,43,-1
 1218 1197 l 2,44,45
 1218 1323 1218 1323 1199.5 1359.5 c 128,-1,46
 1181 1396 1181 1396 1160 1407 c 128,-1,47
 1139 1418 1139 1418 1104 1418 c 128,-1,48
 1069 1418 1069 1418 1031 1408 c 1,49,-1
 1042 1530 l 1,50,-1
 1510 1530 l 1,51,-1
 1495 1418 l 1,52,53
 1400 1418 1400 1418 1376 1374 c 1,54,55
 1356 1335 1356 1335 1356 1194 c 2,56,-1
 1356 610 l 2,57,58
 1356 155 1356 155 1058 31 c 1,59,-1
 1065 31 l 1,60,61
 1060 28 1060 28 1043 19 c 128,-1,62
 1026 10 1026 10 1002 -6 c 128,-1,63
 978 -22 978 -22 952 -44.5 c 128,-1,64
 926 -67 926 -67 904 -97 c 0,65,66
 853 -167 853 -167 853 -247 c 0,67,68
 853 -309 853 -309 904 -346 c 0,69,70
 948 -379 948 -379 1015.5 -379 c 128,-1,71
 1083 -379 1083 -379 1132 -356 c 1,0,-1
EndSplineSet
EndChar

StartChar: uogonek
Encoding: 371 371 327
Width: 1365
GlyphClass: 2
Flags: W
LayerCount: 2
Fore
SplineSet
962 -371 m 128,-1,1
 991 -379 991 -379 1040.5 -379 c 128,-1,2
 1090 -379 1090 -379 1139 -356 c 1,3,-1
 1139 -444 l 1,4,5
 1060 -510 1060 -510 929 -510 c 0,6,7
 827 -510 827 -510 756 -452 c 0,8,9
 679 -390 679 -390 679 -289 c 0,10,11
 679 -177 679 -177 781 -80 c 0,12,13
 826 -37 826 -37 884 -5 c 1,14,-1
 960 32 l 1,15,16
 963 31 963 31 967 31 c 256,17,18
 971 31 971 31 976 30.5 c 128,-1,19
 981 30 981 30 987 30 c 1,20,21
 963 85 963 85 954 149 c 1,22,23
 877 72 877 72 712 15 c 0,24,25
 549 -41 549 -41 418 4 c 0,26,27
 290 48 290 48 241 177 c 0,28,29
 216 243 216 243 216 333 c 1,30,-1
 224 900 l 1,31,32
 224 1001 224 1001 192 1031 c 0,33,34
 171 1052 171 1052 97 1059 c 1,35,-1
 112 1155 l 1,36,-1
 443 1209 l 1,37,38
 440 1173 440 1173 435.5 1137.5 c 128,-1,39
 431 1102 431 1102 426.5 1058.5 c 128,-1,40
 422 1015 422 1015 417.5 960.5 c 128,-1,41
 413 906 413 906 410 832 c 0,42,43
 402 673 402 673 402 516 c 128,-1,44
 402 359 402 359 412.5 303.5 c 128,-1,45
 423 248 423 248 448 214 c 0,46,47
 495 148 495 148 611 148 c 0,48,49
 768 148 768 148 896 228 c 0,50,51
 928 248 928 248 941 264 c 1,52,-1
 941 890 l 2,53,54
 941 997 941 997 900 1028 c 0,55,56
 866 1053 866 1053 756 1055 c 1,57,-1
 771 1155 l 1,58,-1
 1146 1209 l 1,59,60
 1143 1150 1143 1150 1140 1110 c 128,-1,61
 1137 1070 1137 1070 1135 1040 c 128,-1,62
 1133 1010 1133 1010 1131.5 985 c 128,-1,63
 1130 960 1130 960 1129 932 c 0,64,65
 1127 878 1127 878 1127 782 c 2,66,-1
 1127 304 l 2,67,68
 1127 200 1127 200 1154 174 c 0,69,70
 1169 160 1169 160 1208 160 c 128,-1,71
 1247 160 1247 160 1297 180 c 1,72,-1
 1294 58 l 1,73,-1
 1078 1 l 1,74,75
 937 -54 937 -54 882 -153 c 0,76,77
 860 -194 860 -194 860 -237.5 c 128,-1,78
 860 -281 860 -281 874 -305.5 c 128,-1,79
 888 -330 888 -330 910.5 -346.5 c 128,-1,0
 933 -363 933 -363 962 -371 c 128,-1,1
EndSplineSet
EndChar

StartChar: florin
Encoding: 402 402 339
Width: 860
GlyphClass: 2
Flags: W
LayerCount: 2
Fore
SplineSet
536 1045 m 1,0,1
 429 51 429 51 310 -357 c 1,2,-1
 181 -357 l 1,3,-1
 329 1045 l 1,4,-1
 140 1045 l 1,5,-1
 165 1170 l 1,6,-1
 344 1190 l 1,7,8
 349 1237 349 1237 359 1290 c 2,9,10
 359 1290 359 1290 377 1386 c 0,11,12
 403 1529 403 1529 502 1637 c 1,13,14
 623 1771 623 1771 836 1771 c 0,15,16
 1009 1771 1009 1771 1056 1695 c 0,17,18
 1097 1630 1097 1630 1011 1470 c 1,19,20
 963 1463 963 1463 941.5 1464 c 128,-1,21
 920 1465 920 1465 910 1465 c 128,-1,22
 900 1465 900 1465 890 1466 c 2,23,-1
 869 1468 l 2,24,25
 859 1469 859 1469 855 1471 c 1,26,27
 866 1522 866 1522 866 1554 c 0,28,29
 866 1656 866 1656 754 1654 c 0,30,31
 681 1652 681 1652 628 1561 c 0,32,33
 581 1482 581 1482 570 1374 c 2,34,-1
 551 1190 l 1,35,-1
 824 1190 l 1,36,-1
 794 1045 l 1,37,-1
 536 1045 l 1,0,1
EndSplineSet
EndChar

StartChar: dotlessj
Encoding: 567 567 344
Width: 683
GlyphClass: 2
Flags: W
LayerCount: 2
Fore
SplineSet
511 1209 m 1,0,1
 475 1115 475 1115 475 698 c 0,2,3
 475 509 475 509 477 441 c 128,-1,4
 479 373 479 373 480 333 c 128,-1,5
 481 293 481 293 482 256 c 0,6,7
 486 171 486 171 486.5 66 c 128,-1,8
 487 -39 487 -39 450.5 -142 c 128,-1,9
 414 -245 414 -245 357 -320 c 0,10,11
 264 -441 264 -441 103 -520 c 1,12,-1
 37 -463 l 1,13,14
 258 -281 258 -281 286 49 c 0,15,16
 295 150 295 150 295 204 c 2,17,-1
 295 843 l 2,18,19
 295 996 295 996 182 1022 c 0,20,21
 142 1031 142 1031 87 1031 c 1,22,-1
 103 1155 l 1,23,-1
 511 1209 l 1,0,1
EndSplineSet
EndChar

StartChar: circumflex
Encoding: 710 710 345
Width: 1048
GlyphClass: 2
Flags: W
LayerCount: 2
Fore
SplineSet
195 1451 m 1,0,-1
 594 1748 l 1,1,-1
 987 1450 l 1,2,-1
 905 1349 l 1,3,-1
 594 1523 l 1,4,-1
 270 1349 l 1,5,-1
 195 1451 l 1,0,-1
EndSplineSet
EndChar

